<?xml version="1.0" standalone="no"?>
<!DOCTYPE svg PUBLIC "-//W3C//DTD SVG 1.1//EN" "http://www.w3.org/Graphics/SVG/1.1/DTD/svg11.dtd" >
<svg xmlns="http://www.w3.org/2000/svg">
<metadata></metadata>
<defs>
<font id="ekaterina_velikaya_tworegular" horiz-adv-x="743" >
<font-face units-per-em="2048" ascent="1638" descent="-410" />
<missing-glyph horiz-adv-x="780" />
<glyph horiz-adv-x="2048" />
<glyph horiz-adv-x="2048" />
<glyph horiz-adv-x="682" />
<glyph horiz-adv-x="1024" d="M1694 2386q20 -41 46.5 -82t59.5 -73.5t71 -53t81 -20.5q51 0 112.5 29.5t120 73.5t107.5 95t75 99q-117 -100 -240.5 -136.5t-228.5 -36.5q-59 0 -113 32t-91 73z" />
<glyph horiz-adv-x="512" d="M653 1264q0 -23 15.5 -37.5t38.5 -14.5q20 0 36.5 14.5t16.5 37.5t-15.5 38t-37.5 15q-23 0 -38.5 -15.5t-15.5 -37.5z" />
<glyph horiz-adv-x="1931" d="M639 1221q0 55 26.5 112.5t69.5 103.5t96.5 74.5t108.5 28.5q14 0 33.5 -3t38 -14.5t31 -35t12.5 -64.5q0 -59 -24.5 -121.5t-65.5 -114.5t-95.5 -85t-111.5 -33q-66 0 -92.5 46t-26.5 106zM682 1161q0 -27 16.5 -52.5t51.5 -25.5q51 0 103 35t93 86t67.5 110.5 t26.5 108.5q0 33 -18 61.5t-53 28.5q-37 0 -86 -28.5t-93.5 -76.5t-76 -112.5t-31.5 -134.5z" />
<glyph unicode="&#xa;" horiz-adv-x="555" d="M2 1264q18 14 65.5 58t98.5 104.5t94 130t53 137.5q2 8 3 14t1 12q0 47 -36 47q-23 0 -50 -20q-35 -29 -60.5 -69t-35.5 -95q0 -53 37 -53q-6 -33 -23.5 -66.5t-42 -66.5t-52 -67t-52.5 -66zM240 1264q23 14 70.5 58t100 104.5t95.5 130t53 137.5q4 20 4 30q0 47 -37 48 q-25 0 -49 -17q-35 -29 -60.5 -72t-35.5 -92q0 -61 37 -61q-16 -61 -69.5 -131t-108.5 -135z" />
<glyph horiz-adv-x="819" d="M563 1210q16 -33 38 -65.5t48.5 -58t56 -42t64.5 -16.5q43 0 92 23.5t95.5 59.5t85 77t61.5 78q-92 -80 -191.5 -109t-185.5 -29q-47 0 -90 24.5t-74 57.5z" />
<glyph unicode="&#xd;" horiz-adv-x="780" />
<glyph horiz-adv-x="1003" d="M-121 260l23 -31q125 70 235.5 176.5t216 215t211.5 204t223 142.5l-22 22q-123 -53 -235.5 -152.5t-221 -209t-215 -211t-215.5 -156.5z" />
<glyph horiz-adv-x="634" d="M-680 -1165h96q45 76 118 199.5t163 273t191.5 317.5t201.5 334t194.5 321.5t170 280.5t128 210t68.5 112h262q-29 -53 -57.5 -100.5t-65 -107t-87 -143t-119.5 -210.5q-61 -115 -62 -207q0 -31 7.5 -56.5t17.5 -42.5q8 -18 28.5 -25t49.5 -7q33 0 67.5 8t63.5 24 q96 51 198.5 121t180.5 156l-7 6q-35 -37 -79.5 -74t-96 -71.5t-104.5 -68.5t-100 -60q-16 -10 -48 -18.5t-59 -8.5q-20 0 -27 4q-33 23 -32 64q0 27 10 47q53 104 112.5 208.5t119 206t115.5 196.5t103 179h-376l47 70q154 117 315.5 253t295.5 280.5t219 295t85 297.5 q0 109 -90 109q-66 0 -163 -74t-216 -240q-63 -90 -138 -208.5t-154 -250.5t-159.5 -268.5t-158.5 -261.5h-307v-22q76 -20 116.5 -70.5t40.5 -110.5q0 -20 -5 -40.5t-17 -38.5q-90 -147 -187.5 -308t-196.5 -324t-195.5 -325t-183.5 -311.5t-163 -281.5t-131 -238zM303 883 h238l-119 -195q0 47 -10.5 79t-27.5 54.5t-38.5 36.5t-42.5 25zM764 1069q70 119 150.5 264.5t167.5 287.5t176.5 271t175.5 219q74 76 120 76q29 0 44.5 -25.5t15.5 -62.5q0 -117 -70.5 -251t-189.5 -270t-271.5 -267t-318.5 -242zM1077 1190q0 -23 15.5 -37t37.5 -14 q20 0 37 14t17 37t-15.5 38t-38.5 15t-38 -15.5t-15 -37.5z" />
<glyph horiz-adv-x="634" d="M-737 -1237h96q45 76 117.5 200t163 273.5t191.5 317t201.5 333.5t195 322t170 280.5t128 209.5t68.5 112q129 0 235.5 36t208.5 79q-66 -106 -131 -213t-131 -211q-25 -41 -52.5 -87t-51 -93.5t-39 -91.5t-15.5 -78q0 -61 22 -96.5t52.5 -52.5t65.5 -21.5t63 -4.5 q94 0 176 48.5t148.5 111t118 122.5t86.5 87l-9 6q-45 -37 -100 -98t-119.5 -120.5t-139.5 -102.5t-161 -43q-61 0 -102 34.5t-41 83.5q0 45 22.5 92.5t44.5 88.5l33 57q88 152 186.5 317.5t190.5 307.5q264 119 482 338t397 559q47 92 67.5 155.5t20.5 100.5q0 66 -58 65 q-35 0 -82 -22.5t-96 -56t-93 -75.5t-73 -79q-68 -90 -145.5 -202t-161.5 -239t-172 -266t-178 -282q-117 -53 -230.5 -92t-222.5 -39l45 67q137 106 266.5 213t246 224.5t219 249.5t184.5 288q76 141 76 225q0 53 -25 82t-68 29q-66 0 -164 -74t-214 -240 q-63 -90 -149.5 -221t-179.5 -276.5t-185.5 -294t-169.5 -272.5h-308v-23q76 -20 117 -70.5t41 -109.5q0 -20 -5 -41t-18 -39q-90 -147 -187 -308t-196.5 -324t-195.5 -324.5t-183 -311t-163 -281.5t-131 -239zM246 811h237l-118 -195q0 47 -10.5 79t-28 54.5t-39 37 t-41.5 24.5zM707 997q47 80 104 177.5t120.5 201t131 210t135.5 203.5t132.5 181t121.5 144q41 41 70.5 58t52.5 17q29 0 43 -24.5t14 -61.5q0 -51 -24 -100q-141 -299 -363.5 -549t-537.5 -457zM1178 1016q43 70 107.5 170t138 209.5t149.5 219t140.5 202t112.5 158 t66 83.5q61 63 100.5 90t63.5 27q23 0 32 -16t9 -39q0 -18 -5 -38t-13 -38q-53 -123 -132 -264.5t-187.5 -280.5t-253 -265t-328.5 -218z" />
<glyph horiz-adv-x="2138" d="M74 31q0 -12 14 -21.5t45 -9.5h8q61 2 105.5 6t82.5 14.5t73.5 26.5t80.5 41q94 -25 189.5 -52.5t190.5 -50t189.5 -38t186.5 -15.5q104 0 213 34t210 92.5t191.5 138t158 172t106.5 193t39 198.5q0 129 -67 204.5t-218 75.5q-47 0 -95 -10t-102 -33v-30q49 29 100.5 42 t100.5 13q133 0 192.5 -77t59.5 -189q0 -102 -38 -197.5t-103.5 -178.5t-151.5 -152.5t-181 -119t-194.5 -76t-191.5 -26.5q-104 0 -202.5 18.5t-192 41t-178.5 41t-160 18.5q143 111 282 252t274.5 299t264.5 321.5t247.5 319.5t228.5 294t205 243.5t177 171t145 73.5v15 q-61 -16 -133 -46t-127 -81q-102 0 -192 19t-176 44t-174.5 44.5t-186.5 19.5q-125 0 -260 -44.5t-247.5 -125t-186.5 -197.5t-74 -264q0 -63 17.5 -127t52.5 -115t87 -83t122 -32q74 0 145.5 45.5t134.5 122.5q0 8 -14 9q-63 -82 -133 -116t-133 -34q-70 0 -118 29.5 t-79 76t-44 104.5t-13 118q0 127 57 227t149.5 169t207 105.5t229.5 36.5q76 0 153.5 -11t168.5 -25.5t202 -25.5t254 -13q-98 -98 -221 -243t-260 -311.5t-281.5 -346t-284 -347.5t-268.5 -314t-235 -249q-23 2 -45.5 3t-49.5 1q-59 0 -127.5 -10t-150.5 -45 q-51 -23 -51 -51zM111 35q0 10 30 24q72 23 130.5 31t105.5 8h31q16 0 30 -2q-31 -14 -57.5 -26.5t-57 -22.5t-68.5 -17t-91 -10h-8q-16 0 -30.5 4.5t-14.5 10.5zM1468 2443q16 -33 38 -65.5t48.5 -58t56 -42t64.5 -16.5q43 0 92.5 23.5t95.5 59.5t85 77t61 78 q-92 -80 -191.5 -109t-185.5 -29q-47 0 -90 24.5t-74 57.5z" />
<glyph horiz-adv-x="669" d="M-707 -1419q0 -72 60 -72q23 0 57.5 12.5t75.5 40.5q162 117 291 240t232.5 256t186.5 276.5t152 298.5q31 70 51.5 153t20.5 157q0 16 -1 29.5t-3 27.5l149 170h-14l-141 -150q-23 70 -73 94.5t-95 24.5q-29 0 -49 -6l745 828l-16 6q-47 0 -81 -36t-63.5 -82t-60.5 -90 t-70 -61q-10 -4 -24.5 -8t-30.5 -4q-41 0 -64 29q-16 18 -21 32.5t-5 26.5q0 8 1 14.5t3 14.5q4 23 27.5 47t39.5 35l-8 22q-16 -4 -38.5 -20.5t-34.5 -38.5q-10 -23 -16.5 -38t-6.5 -44q-96 -152 -190.5 -271.5t-159.5 -197.5h37q78 96 159.5 199.5t159.5 232.5 q16 -33 45 -49t64 -16q45 0 92 28l-662 -692h15q18 14 41.5 30.5t49 32t52.5 25.5t55 10q25 0 48.5 -11t41 -29.5t28.5 -40t11 -40.5q-29 -55 -117.5 -152t-206.5 -219t-248 -259.5t-238.5 -274.5t-180.5 -264t-72 -227zM-690 -1405q0 29 13 68t42 86q49 80 126 182t167 213 t187.5 223.5t187.5 214t166.5 185t124.5 137.5l32 35q0 -61 -22.5 -139.5t-87.5 -194.5q-74 -129 -148.5 -254t-159.5 -248t-183.5 -241.5t-217.5 -233.5q-53 -51 -99 -72.5t-75 -21.5q-53 0 -53 61zM454 1210q16 -33 38 -65.5t48.5 -58t56 -42t64.5 -16.5q43 0 92 23.5 t95.5 59.5t85 77t61.5 78q-92 -80 -191.5 -109t-185.5 -29q-47 0 -90 24.5t-74 57.5z" />
<glyph unicode=" "  horiz-adv-x="780" />
<glyph unicode="&#x09;" horiz-adv-x="780" />
<glyph unicode="&#xa0;" horiz-adv-x="780" />
<glyph unicode="!" horiz-adv-x="512" d="M41 88q0 -31 14.5 -50.5t38 -31.5t51 -16t54.5 -4q66 0 125 20.5t104 57t71.5 89t26.5 117.5q0 23 -7 47.5t-20.5 44t-35 33t-47.5 13.5q-45 0 -82 -37q106 209 218 400t206 359h-103q-31 -59 -79 -154t-107 -213t-128 -251t-140 -266q74 66 126 105.5t93 39.5 q20 0 36.5 -13t29 -32.5t19.5 -43t7 -44.5q0 -59 -28.5 -105.5t-73.5 -79t-97.5 -50t-101.5 -17.5q-16 0 -29.5 2t-27.5 6q23 0 43 23.5t20 50.5q0 37 -26.5 61.5t-61.5 24.5t-61.5 -22.5t-26.5 -63.5z" />
<glyph unicode="&#x22;" horiz-adv-x="1486" d="M1548 1616l4 6q14 20 37 59t45.5 88.5t39 106t16.5 113.5q0 41 -9 73q-12 55 -47 56q-29 0 -57 -41q-23 -39 -26 -61.5t-3 -57.5q4 -18 15.5 -33.5t27.5 -15.5q4 0 17 4q0 -82 -20.5 -153.5t-39.5 -143.5zM1767 2001q0 -8 1 -16.5t4 -18.5q8 -45 59 -45 q0 -88 -19.5 -156.5t-39.5 -142.5q12 18 35.5 58t47 91.5t41 110t17.5 115.5q0 41 -8 71q-6 27 -21.5 40.5t-34.5 13.5q-33 0 -55 -37q-12 -25 -19.5 -43.5t-7.5 -40.5z" />
<glyph unicode="#" horiz-adv-x="1562" d="M305 639q0 -72 8.5 -160t57.5 -205l22 15q-37 143 -37 252q0 96 33 199.5t82 203.5t106.5 192.5t106.5 166.5l59 -127q-70 -121 -127 -207t-99 -164t-64.5 -160t-22.5 -192q0 -96 23.5 -186.5t75 -159t132 -110.5t193.5 -42q80 0 153.5 29.5t129 83t89.5 128t34 164.5 q0 82 -29 165t-69 163t-84 158t-74 151l112 179q29 45 59.5 116.5t55 154.5t41 172t16.5 169q0 43 -5 82t-17 74l-17 -17q2 -18 3 -36.5t1 -35.5q0 -117 -29.5 -221t-74.5 -198.5t-98.5 -179.5t-98.5 -162l-59 112l164 275q74 123 98.5 245.5t24.5 208.5q0 57 -18.5 124 t-63.5 124.5t-122 94t-196 36.5q-70 0 -132 -31.5t-110.5 -82t-77 -115t-28.5 -129.5q0 -76 34 -178.5t99 -243.5l60 -127q-55 -90 -112.5 -172t-104 -171t-75 -191.5t-28.5 -233.5zM463 1946q0 61 23.5 120.5t65.5 107.5t100.5 81t127.5 39q100 -4 159.5 -41t92.5 -87 t44.5 -103.5t17.5 -90.5q-6 -111 -31 -198.5t-60.5 -164.5t-79.5 -146.5t-89 -145.5l-60 119l25 39q33 49 62.5 96t52 97t36 105.5t13.5 116.5l-2 37q-10 80 -63.5 125t-119.5 45q-39 0 -73.5 -17.5t-61.5 -48t-43 -71.5t-16 -86q0 -86 36.5 -173t75.5 -165l11 -18l-60 -88 l-59 118q-27 53 -49.5 101.5t-40 95.5t-26.5 96t-9 105zM520 383q0 98 26.5 192.5t66.5 182.5t89.5 164.5t94.5 142.5l59 -121q-43 -70 -88 -140.5t-82 -140t-60.5 -138t-23.5 -132.5q0 -63 19.5 -113.5t52.5 -86t77 -54t91 -18.5q49 0 94 17.5t80 48t56.5 75.5t21.5 100 t-14.5 118t-38 127.5t-52 130t-59.5 124.5l59 105q33 -74 73 -144.5t76 -143.5t59.5 -149.5t23.5 -158.5q0 -78 -26 -148.5t-75 -124t-122.5 -85t-170.5 -31.5q-90 0 -149.5 36.5t-94 94t-49 129t-14.5 141.5zM606 1870q0 37 14.5 71.5t38 60.5t52 41t57.5 15t54.5 -11 t44 -29.5t29.5 -42t11 -48.5q0 -80 -28.5 -139t-75.5 -129l-82 -119q-16 27 -35.5 64.5t-37 82t-30 91.5t-12.5 92zM684 348q0 33 10.5 77t37 101.5t68.5 133t107 174.5q29 -53 55.5 -112.5t47 -120t33 -120t12.5 -112.5q0 -92 -52.5 -161t-150.5 -69q-37 0 -67.5 18.5 t-53 49.5t-35 67.5t-12.5 73.5zM698 1325l60 88l61 -119l-61 -88zM819 1085l60 99l59 -113l-68 -96z" />
<glyph unicode="%" horiz-adv-x="1083" d="M184 616q0 -27 15.5 -46t48.5 -19q68 0 125 45t105 108.5t83 132t55 115.5q41 -23 75 -31t65 -8q45 0 84 25l-647 -983l454 379q-51 -55 -100 -126t-72 -149q-4 -10 -6 -20t-2 -21q0 -63 65 -63q39 0 84 22q53 27 100.5 73t85.5 98.5t64.5 105.5t40.5 94q23 -10 65 -22.5 t83 -12.5q46 1 75 21v14q-20 -27 -81 -26q-23 0 -47.5 5t-49.5 15q-16 4 -30.5 14.5t-14.5 14.5v39q-4 16 -12 29.5t-33 13.5q-29 0 -82 -23q-41 -16 -95 -56t-118.5 -93.5t-140.5 -117t-160 -126.5l613 938q-61 -49 -136 -49q-72 0 -127 49q0 35 -9 57.5t-42 22.5 q-16 0 -37 -6q-66 -18 -126 -73.5t-108 -122.5t-78 -132.5t-32 -104.5zM223 598q0 10 6 27q45 123 123 222t168 173q25 16 49 16q8 0 20.5 -8t12.5 -39t-29.5 -100.5t-78 -141t-109.5 -126t-127 -54.5q-35 0 -35 31zM506 6q14 39 43 90t66.5 104.5t80.5 105.5t84 95 q41 41 76 41q37 1 37 -32q0 -49 -22.5 -105.5t-60.5 -113t-88 -108.5t-106 -91q-43 -25 -77 -25q-33 0 -33 39z" />
<glyph unicode="&#x26;" horiz-adv-x="937" d="M45 209q0 -86 48 -147.5t143 -61.5q49 0 96 14.5t84 36.5q88 29 150.5 81t105.5 118.5t68.5 143.5t39.5 157h164l8 14q-20 -2 -37 -2h-30q-25 0 -48.5 1t-52.5 3l27 154l-119 -51v-8l45 14l-8 -103q-41 4 -92 15.5t-80 27.5q61 37 108.5 70t79 66.5t49 70.5t17.5 84 q0 72 -47 109t-119 37q-51 0 -102 -21.5t-92 -57.5t-67 -84t-26 -104q0 -55 25 -97t47 -64q14 -14 14 -25q0 -14 -20 -20q-59 -20 -126 -49t-123 -72t-93 -104.5t-37 -145.5zM133 193q0 70 33 127t82 104t108.5 84t112.5 65q14 2 14 17q0 6 -2 14t-6 21q-12 41 -26.5 86 t-14.5 92q0 45 18.5 86t47 69.5t66.5 46t79 17.5q49 0 89 -33t40 -82q0 -41 -19.5 -82t-55 -79.5t-84 -71.5t-103.5 -58q61 -29 115.5 -41t101.5 -18q-12 -61 -35.5 -138t-59.5 -147.5t-86 -127t-118 -78.5q92 76 126 146.5t34 119.5q0 51 -25.5 93t-87.5 42 q-43 0 -83 -24.5t-71.5 -64.5t-50 -89t-18.5 -99q0 -25 5 -50t19.5 -45.5t39 -35t61.5 -16.5q-47 -20 -86 -20q-72 0 -116 49t-44 121zM262 197q0 43 17.5 89t47 83t68.5 60.5t82 23.5q10 0 26.5 -3.5t33 -15.5t27.5 -35.5t11 -62.5q0 -43 -16 -84t-43 -78t-58.5 -68.5 t-64.5 -54.5q-39 0 -63.5 11.5t-40 32t-21.5 47t-6 55.5z" />
<glyph unicode="'" horiz-adv-x="389" d="M356 1049q20 14 65.5 49t93.5 84t88 110t52 129q0 43 -10 61.5t-31 18.5q-23 0 -49 -20q-16 -14 -28.5 -22.5t-20.5 -18.5t-13 -26.5t-11 -43.5q0 -53 36 -53q-6 -33 -24.5 -66.5t-43 -67.5t-52 -68t-52.5 -66z" />
<glyph unicode="(" horiz-adv-x="792" d="M147 -43q0 -109 18.5 -201t57.5 -166q14 -20 29 -20q14 0 14 41q-23 90 -22 190q0 162 46 358.5t122.5 405.5t175 416t203 388t207 325.5t186.5 226.5q26 33 26 43q0 4 -6 4q-10 0 -37 -18q-154 -131 -289 -290t-248.5 -331t-202.5 -353t-151.5 -358.5t-95.5 -345.5 t-33 -315z" />
<glyph unicode=")" horiz-adv-x="792" d="M37 -412q0 -18 18 -18q14 0 33 12q158 150 312.5 348.5t276.5 428t196.5 479t74.5 499.5q0 154 -32.5 304.5t-104.5 293.5q-10 16 -20 17q-8 0 -9.5 -11.5t-1.5 -27.5q25 -98 36 -196.5t11 -198.5q0 -190 -36.5 -378t-99 -367t-143.5 -346t-167 -315.5t-172 -273.5 t-158 -219q-14 -16 -14 -31z" />
<glyph unicode="*" horiz-adv-x="1689" d="M102 -16l9 -7q88 14 168.5 48t159.5 82.5t161 107.5t174 127l-76 -127h39l82 141q41 -80 93.5 -134t109.5 -93t113.5 -68.5t107.5 -60.5v14q-55 31 -106.5 61.5t-98.5 75t-92 108t-90 157.5q145 0 276.5 8t245 30.5t208.5 61.5t171 100q47 39 69.5 78t22.5 74 q0 45 -31.5 73.5t-91.5 28.5q-98 0 -203.5 -29.5t-212 -78.5t-211 -115.5t-198.5 -140.5l111 209h-29l-149 -254q-68 106 -147 167.5t-152 108.5l53 -82q39 -16 76.5 -67t93.5 -142h-430l-195 -30h633q-80 -55 -153.5 -120t-151.5 -124t-165 -109.5t-194 -78.5zM901 446 q76 53 169 124t198.5 134.5t221.5 107.5t236 44q53 0 78 -24.5t25 -63.5q0 -35 -23.5 -72t-70.5 -71q-76 -55 -175.5 -89t-210 -54.5t-225 -28t-223.5 -7.5z" />
<glyph unicode="+" horiz-adv-x="892" d="M238 416h192l-125 -201h96l119 201h209l51 67h-223l127 232h-82l-133 -232h-186z" />
<glyph unicode="," horiz-adv-x="608" d="M82 -291q4 4 20 17q27 25 72 64.5t90 90.5t80 110t43 120q0 41 -10 56t-29 15q-25 0 -51 -18q-29 -29 -50.5 -54.5t-31.5 -80.5q0 -45 37 -45q-6 -33 -23.5 -67t-42 -67.5t-52.5 -68.5t-52 -72z" />
<glyph unicode="-" horiz-adv-x="892" d="M238 416h491l51 67h-497z" />
<glyph unicode="." horiz-adv-x="638" d="M246 66q0 -66 41 -66q18 0 41 14q33 29 48 55.5t25 71.5q2 8 3.5 14.5t1.5 12.5q0 51 -39 51q-23 0 -48 -18q-41 -29 -57 -68t-16 -67z" />
<glyph unicode="/" horiz-adv-x="663" d="M0 0q53 0 104.5 67.5t97.5 178t88 252t80 288t70.5 287.5t60 252t51.5 178.5t42 67.5q-53 0 -99 -67.5t-88 -178.5t-80 -252t-72 -287.5t-66.5 -288t-63.5 -252t-61.5 -178t-63.5 -67.5z" />
<glyph unicode="0" horiz-adv-x="817" d="M88 227q0 -94 46 -161.5t140 -67.5q113 0 218.5 69.5t187.5 174t131 227t49 231.5q0 47 -10 89t-33.5 73t-60.5 49.5t-90 18.5q-90 0 -175 -45t-157 -116t-126 -159t-83 -172q-16 -41 -26.5 -97t-10.5 -114zM123 172q0 31 7 61.5t17 63.5q33 90 91.5 193.5t132 190.5 t156.5 145.5t167 58.5q72 0 108 -52.5t36 -130.5q0 -59 -20.5 -133.5t-56.5 -150.5t-87 -148.5t-112.5 -129t-133.5 -90.5t-147 -34q-66 0 -112 46.5t-46 109.5z" />
<glyph unicode="1" horiz-adv-x="548" d="M0 0h119q57 119 125.5 253t135 260t125 233.5t97.5 175.5q-23 -10 -48.5 -18.5t-47.5 -24.5q27 0 26 -25q0 -10 -4 -18.5t-8 -16.5q-41 -76 -108.5 -181.5t-142 -218t-147.5 -223t-122 -196.5z" />
<glyph unicode="2" horiz-adv-x="927" d="M6 20q2 -10 15.5 -14t35.5 -4q37 0 85 10.5t87 24.5q25 -10 61 -20.5t77 -19.5t85 -15.5t85 -6.5t75.5 7.5t63.5 23.5q37 25 61.5 68t24.5 78q0 29 -19 41l-6 -15q14 -12 15 -33q0 -27 -20.5 -57.5t-55.5 -50.5q-20 -16 -56 -23.5t-81 -7.5q-66 0 -139.5 14.5 t-125.5 38.5q27 10 85.5 37t131 68t149.5 94t141.5 116.5t105.5 137.5t41 154q0 49 -14.5 97t-42 85t-69.5 59.5t-97 22.5q-66 0 -124.5 -19.5t-102.5 -49.5t-70.5 -64.5t-26.5 -65.5q0 -16 11 -27.5t24 -11.5q8 45 36.5 83t69.5 65.5t89 44t94 16.5q80 0 123.5 -57.5 t43.5 -132.5q0 -88 -57 -176.5t-149.5 -171t-207 -156.5t-229.5 -133q-41 10 -71 10q-55 0 -99.5 -18.5t-52.5 -45.5z" />
<glyph unicode="3" horiz-adv-x="876" d="M92 141q0 -41 17.5 -68.5t46 -44t67.5 -23.5t82 -7q78 0 171 29.5t175 85t136.5 134.5t54.5 177q0 51 -21.5 96t-57.5 77t-80 50.5t-89 18.5q-16 0 -37 -4q23 29 69 59.5t103 62t120 64t118 67.5q0 4 -9 5q-12 0 -20 -5q-16 -8 -26.5 -14t-20.5 -12t-22.5 -12.5 t-34.5 -14.5q-25 4 -62 15.5t-80 23.5t-93 21.5t-101 9.5q-72 0 -143.5 -23.5t-139.5 -89.5l8 -8q35 29 90.5 52.5t159.5 23.5q59 0 140 -11.5t190 -35.5q-45 -25 -106.5 -61t-121 -74.5t-109.5 -77.5t-73 -70q35 29 85 46.5t97 17.5q82 0 127.5 -45.5t45.5 -131.5 t-45.5 -162.5t-116 -136t-157.5 -94.5t-169 -35q-61 0 -109.5 32t-48.5 97q0 49 45 101l-6 6q-49 -57 -49 -111z" />
<glyph unicode="4" horiz-adv-x="1099" d="M88 348q72 -45 159 -77.5t222 -77.5l-127 -193h104q23 39 49.5 83t55.5 95q51 -12 125 -12q72 0 163 17.5t195 62.5q-6 -25 -6 -51q0 -66 39 -116t123 -50v14q-23 0 -47.5 8t-45 24.5t-33.5 44t-13 66.5q0 29 10 66t33 82q-23 -29 -68 -52.5t-102.5 -40t-121 -25.5 t-120.5 -9q-29 0 -54.5 2t-47.5 6q39 80 90 177t105 195.5t106.5 187.5t93.5 155q10 16 13 24.5t3 12.5v2q-4 0 -19.5 -15.5t-19.5 -23.5q-39 -61 -92 -143t-113.5 -174.5t-126 -190.5t-128.5 -193q-158 35 -244 66t-115 47q47 10 125 41t163 75t166 102t134 124 q18 23 38.5 51.5t38 59t29 61.5t11.5 57q0 35 -19 54q0 -33 -3 -64t-14 -63.5t-31.5 -67.5t-55.5 -74q-59 -68 -137 -125t-161 -102t-168 -77t-161 -46z" />
<glyph unicode="5" horiz-adv-x="817" d="M90 174q0 -90 64.5 -132t150.5 -42q90 0 180 26.5t162 79t117 129t45 175.5q0 70 -27.5 120t-77 80.5t-114 45t-137.5 14.5l209 215q18 -4 44.5 -12.5t57.5 -17.5t61.5 -16.5t53.5 -7.5q37 0 74.5 13.5t72.5 48.5v8q-78 -33 -137 -33t-105.5 20.5t-99.5 33.5l-274 -275 q61 0 117.5 -11t100.5 -39t70.5 -75t26.5 -121q0 -84 -35 -154.5t-91 -123.5t-131 -83t-155 -30q-86 0 -144 45t-58 133q0 72 45 123l-9 8q-25 -29 -41 -66.5t-16 -78.5z" />
<glyph unicode="6" horiz-adv-x="763" d="M86 317q0 -145 70.5 -232t195.5 -87q70 0 140.5 30.5t129 83t95.5 123t37 150.5q0 82 -57.5 134t-139.5 52q-70 0 -146.5 -36.5t-144.5 -110.5h8q68 61 139.5 99t137.5 38q31 0 60.5 -11t54 -32.5t39 -50.5t14.5 -66q0 -68 -34 -135t-87 -121.5t-119.5 -87t-132.5 -32.5 q-90 0 -147.5 62.5t-57.5 156.5q0 72 24.5 149.5t57.5 141.5q55 111 146.5 223t205 203.5t241.5 149.5t257 58q92 0 157.5 -39.5t86.5 -125.5l22 8q-29 102 -100.5 140t-159.5 38q-117 0 -223 -32t-201.5 -83t-177.5 -116.5t-147.5 -134t-111.5 -134t-71 -117.5 q-23 -45 -42 -112.5t-19 -143.5z" />
<glyph unicode="7" horiz-adv-x="817" d="M-61 -432l90 -82q12 43 42.5 116.5t77 167t104.5 202t127 220t144.5 221t155.5 208t162 178.5t162 131h-21q-23 -10 -47.5 -28.5t-56.5 -39.5q-14 -4 -29 -4h-25q-47 0 -89 11.5t-90 24.5t-106.5 24.5t-138.5 11.5q-66 0 -118 -24.5t-88.5 -66.5t-57 -95.5t-20.5 -108.5 q0 -47 16 -107q4 -10 14 -10q20 4 21 23q0 6 -4 10q-31 43 -31 106t31 108.5t78 72t106.5 39t116.5 12.5q39 0 79 -8.5t82 -17.5t87 -17t98 -8h23q12 0 22 2q-57 -43 -142 -136.5t-181.5 -214t-193.5 -257t-180 -263.5t-142.5 -233.5t-77.5 -167.5z" />
<glyph unicode="8" horiz-adv-x="669" d="M88 125q0 -57 38 -93t93 -36q53 0 106.5 39t90.5 129q14 35 22 68.5t8 66.5q0 35 -8 68.5t-22 62.5q51 18 115.5 46t122 67t95 93t37.5 128q0 80 -64.5 125t-150.5 45q-61 0 -129.5 -26.5t-130.5 -88.5q-45 -45 -62.5 -86t-17.5 -84q0 -51 24 -108.5t64 -130.5 q-29 -14 -67.5 -38t-75.5 -57.5t-62.5 -81t-25.5 -108.5zM102 125q0 49 28 91t65.5 77t76.5 58.5t62 35.5q16 -33 35.5 -93.5t19.5 -117.5q0 -47 -18 -74q-33 -49 -72 -70.5t-76 -21.5q-47 0 -84 31t-37 84zM293 713q0 41 26 75q37 53 107 93.5t143 40.5q29 0 63 -10.5 t63.5 -31t49 -51t21.5 -69.5q0 -51 -34 -98.5t-86 -87t-115.5 -71.5t-120.5 -50q-18 31 -39 64.5t-38.5 66t-28.5 65.5t-11 64z" />
<glyph unicode="9" d="M-522 -276q10 -102 73.5 -141.5t149.5 -39.5q72 0 148.5 20.5t134.5 47.5q166 74 314 197.5t260 265t177.5 283.5t65.5 255q0 70 -19.5 129.5t-55.5 101.5t-84 65.5t-105 23.5q-72 0 -141.5 -33t-125 -86t-89.5 -120.5t-34 -135.5q0 -59 18.5 -110.5t53.5 -89.5t83 -59.5 t110 -21.5q59 0 114.5 24t89.5 71l-6 8q-43 -53 -97 -68.5t-101 -15.5q-94 0 -154.5 63.5t-60.5 155.5q0 72 29.5 140.5t78.5 122.5t111.5 88t128.5 34q53 0 89 -20.5t56.5 -54t28.5 -76.5t8 -86q0 -84 -36 -185.5t-97.5 -207t-141 -209t-166.5 -192.5t-177.5 -156.5 t-169.5 -100.5q-135 -53 -236 -53q-88 0 -142.5 40t-60.5 126h-22z" />
<glyph unicode=":" horiz-adv-x="653" d="M229 66q0 -66 35 -66q27 0 50.5 19.5t41 48t27.5 62.5t10 63q0 31 -10 45t-27 14q-31 0 -54 -19.5t-38.5 -48t-24 -60.5t-10.5 -58zM449 446q0 -47 34 -47q25 0 50.5 15.5t46 39t33 51t12.5 52.5q0 41 -11.5 57.5t-31.5 16.5q-33 0 -57.5 -20.5t-42 -49.5t-25.5 -60.5 t-8 -54.5z" />
<glyph unicode=";" horiz-adv-x="757" d="M74 -381q18 14 65 58t98.5 103.5t94.5 129.5t55 133q4 21 4 31q0 47 -35 47q-20 0 -51 -19q-35 -29 -60.5 -69.5t-37.5 -85.5q0 -25 9 -42.5t30 -17.5q-6 -31 -24.5 -62.5t-43 -65t-52.5 -68.5t-52 -72zM379 274q0 -74 37 -73q31 0 55.5 17.5t41.5 42t26.5 53t9.5 51.5 q0 20 -7 43.5t-34 27.5q-27 0 -50.5 -14t-41 -37t-27.5 -51.5t-10 -59.5z" />
<glyph unicode="&#x3c;" horiz-adv-x="1003" d="M147 393l664 -364v22l-573 320q84 43 164.5 95t150.5 110.5t123 120t82 122.5h-21q-35 -68 -96 -126t-140 -110.5t-170 -98.5t-184 -91z" />
<glyph unicode="=" horiz-adv-x="892" d="M238 283h491l51 67h-497zM238 453h491l51 67h-497z" />
<glyph unicode="&#x3e;" horiz-adv-x="1003" d="M147 29l672 364q-76 25 -162 63t-167.5 89t-151.5 119.5t-115 154.5h-22q37 -68 87 -135.5t116.5 -127.5t149.5 -108.5t183 -76.5l-590 -320v-22z" />
<glyph unicode="?" horiz-adv-x="1185" d="M195 94q0 -66 41 -65q27 0 49 17t37.5 44t23.5 55.5t8 51.5q0 51 -39 51q-29 0 -51 -18.5t-37.5 -43t-23.5 -51t-8 -41.5zM365 410l51 -17q16 76 48 150.5t79 142.5t108.5 125t136.5 96q80 41 159 86t141.5 95.5t100.5 106t38 116.5q0 43 -21.5 88t-56.5 82t-80 60.5 t-94 23.5q-90 0 -174 -50.5t-125 -130.5l67 -8q16 57 68.5 87t112.5 30q37 0 72.5 -14.5t63 -39t45 -58t17.5 -70.5q0 -53 -52 -128t-191 -157q-86 -41 -159 -88t-135.5 -117.5t-116.5 -170t-103 -240.5z" />
<glyph unicode="@" horiz-adv-x="1452" d="M37 143q0 -100 46 -191t129 -162t198.5 -113t253.5 -42q129 0 250.5 50.5t230 136.5t198 200.5t155 243.5t101 265.5t35.5 263.5q0 47 -4 90t-8 82h-23q4 -35 6.5 -72t2.5 -76q0 -125 -30 -256t-87 -255t-139 -234.5t-187.5 -194.5t-231.5 -132t-269 -48 q-111 0 -209.5 35t-173 99.5t-118.5 158.5t-44 215q0 88 34.5 191.5t96 206t146.5 197.5t184.5 168.5t210 118t225.5 44.5q92 0 154.5 -24t99.5 -64.5t53 -95t16 -115.5q0 -117 -38.5 -238t-110.5 -229.5t-173.5 -198.5t-228.5 -148q-10 -4 -20 -4h-16q-59 0 -60 54 q0 35 23 77q53 92 123.5 206t139.5 222.5t126 200.5t86 139h-96q-23 -23 -34 -48t-34 -48q-16 55 -43 75.5t-61 20.5q-33 0 -68 -13t-66 -23q-68 -31 -137 -84.5t-133.5 -122t-122 -151.5t-98.5 -173q-16 -35 -31.5 -80t-15.5 -98q0 -20 4 -50t15.5 -56.5t30.5 -45t52 -18.5 q25 0 62 10t84 41q41 27 72.5 58.5l54.5 54.5q-4 -14 -7.5 -33.5t-3.5 -42.5q0 -49 20.5 -70.5t76.5 -21.5h30q16 0 33 4q127 51 236.5 142t191.5 205t128 244t46 261q0 63 -18.5 119.5t-61.5 96.5t-111.5 63.5t-168.5 23.5q-111 0 -225.5 -43t-223 -116.5t-205 -172 t-169 -211t-114.5 -232.5t-42 -237zM324 94q0 33 8 64.5t16 48.5q29 84 82 174t117.5 176t132.5 160t123 123q33 29 64.5 43t58.5 14q33 0 52 -21.5t19 -64.5q0 -10 -2 -23.5t-6 -29.5q-45 -70 -103.5 -165t-121 -191.5t-123.5 -179.5t-113 -126q-35 -31 -77.5 -51 t-75.5 -20t-42 20.5t-9 48.5z" />
<glyph unicode="A" horiz-adv-x="3473" d="M-25 743q0 -252 106.5 -432t280 -294.5t390.5 -168t438 -53.5q141 0 279.5 17.5t264.5 46t234.5 66.5t190.5 81q115 59 226.5 136t216.5 173.5t200.5 216t175.5 265.5q37 0 61.5 1t48 4t51 7t70.5 10q-51 -123 -94 -239.5t-94 -217t-120 -181.5t-169 -130 q-45 10 -92 23.5t-86 13.5q-47 0 -77 -15.5t-30 -33.5q0 -16 25 -32.5t82 -22.5q35 -4 69.5 -5.5t67.5 -1.5q162 0 290 35t220 84t150.5 104.5t80.5 96.5h-8q-43 -61 -108.5 -111.5t-142 -86.5t-155.5 -54t-147 -18q-45 0 -86 10q115 53 196 134t143.5 183.5t111.5 225 t100 260.5q147 27 280.5 110.5t234 202.5t158.5 260t58 281q0 86 -22.5 164.5t-75.5 150.5q68 68 135.5 121t147.5 91t176 59.5t219 27.5q150 6 231.5 43t81.5 96t-79.5 136t-260.5 141q-229 78 -439 106.5t-407 28.5q-193 0 -392 -41t-386.5 -120t-352.5 -192.5t-289 -260 t-195.5 -321.5t-71.5 -378q0 -139 44 -265t138 -226.5t237.5 -169t344.5 -88.5q-55 -102 -114.5 -197.5t-139.5 -188t-190.5 -181.5t-270.5 -179q-145 -82 -360 -127t-455 -45q-154 0 -309.5 19.5t-299 61.5t-269.5 108.5t-219 162t-146 219t-53 281.5q0 193 88 344.5 t232 256t329.5 158.5t378.5 54q98 0 205.5 -20.5t211 -60.5t195.5 -99t162.5 -140t111.5 -181.5t41 -221.5q0 -156 -56 -273.5t-154.5 -197.5t-232.5 -121t-288 -41q-123 0 -251 33t-234.5 99.5t-174 167t-67.5 235.5q0 100 44 177t115 128t162 78t183 27q88 0 176 -23 t158 -68t114 -112.5t44 -159.5t-39 -143.5t-103.5 -79t-148.5 -36.5t-172 -15q-10 0 -21.5 -1t-21.5 -3q49 -6 104 -7q80 0 160 11.5t143.5 43t103.5 90t40 154.5q0 92 -46.5 164t-121 122t-170 77t-193.5 27q-90 0 -186 -31t-175 -89.5t-130.5 -144.5t-51.5 -196 q0 -145 73 -252t184.5 -176.5t246.5 -103.5t260 -34q158 0 301.5 49.5t252 139.5t173 220t64.5 292q0 188 -89 334.5t-230.5 246t-314.5 150.5t-341 51q-217 0 -414.5 -61.5t-348 -176t-241 -279.5t-90.5 -370zM2161 1516q0 213 76.5 390t207.5 319t307.5 250t375 178.5 t410.5 106.5t415 36q164 0 333.5 -25t344.5 -90q150 -57 216 -116.5t66 -106.5q0 -55 -86 -87t-239 -40q-113 -6 -207.5 -28t-177 -54.5t-158.5 -74.5t-152 -89q-111 100 -246 147t-276 47q-123 0 -246 -39.5t-220 -112.5t-158.5 -176.5t-61.5 -230.5q0 -61 20.5 -117.5 t57.5 -98.5t89 -66.5t116 -24.5q68 0 131 27.5t112 73t79 104.5t30 123q0 43 -16.5 82t-45 69.5t-68.5 48t-87 17.5q-53 0 -100.5 -22.5t-69.5 -73.5q27 41 67.5 60.5t85.5 19.5q88 0 138.5 -55.5t50.5 -145.5q0 -53 -22.5 -105.5t-62.5 -94.5t-97.5 -68.5t-124.5 -26.5 q-47 0 -89.5 18.5t-76 53t-53 82t-19.5 106.5q0 123 59.5 221t153.5 166t209 103.5t225 35.5q135 0 258 -46t207 -138q-59 -41 -138 -118t-168 -175t-182.5 -215t-180.5 -235.5t-162.5 -236.5t-128.5 -220q-152 0 -283 55t-228.5 148.5t-153.5 214t-56 250.5zM3009 856 q39 70 96 167t127.5 206.5t150.5 224.5t162 221.5t163 197.5t157 152q4 -6 15 -14t21 -24q-100 -102 -200.5 -241.5t-190.5 -290t-164.5 -301t-121.5 -275.5q-47 -8 -80 -13.5t-56.5 -7.5t-42.5 -2h-36zM3351 893q49 131 110.5 282.5t133 298t151.5 276.5t170 216 q12 -12 25.5 -35.5t24.5 -53.5t18.5 -63.5t7.5 -64.5q2 -12 2 -27v-24q0 -135 -50.5 -269.5t-137.5 -246t-203.5 -189.5t-251.5 -100zM3924 2062q16 16 45 32.5t45 27.5q35 20 43 20q4 0 4 -2q0 -8 -33 -33q-16 -12 -31.5 -25.5t-50.5 -41.5z" />
<glyph unicode="B" horiz-adv-x="1953" d="M-25 946q0 -90 30 -169t82 -137t123 -91t155 -33q117 0 228.5 45t198.5 123t140 183.5t53 226.5q0 66 -19.5 125t-57.5 103t-93 70.5t-125 26.5q-72 0 -132 -24.5t-105 -68.5t-71 -104.5t-26 -129.5q0 -76 40 -125t118 -49q47 0 90 22.5t66 71.5h-15q-20 -45 -55 -65.5 t-74 -20.5q-66 0 -104.5 44t-38.5 107q0 61 22.5 116.5t61.5 97.5t90 66.5t111 24.5q72 0 124 -22.5t86.5 -61t52 -90t17.5 -108.5q0 -109 -51 -205t-131 -169t-176 -116t-184 -43q-86 0 -148.5 33t-103.5 86t-60.5 124t-19.5 146q0 172 62.5 323t169 274.5t247.5 220 t301 163t327 101.5t324 35q92 0 174 -11.5t152 -36.5q-76 -78 -159 -194.5t-164 -244.5t-151.5 -254t-121.5 -224q-82 0 -119 -28.5t-37 -63.5q0 -25 17.5 -44.5t50.5 -27.5q-84 -172 -179.5 -330.5t-195.5 -280.5t-202.5 -194.5t-198.5 -72.5q-16 -2 -31 -3h-25 q-41 0 -69.5 5.5t-55 11.5t-53 11t-63.5 5t-53.5 -15t-16.5 -32q0 -16 11.5 -27.5t35.5 -15.5q41 6 83 8t87 2q123 0 259 -11t311 -11q100 0 217.5 7t234.5 29.5t224.5 62.5t191.5 105.5t133 160t49 223.5q0 121 -56 233.5t-169 196.5q94 53 182 116.5t155.5 142.5 t108.5 176t41 218q0 49 -9 101.5t-32.5 101.5t-61.5 93t-95 79q180 176 386 313t430 230.5t463.5 141.5t485.5 48q92 0 212 -16.5t245 -50t244.5 -87t213 -126t150.5 -168t57 -214.5q0 -125 -62.5 -222t-164.5 -172t-234.5 -128t-271.5 -87t-275.5 -49t-244.5 -15 q-137 0 -268 18.5t-250 56t-219.5 94t-173.5 134.5l-7 -6q72 -86 174.5 -148.5t224.5 -104.5t260 -61.5t281 -19.5q141 0 294 17.5t298.5 54t275.5 94t228 139.5t155.5 188.5t57.5 239.5q0 127 -51 229.5t-137 182.5t-199 137t-237.5 95t-251.5 56.5t-242 18.5 q-274 0 -540.5 -56.5t-510 -160t-455.5 -248.5t-378 -326q-84 33 -178.5 47.5t-192.5 14.5q-168 0 -345 -40t-347 -114t-320.5 -178t-263 -235.5t-179.5 -285t-67 -325.5zM475 43q90 25 172 80t156 130t139.5 163t122.5 179t105.5 180t86.5 163q90 0 176.5 18.5t137.5 40.5 q45 -12 133 -157q37 -81 37 -181q0 -119 -43 -211t-116 -161.5t-168 -117.5t-197.5 -79t-206 -44t-193.5 -13t-175 4t-167 6zM1161.5 1048.5q24.5 22.5 59.5 30.5l-54 -96q-30 2 -30 24q0 19 24.5 41.5zM1288 989l37 76q51 0 99.5 -8t109.5 -31q-35 -16 -99.5 -26.5 t-146.5 -10.5zM1339 1108q55 121 129 260t149 266t143.5 228.5t115.5 146.5q78 -47 117 -130t39 -185q0 -88 -30 -179.5t-88.5 -177.5t-142 -162.5t-194.5 -132.5q-90 45 -143.5 55.5t-94.5 10.5z" />
<glyph unicode="C" horiz-adv-x="1116" d="M0 393q0 -84 30.5 -156.5t85 -126t129 -84t163.5 -30.5q119 0 228 58.5t194 155.5t135.5 223t50.5 261q0 88 -23.5 162t-70.5 111v-6q31 -35 47 -94.5t16 -131.5q0 -115 -44 -239.5t-123 -229t-189.5 -172t-243.5 -67.5q-117 0 -191.5 93t-74.5 247q0 100 32.5 227 t92 267t142.5 285.5t182.5 283t212 257t232.5 210t242.5 142.5t243.5 52q78 0 131 -57.5t53 -155.5q0 -102 -37.5 -200.5t-105 -174.5t-160 -122t-198.5 -46q-78 0 -130.5 42t-52.5 122q0 106 64.5 175t169.5 69q47 0 89 -21.5t42 -72.5q0 -31 -17.5 -66t-43.5 -65 q35 12 58 55t23 86q0 29 -13 48t-34.5 31.5t-48 18.5t-53.5 6q-53 0 -103.5 -19.5t-88 -54t-61.5 -82.5t-24 -104q0 -90 60.5 -140t159.5 -50q117 0 218 50t176 133t119 190.5t44 224.5q0 63 -22.5 106t-59.5 68.5t-85 37t-98 11.5q-170 0 -344 -85t-337.5 -225.5 t-307 -321.5t-251 -374.5t-169 -385t-61.5 -349.5z" />
<glyph unicode="D" horiz-adv-x="2009" d="M119 80q0 -25 18.5 -40t44 -24.5t53 -13.5t46.5 -4q53 0 108 12.5t109 32.5q96 -16 188 -29.5t186 -13.5q174 0 342 57.5t317.5 156.5t275.5 234.5t217.5 292t142.5 327.5t51 341q0 84 -20.5 172t-58.5 169t-93 149.5t-125 117.5q39 51 79 79t68 34q-2 4 -4 5l-2 1 q-35 -10 -75.5 -37.5t-81.5 -73.5q-66 47 -158 70t-186 23q-199 0 -394.5 -69t-350 -187.5t-250 -278.5t-95.5 -340q0 -61 19.5 -117.5t54.5 -100.5t86 -69.5t117 -25.5q78 0 153.5 55t136 136t101.5 174.5t51 170.5h-14q-10 -68 -49.5 -156.5t-98.5 -168.5t-132 -134.5 t-148 -54.5q-41 0 -84 20.5t-77 55.5t-55.5 80t-21.5 94q0 129 51 246t134 216t191.5 178t224.5 134.5t228.5 85t206.5 29.5q51 0 94 -5t83 -17.5t78 -32t79 -45.5q-20 -23 -49 -58t-60.5 -76.5t-64.5 -87t-61 -88.5q-92 -133 -175.5 -274t-164 -283.5t-163.5 -286 t-175 -280.5q-45 -66 -91.5 -138.5t-98.5 -139t-112.5 -121t-136.5 -84.5q-94 16 -174 33.5t-139 17.5q-12 0 -28.5 -2t-32 -6t-25.5 -13.5t-10 -23.5zM172 66q0 8 8 15t27 7q29 0 65.5 -5t73.5 -11t68 -12.5t47 -8.5q-51 -10 -95 -19t-85 -9q-12 0 -31 2t-36 6t-29.5 13 t-12.5 22zM565 66q88 39 161 93t133.5 115.5t112.5 128t99 132.5q184 250 307 481t221 420q25 47 63 123.5t80 158.5t81 154t67 108q55 -35 98.5 -90t73 -122.5t46 -142t16.5 -144.5q-4 -143 -48 -307t-124 -326t-191.5 -310.5t-247 -263t-291 -182t-323.5 -67.5 q-98 0 -183 15t-151 26z" />
<glyph unicode="E" horiz-adv-x="1171" d="M117 393q0 -80 25.5 -151.5t72.5 -126t116.5 -86t155.5 -31.5q98 0 188.5 32.5t167.5 87t139 125t107.5 146.5t69 151.5t23.5 141.5q0 117 -58.5 190.5t-162.5 73.5q-66 0 -135.5 -37t-130 -98t-105.5 -139t-62 -160q8 -4 7 -4l8 4q14 72 54 143.5t96.5 128t126 92 t145.5 35.5q47 0 82.5 -20.5t60.5 -53t37 -74.5t12 -83q0 -106 -55 -221t-146.5 -211t-205 -158.5t-230.5 -62.5q-141 0 -225 78.5t-84 220.5q0 162 61.5 290.5t160.5 231t223 182.5t251 146q23 10 23 22q0 8 -15 51q-23 68 -37 140.5t-14 144.5q0 104 35 202.5t95.5 175.5 t142.5 123t178 46q59 0 112.5 -18.5t93.5 -52.5t63.5 -82t23.5 -107q0 -113 -56.5 -196t-144.5 -159l6 -8q55 49 96 89t68 79t40 83.5t13 105.5q0 74 -25.5 129t-67.5 94t-98.5 58.5t-117.5 19.5q-100 0 -204.5 -47.5t-190.5 -126t-140.5 -180t-54.5 -210.5q0 -51 13.5 -95 t35 -81t48 -66.5t51.5 -52.5q20 -20 20 -40q0 -27 -37 -50q-78 -29 -163 -64.5t-166.5 -83.5t-157.5 -108.5t-133.5 -137.5t-91 -171t-33.5 -209z" />
<glyph unicode="F" horiz-adv-x="1486" d="M76 338q0 -74 18.5 -135.5t55 -105.5t91 -69.5t126.5 -25.5q59 0 119.5 10.5t107.5 30.5q141 57 263 166.5t224.5 241t184.5 268.5t141 248q51 16 102.5 30.5t112.5 59.5q-72 -102 -108.5 -171t-36.5 -132q0 -33 12 -70q0 61 23.5 119.5t57.5 116t70.5 114t63.5 113.5 q-63 -51 -131 -96t-160 -62q55 115 118.5 253t132.5 278.5t142.5 272.5t151.5 232q98 -4 201.5 -14t205.5 -10q125 0 234.5 34t185.5 138q-35 -23 -74.5 -42.5t-92 -35.5t-119 -25.5t-152.5 -9.5q-139 0 -338 31l53 68l-8 8l-67 -76q-156 12 -284 19.5t-237 7.5 q-180 0 -342.5 -36t-285.5 -111t-196 -189.5t-73 -270.5q0 -119 47.5 -223t131 -183t202.5 -124t262 -45h21q10 0 24 2q-12 -25 -40.5 -84t-73.5 -137t-104.5 -168t-129 -177t-149.5 -164t-166 -126q-27 -20 -89.5 -38.5t-131.5 -18.5q-244 0 -244 297q0 78 42 179 t114.5 192t169 153.5t207.5 62.5q39 0 76.5 -13t68.5 -39t49 -62.5t18 -81.5q0 -66 -34.5 -130.5t-87.5 -113.5h14q49 45 88 107.5t39 140.5q0 102 -60.5 163.5t-183.5 61.5q-82 0 -155.5 -31.5t-137 -82t-116 -116t-88 -132t-56 -130t-20.5 -112.5zM633 1444 q0 145 61.5 263t164 201t236.5 128t279 45q78 0 155 -7.5t147.5 -17.5t134 -19.5t116.5 -11.5q-68 -84 -154.5 -209.5t-179 -270t-178.5 -296t-149 -288.5q-20 -4 -37 -5h-33q-133 0 -237.5 39t-176 105.5t-110.5 156t-39 187.5z" />
<glyph unicode="G" horiz-adv-x="1284" d="M-836 -1290q0 -102 37 -188.5t101.5 -148t152.5 -95t193 -33.5q135 0 262 43t226.5 123t158.5 192.5t59 253.5q0 53 -11 102.5t-38 94.5q76 53 139.5 121.5t118.5 146.5t104.5 160t98.5 160q94 12 213 12q88 0 226 -11.5t304 -37t349.5 -65.5t361.5 -95t340 -127 t284 -163t194.5 -200.5t72.5 -240.5q0 -88 -38 -161t-99.5 -125t-138 -80.5t-152.5 -28.5q-43 0 -87 11t-81 35.5t-60.5 62.5t-23.5 89q0 59 41 122t141 110v6q-84 -31 -141 -96.5t-57 -143.5q0 -51 24.5 -92t62.5 -69.5t85 -44t92 -15.5q94 0 179 30.5t149.5 87 t101.5 139.5t37 187q0 127 -61.5 239t-168 206t-250 171t-309.5 138.5t-345 107.5t-356 75.5t-345 45t-310 15.5q-106 0 -198 -12l463 864h-31q-18 -31 -48 -81t-66 -108.5t-76.5 -117t-83.5 -103.5q-55 -59 -149.5 -94t-197.5 -35q-104 0 -178 36t-121 97.5t-69.5 146.5 t-22.5 183q0 154 42 328t121 345t190.5 328.5t250 278.5t300 192.5t339.5 71.5q170 0 262.5 -100.5t92.5 -269.5q0 -104 -43 -196.5t-114 -160t-161 -106.5t-186 -39q-59 0 -119.5 16.5t-109 49t-79 83.5t-30.5 121q0 43 17.5 82t46 68.5t68.5 47t87 17.5q63 0 116.5 -35 t69.5 -108q-16 90 -67 126t-111 36q-53 0 -98 -19.5t-79 -53.5t-53.5 -78t-19.5 -91q0 -84 31 -142.5t83 -95.5t121 -54t144 -17q96 0 191.5 42t170.5 115.5t122 172t47 210.5q0 92 -29 169t-83 132.5t-131 85t-173 29.5q-180 0 -351 -74.5t-321.5 -199.5t-276.5 -287 t-217 -336t-141.5 -347t-50.5 -319q0 -113 30 -213t89 -174.5t148.5 -118.5t205.5 -44q78 0 149.5 21.5t131 56t105.5 75.5t75 82l-268 -500q-117 -12 -281 -39.5t-341 -78t-350 -126t-311.5 -183t-224.5 -251t-86 -327.5zM-801 -1300q0 174 78 309t206 236.5t291 172 t331.5 116.5t330.5 72t285 36q-39 -61 -87 -140.5t-103.5 -159t-117 -150.5t-124.5 -116q-39 45 -109.5 76t-154.5 31q-31 0 -71 -7t-76 -23.5t-60.5 -44.5t-24.5 -66q0 -25 15.5 -45.5t39 -34t53 -21.5t60.5 -8q35 0 74 6t74.5 16.5t66.5 23.5t53 30q57 -82 58 -189 q0 -121 -51.5 -221t-138.5 -172t-202.5 -111.5t-246.5 -39.5q-96 0 -179 29.5t-142.5 85t-93.5 133t-34 176.5zM-170 -954q0 27 18.5 45t45 28.5t55 14.5t49.5 4q78 0 135 -33t82 -74q-53 -33 -111.5 -47t-113.5 -14q-20 0 -48 2t-52.5 10t-42 23.5t-17.5 40.5z" />
<glyph unicode="H" horiz-adv-x="2590" d="M6 455q0 -104 48 -188.5t127 -142.5t179.5 -90t204.5 -32q188 0 343 44t296.5 136t279.5 234.5t296 341.5q94 -33 183 -42t173 -9q-49 -80 -113.5 -170.5t-141.5 -174t-166 -154.5t-189 -112q-18 -8 -41 -8q-35 0 -76 15.5t-98 15.5q-43 0 -65.5 -17.5t-22.5 -40.5 q0 -20 15 -35.5t50 -19.5t87 -8t104 -4q23 0 45 1t39 5q70 2 148.5 7t156.5 19.5t153.5 42t140 74.5t113.5 116t78 165h-8q-27 -76 -82 -141.5t-134 -112.5t-176.5 -74.5t-207.5 -27.5q-41 0 -93.5 1t-92.5 7q113 41 218 119.5t196 171t162 185.5t114 163q96 31 208.5 88 t210 140t163 190.5t65.5 242.5q0 90 -26.5 148.5t-86.5 111.5q57 61 145.5 134t191 134.5t211 102.5t204.5 41q129 0 212 -52t83 -167q0 -92 -44 -159.5t-115 -116t-160 -80t-180 -49t-176 -24.5t-146 -7v-9q20 -2 40 -2h46q74 0 160.5 9.5t174.5 31t171 57.5t147.5 90 t103.5 129t41 171q0 53 -23.5 95t-65.5 70.5t-98 44t-122 15.5q-135 0 -243.5 -28.5t-206 -83t-193.5 -134.5t-209 -182q-41 23 -92 23q-74 0 -142.5 -28t-122 -77t-85 -116.5t-31.5 -145.5q0 -66 27 -125h8q-14 57 -15 113q0 74 26 133t69 102t100 66.5t123 23.5 q57 0 90 -20q-68 -72 -133.5 -176.5t-129 -220t-126 -232.5t-125.5 -213q-18 -2 -39 -2h-37q-72 0 -140.5 11.5t-139.5 41.5q43 66 103 169.5t133 220t155 237.5t167 223.5t170 175t165 93.5q88 23 123.5 46t35.5 48q0 37 -42 62.5t-97 39.5t-111.5 20.5t-87.5 6.5 q-109 0 -235.5 -32t-255.5 -91t-249 -145.5t-212 -194t-148.5 -234.5t-56.5 -268q0 -72 23.5 -133t64.5 -113.5t95.5 -92.5t115.5 -66q-123 -184 -239.5 -324.5t-246.5 -237t-283.5 -145.5t-350.5 -49q-96 0 -180 26.5t-145.5 78t-97.5 127t-36 176.5q0 104 47 199t126 169 t182.5 118t218.5 44q76 0 147.5 -19.5t126.5 -58.5t89 -98.5t34 -140.5q0 -88 -33 -155t-89 -111t-131 -66.5t-157 -22.5q-49 0 -102 11.5t-96 36t-71 63.5t-28 92q0 55 21.5 99t58.5 76t84 49.5t96 17.5q57 0 97 -15l14 6q-49 25 -119 25q-55 0 -106 -21.5t-91 -56.5 t-63.5 -82t-23.5 -98q0 -61 28.5 -105.5t74.5 -72t103.5 -40.5t112.5 -13q86 0 172 27.5t154.5 79.5t110.5 128t42 174q0 82 -37.5 141.5t-100 98.5t-142.5 56t-162 17q-106 0 -225 -32.5t-219.5 -100t-166 -170t-65.5 -243.5zM1491 1194q0 135 45 257t122 226.5 t180.5 189.5t220 144.5t242.5 92t247 32.5q35 0 75.5 -3t79.5 -13.5t70 -27.5t45 -48q0 -16 -22.5 -30.5t-77.5 -33.5q-86 -29 -173 -89t-171 -144t-166 -183.5t-157 -204t-143.5 -205.5t-125.5 -191q-18 -29 -35.5 -55.5t-34.5 -51.5q-121 57 -171 143t-50 195zM2286 788 q68 129 116.5 235.5t95 202t100.5 182.5t134 177q45 -35 74.5 -99t29.5 -132q-4 -92 -51 -183.5t-122.5 -167t-174 -133t-202.5 -82.5z" />
<glyph unicode="I" horiz-adv-x="1339" d="M-39 412q0 -111 37 -192t104.5 -134t161.5 -79.5t209 -26.5q256 0 491.5 117.5t405.5 348.5q37 51 78 135.5t83 182.5t86 200.5t87 188.5q92 180 222 287.5t278 130.5q94 0 145 30.5t51 71.5q0 29 -27.5 59.5t-86.5 53.5q-63 23 -133 31t-146 8q-90 0 -201.5 -20.5 t-229.5 -60.5t-229.5 -100.5t-198.5 -140.5t-140.5 -179t-53.5 -218q0 -47 15.5 -98.5t44 -93.5t69.5 -69.5t93 -27.5q68 0 130 26.5t111 72t79 105.5t30 126q0 35 -11.5 68.5t-33 61.5t-53 44t-70.5 16q-35 0 -73 -16t-79 -55q53 31 89 43t65 12q27 0 51.5 -13.5t40.5 -35 t26.5 -48t10.5 -53.5q0 -51 -27.5 -106t-73 -101t-99.5 -77t-109 -31q-37 0 -66 16.5t-48 44t-28.5 60.5t-9.5 67q0 113 51 212.5t136 183.5t195 151.5t225.5 113.5t230 70.5t209.5 24.5q106 0 211 -28q35 -10 58 -34t23 -52q0 -27 -24.5 -48.5t-79.5 -29.5q-68 -8 -157 -34 t-180 -75t-174 -127t-136 -188q-37 -59 -71 -131t-65.5 -145.5t-61 -145.5t-56.5 -129q-61 -135 -149.5 -248t-201 -194.5t-251.5 -128t-303 -46.5q-82 0 -163 25t-144.5 74t-102.5 121.5t-39 171.5q0 80 45 157.5t121 140t172 100.5t199 38q78 0 160.5 -12.5t150.5 -43 t111 -82t43 -126.5q0 -74 -41 -135.5t-107.5 -106.5t-148.5 -70.5t-164 -25.5q-41 0 -83 6t-76 22.5t-55.5 46t-21.5 76.5q0 51 24.5 88t63.5 61.5t88.5 36t100.5 11.5q66 0 118 -27.5t66 -93.5q0 78 -53 106.5t-125 28.5q-53 0 -109.5 -13t-103.5 -40t-77 -68t-30 -96 q0 -49 21.5 -83t59.5 -55.5t87.5 -30.5t104.5 -9q80 0 170 27.5t167 78t127 121t50 156.5q0 90 -40 153.5t-108.5 104.5t-158.5 60.5t-189 19.5q-113 0 -221 -42t-194 -114t-138.5 -166t-52.5 -196z" />
<glyph unicode="J" horiz-adv-x="1339" d="M-885 -891q0 -133 52.5 -226t135.5 -152.5t185 -87t203 -27.5q184 0 350 73.5t316.5 202.5t286.5 302t259 370.5t233.5 410.5t210 421t188.5 402.5t169 354.5q92 180 222 287.5t278 130.5q94 0 145 30.5t51 71.5q-12 51 -57 82t-103.5 46.5t-121 19.5t-111.5 4 q-104 0 -216 -18.5t-223.5 -57.5t-217 -100.5t-197.5 -145.5q-111 -102 -155 -204.5t-44 -192.5q0 -47 15.5 -98.5t44 -93.5t69.5 -69.5t93 -27.5q45 0 91 13.5t81 31.5q78 43 128 123t50 162q0 35 -11.5 68.5t-33 61.5t-53 44t-70.5 16q-35 0 -73 -16t-79 -55q53 31 89 43 t65 12q27 0 51.5 -13.5t40.5 -35t26.5 -48t10.5 -53.5q0 -51 -27.5 -106t-73 -101t-99.5 -77t-109 -31q-37 0 -66 16.5t-48 44t-28.5 60.5t-9.5 67q0 53 18.5 109.5t49 111t70.5 103.5t83 90q80 74 177.5 136.5t205 108.5t220 71.5t223.5 25.5q29 0 78 -3t97 -14t82.5 -34 t34.5 -63q0 -27 -24.5 -48.5t-79.5 -29.5q-68 -8 -157 -34t-180 -75t-174 -127t-136 -188q-111 -193 -214.5 -403t-206.5 -422t-208.5 -419.5t-218.5 -396t-236.5 -348.5t-263 -276.5t-298 -183t-343.5 -66.5q-94 0 -178 29.5t-147.5 85t-100.5 135.5t-37 180 q0 106 53.5 214.5t145.5 198t214 145.5t261 56q88 0 172 -23.5t148.5 -69.5t103.5 -114.5t39 -158.5q0 -100 -50 -187.5t-130 -151t-179.5 -100t-197.5 -36.5q-117 0 -194.5 58t-77.5 179q0 57 29.5 107.5t75.5 87.5t103.5 58.5t112.5 21.5q94 0 171 -45.5t95 -129.5 q0 49 -22.5 89t-60 68t-88 43.5t-103.5 15.5q-61 0 -122.5 -25t-111 -67t-80 -96t-30.5 -116q0 -61 19.5 -112t57.5 -89t95 -59.5t133 -21.5q86 0 190.5 35.5t195.5 102.5t151.5 160t60.5 208q0 88 -40 164.5t-106.5 132t-153.5 87t-183 31.5q-125 0 -257 -45t-240.5 -129 t-178.5 -204.5t-70 -272.5z" />
<glyph unicode="K" horiz-adv-x="3909" d="M4 287q0 -86 43 -142.5t110.5 -89t149.5 -45t158 -12.5q195 0 386 57.5t363 164t315.5 257t242.5 334.5q33 4 70.5 11t84.5 32q20 -98 59 -203.5t96.5 -207t133.5 -191.5t170 -158.5t209 -108.5t250 -40q178 0 348 67.5t304 181t215 265t81 321.5q0 94 -33 167t-89 122 t-134 73.5t-166 24.5q-113 0 -230.5 -35.5t-215 -103t-160 -163t-62.5 -214.5q0 -61 20.5 -115.5t58.5 -94.5t91.5 -63.5t118.5 -23.5q68 0 133.5 22.5t117.5 64.5t84 102.5t32 138.5q0 31 -9.5 61.5t-31 53t-59 37t-95.5 14.5q102 0 140 -47t38 -109q0 -72 -27.5 -128 t-73.5 -94t-108.5 -58.5t-132.5 -20.5q-119 0 -187.5 72t-68.5 188q0 106 52.5 190.5t135.5 141.5t184 88t202 31q84 0 159.5 -23.5t132 -69.5t90.5 -112t34 -152q0 -156 -71 -291t-184.5 -235t-258 -157.5t-291.5 -57.5q-123 0 -237 44t-214 117t-183 166t-145.5 191.5 t-102.5 194.5t-52 176q205 158 392 305.5t345 282.5q152 16 271.5 63t197.5 154q12 20 12 45q0 23 -13 36t-46 15q-31 0 -72 -14q-43 -16 -87 -46t-89 -66t-91 -74t-91 -68q-14 -2 -29 -2h-31q-68 0 -146.5 8t-149 19.5t-125 24.5t-76.5 23q111 227 271.5 419t363 331 t440.5 217t502 78q104 0 213.5 -10.5t213 -36t197 -67.5t162 -105.5t109.5 -150.5t41 -201q0 -160 -67.5 -288t-180.5 -218t-259.5 -138.5t-305.5 -48.5q-90 0 -173 20.5t-146.5 65.5t-102.5 116t-39 171q0 102 58.5 182t144.5 135.5t184 84t178 28.5q139 0 216 -61.5 t77 -184.5q0 -68 -31 -125t-83 -97t-119.5 -62.5t-143.5 -22.5q-68 0 -116 35t-48 102q0 53 35 104.5t98 72.5q-35 0 -64.5 -16.5t-52 -44.5t-34.5 -61.5t-12 -68.5q0 -41 16 -70.5t44 -48t63.5 -28t72.5 -9.5q84 0 162 30t138.5 82t96 123t35.5 155q0 61 -28.5 106 t-75.5 75t-106.5 44t-118.5 14q-102 0 -214 -34.5t-205 -100.5t-153.5 -160t-60.5 -213q0 -104 42 -180t111.5 -123t158.5 -69.5t183 -22.5q182 0 347 63.5t289 173t198 256t74 312.5q0 98 -42 179t-114 144.5t-166 110.5t-198.5 78t-213 46t-208.5 15q-223 0 -422 -46 t-372 -125t-320.5 -184t-267.5 -225t-213 -248t-157 -251q-145 33 -292.5 55.5t-298.5 22.5q-94 0 -203 -16.5t-217.5 -52.5t-208.5 -90t-177 -130t-123 -173t-46 -218q0 -166 96 -252t252 -86q98 0 192.5 30.5t168 88t119.5 140.5t46 187q0 45 -17.5 83t-46 66t-66.5 43 t-79 15q-47 0 -91 -16t-77.5 -46t-54 -70t-20.5 -89q0 -39 18.5 -71.5t61.5 -53.5q-33 25 -47.5 57.5t-14.5 67.5q0 43 19.5 78t50 61.5t68.5 41t75 14.5q80 0 134 -50.5t54 -128.5q0 -96 -41.5 -174.5t-110.5 -134t-156 -85t-177 -29.5q-123 0 -198.5 71.5t-75.5 190.5 q0 125 54 221t142 168t201 122t229.5 79.5t228 43t197.5 13.5q113 0 212.5 -14.5t183.5 -38.5q-25 -41 -53.5 -95.5t-60.5 -116t-65.5 -128t-66.5 -129.5q-37 6 -68 6q-47 0 -91 -10.5t-80 -31t-57.5 -49t-21.5 -67.5q0 -29 18.5 -52.5t45.5 -41t55.5 -27.5t50.5 -10 q-80 -139 -202.5 -276.5t-272 -247t-315.5 -178t-332 -68.5q-55 0 -133 18.5t-148.5 56.5t-119.5 95t-49 135q0 51 26.5 92t67.5 71t93 46t103 16q55 0 110.5 -12t99.5 -27.5t74 -32t36 -24.5q-29 49 -111 88t-190 39q-86 0 -154.5 -25.5t-117 -68.5t-74 -100.5 t-25.5 -120.5zM1522 942q0 29 16 50.5t42 36.5t57.5 22.5t60.5 7.5q30 0 65 -10q-6 -14 -17 -38t-25.5 -51.5t-31 -57.5t-30.5 -54h-12q-18 0 -41 8t-41.5 21.5t-30.5 30t-12 34.5zM1794 856l68 148q25 -20 35 -43t20 -58q-47 -29 -76 -36t-47 -11zM1884 1057 q61 129 131 257t121 234q45 -10 105.5 -21t125 -20.5t127 -16.5t113.5 -7q43 0 74 6q-59 -47 -145.5 -114.5t-183.5 -143.5t-194.5 -151.5t-179.5 -139.5q-23 41 -39 64.5t-55 52.5zM2777 1526q39 25 80 56.5t79 61t72.5 54t59.5 37.5q35 10 51 10q35 0 35 -29t-27 -49 q-61 -51 -147 -93t-203 -48z" />
<glyph unicode="L" horiz-adv-x="1785" d="M-74 63q0 -23 39 -41t131 -22q39 2 71 6t63.5 8t63.5 7.5t71 3.5q29 0 60.5 -3.5t72.5 -7.5q63 -6 136 -8t152 -2q145 0 304 15.5t309 68.5q78 27 141.5 74t109.5 103.5t70.5 117.5t24.5 121q0 88 -58.5 135t-138.5 47q-47 0 -89 -16.5t-74.5 -45t-51 -67.5t-18.5 -84 q0 -47 29.5 -80t80.5 -33q35 0 76 15.5t70 54.5q-37 -23 -75 -37t-69 -14q-41 0 -63.5 27.5t-22.5 66.5q0 86 60.5 139.5t140.5 53.5q74 0 112 -50.5t38 -117.5q0 -49 -21.5 -99.5t-59.5 -97.5t-92.5 -88t-119.5 -72q-59 -29 -136 -47t-162 -29.5t-173 -16.5t-170 -5 q-92 0 -170 6t-127 17q172 98 299 189t221 185.5t162.5 193.5t128.5 214q33 68 81 176.5t105.5 227t122 231t131.5 184.5q47 51 120 122t161 134.5t182 108.5t184 45q78 0 133.5 -44t55.5 -110q0 -109 -64.5 -189.5t-160 -136t-207 -86t-203.5 -36.5q0 -6 -8.5 -15.5 t-14.5 -15.5q100 4 224 33.5t234 87t184.5 142.5t74.5 200q0 55 -22.5 94t-62.5 65.5t-92 39t-112 12.5q-90 0 -183 -35t-181 -90.5t-168 -125t-141 -141.5q-61 -70 -119 -159.5t-113 -189t-107.5 -206t-101.5 -206t-95 -189.5t-89 -160q-47 -76 -116.5 -154.5t-152.5 -151 t-176.5 -132t-187.5 -96.5q-123 12 -188.5 34.5t-94.5 22.5q-10 0 -16 -6q-63 0 -112.5 -20.5t-49.5 -49.5z" />
<glyph unicode="M" horiz-adv-x="2736" d="M-10 254q0 -66 32.5 -113t82 -77.5t107.5 -46t112 -15.5q74 0 151.5 20.5t152 56.5t142.5 84t123 103q106 106 202.5 232.5t185.5 257.5t172 261t165 242.5t164 200.5t168 139q-70 -59 -144.5 -157.5t-150.5 -222t-147.5 -265t-134 -288t-109.5 -291t-74 -273.5 q-4 -23 -8 -41t-4 -30q0 -29 16 -29q14 0 43 23.5t66 76.5q127 178 247.5 351.5t237.5 326t227.5 277.5t216.5 209q-61 -90 -142 -197.5t-153.5 -230.5t-123 -258.5t-50.5 -282.5q0 -72 23.5 -133.5t66.5 -106.5t104.5 -69.5t135.5 -24.5q86 0 191.5 39t198.5 109.5 t155.5 170t62.5 222.5q0 94 -51 153.5t-162 59.5q-55 0 -109.5 -19.5t-96 -55.5t-68.5 -87t-27 -115q0 -49 22.5 -90t76.5 -53v8q-43 20 -61.5 57t-18.5 78q0 57 23.5 104.5t62.5 81t90 52t106 18.5q88 0 134.5 -52t46.5 -138q0 -102 -59.5 -189.5t-145.5 -150t-181.5 -98 t-166.5 -35.5q-104 0 -176 59.5t-72 169.5q0 172 59.5 357.5t163.5 362.5t244.5 336t301.5 278.5t336 190.5t347 71q59 0 118.5 -14.5t106.5 -43t77 -74t30 -106.5q0 -74 -37 -130t-97.5 -98t-137.5 -72t-156.5 -50.5t-154.5 -33.5t-132 -22q-14 -2 -26.5 -4t-22.5 -4l-4 -8 l4 -8q66 6 151.5 18.5t175.5 35t178.5 55t157 83t110.5 118t42 157.5q0 66 -31 113t-78 76.5t-104.5 43t-112.5 13.5q-252 0 -469 -86t-406.5 -228.5t-353 -323t-309 -368.5t-274.5 -368.5t-248 -321.5q129 393 255 675.5t255 469t261 288t271 132.5q39 10 56.5 27.5 t17.5 37.5q0 35 -33 61.5t-83 46t-112.5 32t-122 18.5t-110.5 9t-78 3q-147 0 -331.5 -35t-376 -101.5t-373.5 -164.5t-324.5 -226t-229.5 -284t-87 -338q0 -78 21.5 -143.5t61.5 -113.5t99.5 -74.5t134.5 -26.5q121 0 237 50t206 134t145.5 192.5t55.5 225.5 q0 90 -51.5 152.5t-147.5 62.5q-82 0 -147.5 -54.5t-94.5 -123.5q2 -4 6 -9q20 27 42 57t46.5 53.5t53 38.5t65.5 15q45 0 79 -17t55.5 -47t32.5 -68t11 -77q0 -113 -54 -212t-140 -173.5t-194.5 -117.5t-215.5 -43q-106 0 -178 67.5t-72 188.5q0 160 83 309t219.5 280.5 t311.5 240t359 186t364.5 120.5t325.5 43q10 0 51.5 -1t96.5 -5t115.5 -12t111.5 -21.5t84 -35t33 -50.5t-53 -41q-188 -47 -328.5 -129t-253.5 -193.5t-209 -247.5t-197.5 -289.5t-218 -321.5t-268.5 -344q-49 -55 -113.5 -100.5t-135 -77t-144.5 -49t-144 -17.5 q-53 0 -106 13.5t-96 40t-70 68.5t-27 97q0 51 30 99.5t97 66.5q-4 2 -4 4v2h-2q-76 -16 -113.5 -65.5t-37.5 -110.5z" />
<glyph unicode="N" horiz-adv-x="2457" d="M-14 360q0 -102 51 -170.5t132 -110.5t181.5 -59.5t196.5 -17.5q162 0 309.5 37t281.5 104.5t251.5 162.5t218.5 214q82 96 158.5 220t151.5 254t145.5 258t140 233.5t138 178.5t136.5 93q-125 -119 -210 -259t-138 -291.5t-76.5 -307.5t-23.5 -303q0 -174 26.5 -327.5 t73.5 -268.5q96 270 234.5 566t312.5 583t379.5 546t439 455.5t490.5 312t532 115.5q123 0 215 -29.5t155.5 -76.5t95.5 -105.5t32 -115.5q0 -61 -32 -106.5t-80 -73t-106.5 -41t-113.5 -13.5q-66 0 -128.5 15.5t-110.5 46t-77.5 73.5t-29.5 99q0 70 47 145h-6 q-29 -45 -42.5 -84t-13.5 -74q0 -61 35 -106t91.5 -76t126 -46t138.5 -15q70 0 131.5 15t106.5 49t71.5 85t28.5 125q0 61 -28.5 126t-95 116t-175 84t-270.5 33q-250 0 -481.5 -85t-443.5 -238t-404.5 -367t-365.5 -472t-327.5 -553t-287.5 -608q-23 74 -33 156t-10 168 q0 129 21.5 262t60.5 260t92 241.5t117.5 205t137.5 149.5t151 76q94 0 139 33.5t45 78.5q0 61 -51.5 99.5t-123 57.5t-148.5 26.5t-126 7.5q-119 0 -248 -22.5t-257 -69.5t-250.5 -120t-231.5 -173q-160 -147 -225.5 -284.5t-65.5 -248.5q0 -104 53.5 -168.5t159.5 -64.5 q70 0 151 37t149.5 95t114.5 131t46 144q0 86 -47 121t-119 35q-51 0 -101 -29.5t-85 -95.5q45 57 88 80t82 23q63 0 101 -38t38 -92q0 -61 -38 -129.5t-96 -127t-129 -96.5t-134 -38q-84 0 -121 56.5t-37 132.5q0 68 26.5 139.5t67.5 140t93.5 131t103.5 109.5 q88 82 198.5 153.5t233.5 125t254 84t258 30.5q25 0 61.5 -2t78.5 -7t84 -15.5t76 -27.5t55.5 -44t21.5 -62t-48 -62.5t-171 -31.5q-131 -4 -238.5 -61.5t-197 -147.5t-163 -202.5t-137 -227t-119 -221t-106.5 -182.5q-106 -158 -214.5 -293t-235.5 -235.5t-280.5 -157 t-352.5 -56.5q-100 0 -196.5 16.5t-172.5 56.5t-123 105.5t-47 166.5q0 111 63.5 210t165 174.5t227.5 120.5t249 45q78 0 148.5 -13t123.5 -44t85 -83t32 -132t-43 -150.5t-112.5 -123t-161 -82t-185.5 -29.5q-43 0 -98 7t-105.5 25.5t-84 51.5t-33.5 84q0 57 36.5 99 t91 70t117 42t115.5 14q74 0 133.5 -28.5t75.5 -98.5h8q-10 72 -73.5 107t-149.5 35q-47 0 -111.5 -11.5t-122 -40t-97.5 -76t-40 -116.5q0 -57 34 -93t85 -56.5t111.5 -29t113.5 -8.5q78 0 178.5 27t189.5 81t149.5 136t60.5 191q0 80 -32 134t-86 89t-127 50t-155 15 q-158 0 -309 -46t-270 -131t-191.5 -202.5t-72.5 -259.5z" />
<glyph unicode="O" horiz-adv-x="1187" d="M57 371q0 109 52.5 257t140.5 312t201.5 332t238.5 317.5t250 267t234 183.5q31 18 68.5 33.5t78.5 25.5t82 16.5t78 6.5q23 0 40 -2t33 -6q-92 0 -185 -20.5t-165 -68.5q-96 -63 -214 -185t-238.5 -278.5t-235.5 -334.5t-203 -353.5t-142 -336t-54 -279.5q0 -41 6 -82 t22.5 -75.5t44 -56t72.5 -21.5q96 0 206 60t223.5 163.5t227 239t217 286t192.5 306t154.5 299t103.5 264t38 200.5q0 66 -27.5 107t-83.5 41q-43 0 -106.5 -28t-136.5 -99q-55 -55 -137 -140.5t-170.5 -188.5t-176.5 -221t-158.5 -239t-114.5 -240.5t-46 -226.5 q0 -27 9 -45t32 -18q25 0 63.5 26.5t87.5 85.5q123 150 222.5 284t181.5 262t147.5 251t120.5 252q-66 -172 -138.5 -317.5t-153.5 -274.5t-170 -245.5t-187 -233.5q-49 -59 -93 -88t-77 -29q-41 0 -55.5 25.5t-14.5 62.5q0 102 42 221t111 241t156 244t177 229.5t174 196.5 t147 148q84 76 150.5 103.5t113.5 27.5q37 0 64 -15t43 -41t24.5 -58.5t8.5 -69.5q0 -100 -35 -231.5t-96.5 -278.5t-147.5 -302t-187.5 -302.5t-216 -277.5t-234.5 -227t-241.5 -154.5t-236.5 -57.5t-158 95t-43 276z" />
<glyph unicode="P" horiz-adv-x="2066" d="M-2 66q0 -37 18.5 -64t47 -42t64.5 -22.5t71 -7.5q84 0 184 25t205 51q45 -6 109.5 -10t131.5 -4q154 0 297.5 30.5t253 89t176 143.5t66.5 194q0 94 -59 167l-7 -6q41 -72 41 -149q0 -82 -45 -160t-134 -139.5t-223 -99t-310 -37.5q-92 0 -193 12q221 61 379 166.5 t270.5 234.5t189.5 271.5t136 279.5q27 -66 90.5 -93.5t147.5 -27.5q150 0 284.5 54.5t236 149.5t161 224t59.5 279q0 102 -36 199.5t-124 175.5q-61 53 -138 91t-165 62.5t-184 35.5t-197 11q-170 0 -366.5 -46t-392 -132t-377 -206.5t-320.5 -269t-222 -320.5t-83 -361 q0 -92 36 -163.5t95 -119t135 -72t154 -24.5q102 0 211.5 30t212 83t193.5 130t159 169t107.5 199.5t39.5 224.5q0 78 -24.5 139.5t-67.5 104.5t-101 65.5t-128 22.5q-100 0 -211 -52.5t-203 -137.5t-151.5 -195.5t-59.5 -227.5q0 -102 62.5 -155.5t156.5 -53.5q86 0 161 42 t132.5 106.5t94 141.5t49.5 149h-9q-6 -47 -43.5 -118t-94 -136.5t-129.5 -112.5t-148 -47q-102 0 -148.5 54t-46.5 147q0 96 52.5 193t134 176t181 128t193.5 49q55 0 105.5 -17t87.5 -53t59.5 -89.5t22.5 -122.5q0 -152 -68.5 -293t-180.5 -249.5t-253 -173t-289 -64.5 q-180 0 -281.5 89t-101.5 263q0 182 78 347t208 306t301 256t356.5 195t373.5 124t352 44q170 0 317.5 -35t243.5 -109q-104 -29 -200 -98.5t-182.5 -163.5t-161 -205.5t-136 -220t-110.5 -208t-82 -169.5q-59 -125 -145 -256t-183.5 -243.5t-196 -196.5t-182.5 -115 q-43 -16 -81.5 -27.5t-79.5 -11.5q-66 0 -152 31q-37 12 -73.5 29.5t-74.5 33t-77 26.5t-80 11q-29 0 -59.5 -8t-55 -23.5t-41 -38t-16.5 -52.5zM37 57q0 35 38 58.5t81 23.5q37 0 75.5 -14t84.5 -34.5t101 -40.5t118 -30q-96 -20 -178.5 -36.5t-149.5 -16.5q-23 0 -52.5 3 t-56 13.5t-44 28t-17.5 45.5zM1675 1004q25 59 72 149t107.5 190.5t132 203t144.5 186.5t143.5 141t129.5 70q37 -23 67 -63t50.5 -89t31.5 -104.5t11 -108.5q-2 -131 -56 -256t-145.5 -223.5t-210 -158.5t-247.5 -60q-80 0 -143.5 28.5t-86.5 94.5z" />
<glyph unicode="Q" horiz-adv-x="2127" d="M0 328q0 -82 37 -136.5t95 -91.5t130 -58.5t139 -35.5q51 -6 92.5 -9t81.5 -3q31 0 65 1t75 5q68 -184 146.5 -368.5t179 -354.5t225.5 -317.5t286.5 -256t363.5 -171t456 -62.5q213 0 419.5 58.5t368.5 172t261.5 280.5t99.5 384q0 135 -41 240.5t-116 179.5t-179.5 113 t-229.5 39q-80 0 -168 -20.5t-182 -66.5l16 -8q92 29 174 42.5t154 13.5q141 0 242.5 -45.5t167 -121t98.5 -172t33 -200.5q0 -182 -88 -332.5t-240.5 -260t-356.5 -170t-435 -60.5q-207 0 -383.5 61.5t-326 167t-272 247.5t-224 305t-183.5 338t-147 345q109 2 244.5 27.5 t275 76t268.5 126t223 180.5q98 109 193.5 238.5t171.5 272t122 294t46 301.5q0 117 -32 225t-97.5 193t-164.5 135.5t-235 50.5q-129 0 -252.5 -46t-235.5 -126t-206 -188.5t-162.5 -234.5t-107.5 -262.5t-39 -271.5q0 -104 28.5 -202.5t87 -175t146.5 -124t205 -47.5 q172 0 290.5 48.5t208 142.5t161 234.5t149.5 322.5h-8q-37 -111 -101.5 -235t-156 -229t-210 -174t-262.5 -69q-109 0 -191.5 48.5t-138 126t-84 177t-28.5 201.5q0 111 31 233t86 239.5t135 223t177 186.5t211 128t239 47q123 0 212 -48t147 -128t87 -182.5t29 -208.5 q0 -139 -40 -286.5t-105.5 -289t-152.5 -269.5t-181 -228q-98 -104 -220 -180t-253.5 -127.5t-265.5 -80t-259 -36.5q-35 86 -87 182t-121.5 179t-159 137.5t-197.5 54.5q-51 0 -97 -20.5t-81 -54.5t-55.5 -81t-20.5 -98zM55 375q0 86 55.5 134t131.5 48q106 0 180 -56.5 t126 -138t89 -175t70 -167.5q-59 0 -131 6.5t-144 20.5t-140.5 39t-120.5 64.5t-84 95t-32 129.5z" />
<glyph unicode="R" horiz-adv-x="3573" d="M20 66q0 -23 18.5 -41.5t57.5 -18.5q10 0 20.5 -1t22.5 -1q68 0 159 12.5t194 34.5q115 -45 225 -45q113 0 212 40t177 102.5t131 137t74 144.5q-35 -78 -93.5 -147.5t-133 -120.5t-166 -81t-193.5 -30q-43 0 -86 6t-88 17q123 39 246 114.5t234.5 179t205.5 229.5 t162 265q78 0 125 6t75 17q76 -156 125.5 -268.5t92.5 -201.5t91 -164t124 -155q37 -41 91 -71.5t121.5 -52t145.5 -33t160 -11.5q113 0 229.5 27t226 78t204.5 123.5t166 164t112 200t41 229.5q0 102 -42 182t-113 135t-162 84t-187 29q-131 0 -251 -39t-212 -109.5 t-147.5 -170t-55.5 -218.5q0 -145 87 -228t227 -83q63 0 125.5 19.5t111.5 54t79 86t30 116.5q0 72 -49.5 121t-128.5 49q-31 0 -66 -8t-72 -27q70 18 121 19q90 0 130 -43t40 -103q0 -53 -25.5 -96t-67.5 -73.5t-96.5 -47t-113.5 -16.5q-61 0 -112.5 22.5t-89.5 60.5 t-58.5 91t-20.5 115q0 100 49.5 186t131.5 149.5t184 99.5t211 36q86 0 172 -26.5t153.5 -79t109.5 -129.5t42 -177q0 -166 -75.5 -305t-201.5 -240.5t-287 -158t-329 -56.5q-127 0 -244.5 35t-195.5 119q-92 96 -157.5 195.5t-117 197.5t-93.5 196.5t-87 192.5 q119 84 223.5 163t180 169t120 197.5t44.5 249.5q0 68 -19.5 121t-47.5 91.5t-58.5 65.5t-51.5 43q-8 8 -12 10q141 127 253 210t217.5 131t213 67.5t238.5 19.5q113 0 210 -19.5t167.5 -60.5t110.5 -103t40 -151q0 -45 -12 -85.5t-29.5 -76.5t-38 -62.5t-37.5 -41.5 q-88 -84 -176 -130t-175 -72.5t-169 -42t-157 -37.5q68 12 145.5 22t165.5 35t185 72t204 131q74 74 130 166t56 190q-6 96 -55 162.5t-125 107.5t-172 59.5t-197 18.5q-160 0 -303 -36.5t-272 -101.5t-242.5 -153t-216.5 -192q-49 29 -109.5 57.5t-141.5 51t-187.5 36 t-247.5 13.5q-180 0 -346 -45.5t-310.5 -121t-264 -178t-204.5 -218t-132 -237.5t-47 -239q0 -94 27.5 -177t80.5 -144.5t131 -96t180 -34.5q141 0 268.5 48t222.5 135t151.5 209t56.5 269q0 119 -74 193.5t-186 74.5q-80 0 -160 -32.5t-144.5 -91t-105.5 -136t-41 -170.5 q0 -86 45 -168q-8 23 -15 60t-7 80q0 70 31.5 142.5t86 132t129 97t160.5 37.5q57 0 101.5 -21.5t74 -58t45 -87t15.5 -105.5q0 -127 -55.5 -234.5t-145.5 -186.5t-202.5 -124t-225.5 -45q-84 0 -151.5 36t-113.5 93t-71 126t-25 134q0 147 58.5 280.5t158 247t229.5 205 t273.5 156t292 99t281.5 34.5h4q176 0 322.5 -42t238.5 -107q-74 -80 -148.5 -183.5t-144 -215t-132 -225.5t-109.5 -214q-49 0 -90.5 -5t-71 -18.5t-47 -40t-17.5 -69.5q0 -45 29 -79t61 -48q-29 -57 -77 -137t-112.5 -167t-143 -172t-170 -153.5t-193.5 -110.5t-211 -42 q-55 6 -92 10t-62.5 8t-46 8t-45.5 10q-59 0 -90 -25.5t-31 -55.5zM1245 1014q0 49 38 73.5t83 24.5q21 0 41 -4q-10 -29 -35.5 -76t-54.5 -102q-27 12 -49.5 32.5t-22.5 51.5zM1413 907q6 8 16.5 28.5t22.5 44.5t23.5 47.5t19.5 37.5q35 -23 58.5 -63.5t23.5 -71.5 q-45 -16 -81 -19.5t-83 -3.5zM1526 1116q25 57 66.5 159.5t101 222.5t136.5 244t173 224q84 -63 119 -141t35 -164q0 -111 -49.5 -223.5t-123 -210t-162.5 -171t-169 -104.5q-41 72 -73 115t-54 49z" />
<glyph unicode="S" horiz-adv-x="2791" d="M8 147q0 -176 73 -310t193.5 -224t277.5 -137t325 -47q297 0 543.5 87t456.5 234.5t388 340t339 405.5t309.5 430t295.5 413q61 29 137 74t155 101.5t153.5 121t133 130t93.5 128t35 115.5q0 35 -21.5 61.5t-68.5 26.5q-80 0 -151 -37t-136.5 -96t-125.5 -136 t-116.5 -157t-110 -156.5t-104.5 -138.5q-102 -29 -221 -57.5t-246 -28.5q-72 0 -157.5 17.5t-159.5 55.5t-123 99.5t-49 149.5q0 82 57.5 140t138 93t165.5 51.5t141 16.5q47 0 89 -12.5t73.5 -36t50 -55t18.5 -70.5q0 -66 -46 -124.5t-132 -80.5l6 -31q115 45 165 114 t50 134q0 51 -24.5 88t-64.5 60.5t-89 34t-98 10.5q-72 0 -162 -17.5t-170 -58.5t-134.5 -106.5t-54.5 -159.5q0 -109 58.5 -175.5t146.5 -103.5t190.5 -49t190.5 -12q80 0 168 11t186 38q-92 -178 -213.5 -384t-275.5 -413t-336 -397.5t-391 -338t-445.5 -235.5t-498.5 -88 q-162 0 -315.5 45t-274.5 133t-194.5 215t-73.5 291q0 143 52 269.5t143 230.5t211 185t255 136.5t277.5 85t277.5 29.5q123 0 248 -29.5t226.5 -93t165 -162t63.5 -235.5q0 -115 -52.5 -217t-139.5 -188.5t-200.5 -155t-234.5 -115.5t-241 -72.5t-220 -25.5 q-113 0 -205 30.5t-158.5 82t-103.5 117t-37 136.5q0 90 43 172t115 154t164 130.5t189.5 99t194.5 63t177 22.5q74 0 145.5 -12t128 -43t91 -83t34.5 -130q0 -113 -67.5 -195.5t-172 -141t-229.5 -93.5t-237 -47q-111 8 -170.5 47t-59.5 103q0 66 35 115.5t87 86.5 t115.5 61.5t120 39t98.5 20.5t52 6q-70 0 -161 -18.5t-172.5 -58t-138 -104.5t-56.5 -159q0 -31 12.5 -60.5t41 -54t74.5 -39t114 -14.5q33 0 100.5 10.5t149 35t170 62.5t160 94t117.5 131t46 171q0 76 -38 131.5t-99.5 90t-136 51t-148.5 16.5q-92 0 -195.5 -22.5 t-205 -63.5t-195.5 -100.5t-164.5 -132t-113.5 -158.5t-43 -180q0 -90 45 -165t123.5 -128.5t182 -83t220.5 -29.5q135 0 267 34t252 92t221.5 137t176 170t116.5 188.5t42 191.5q0 141 -65.5 243.5t-170 169t-233.5 99.5t-258 33q-131 0 -273.5 -30t-279.5 -86t-262 -139 t-218 -189.5t-148.5 -234.5t-55.5 -276zM3246 1413q35 39 74 104.5t83 139.5t93 149.5t102.5 137t110.5 100.5t119 39q35 0 54 -25.5t19 -62.5q-23 -70 -71.5 -136.5t-111 -128t-132.5 -114.5t-134.5 -94t-118.5 -70t-87 -39z" />
<glyph unicode="T" horiz-adv-x="2250" d="M2 526q0 -147 74 -247.5t188.5 -162t253.5 -89t273 -27.5q127 0 257 19.5t252.5 53t235.5 78t205 95.5q211 115 356.5 263t253 309t187 325t158.5 312.5t169 271t217 200.5q51 -4 103.5 -10t97.5 -12h6q16 -2 29.5 -3t25.5 -1q72 0 121 27t86 97h-8q-43 -29 -98.5 -40 t-118.5 -11q-57 0 -118.5 4t-125.5 9q-141 8 -301 27.5t-334 19.5q-133 0 -289.5 -22.5t-314 -70t-304 -121t-260.5 -175t-181.5 -232.5t-67.5 -293q0 -98 39 -180t106.5 -142.5t156.5 -93t190 -32.5q141 0 272 60.5t231.5 155.5t161 213t60.5 234q0 70 -18.5 132.5 t-56.5 109.5t-95.5 75.5t-132.5 28.5q-80 0 -164 -35.5t-152.5 -97t-113 -142.5t-44.5 -171q0 -92 55.5 -147.5t149.5 -55.5q57 0 109.5 19.5t90.5 54.5t60.5 82t22.5 102q0 51 -23 86l-8 -6q18 -29 19 -74q0 -47 -18.5 -91t-51.5 -77.5t-78 -53t-96 -19.5q-84 0 -134 50 t-50 132q0 88 32.5 163t89 128t129 83.5t152.5 30.5q70 0 123 -25.5t90 -69.5t55.5 -102.5t18.5 -123.5q0 -127 -64.5 -238.5t-165 -193.5t-223.5 -129t-239 -47q-84 0 -159 24.5t-130.5 70.5t-88 112.5t-32.5 150.5q0 166 63.5 299t170 236.5t244.5 177.5t289.5 122 t304.5 70.5t286 22.5q180 0 334.5 -20.5t253.5 -43.5q-76 -35 -136.5 -79t-110.5 -95t-91 -103t-78 -102q-78 -104 -140.5 -216.5t-123 -226.5t-123 -226.5t-139 -217t-176 -196.5t-230.5 -168q-231 -131 -459.5 -194.5t-437.5 -63.5q-143 0 -281.5 28.5t-247 91t-175 161 t-66.5 235.5q0 100 46 182t121 138.5t168 87t189 30.5q74 0 156 -23.5t150.5 -69.5t112.5 -114.5t44 -156.5q0 -115 -76 -191.5t-209 -76.5q-63 0 -127.5 16t-118 47t-88 76t-40.5 102h-9q0 -49 33 -97t87 -86t124 -61.5t141 -23.5q72 0 132.5 25.5t103.5 69.5t67.5 106.5 t24.5 136.5q0 84 -38 150.5t-104.5 113.5t-154.5 72.5t-186 25.5q-111 0 -216.5 -34.5t-186.5 -101t-131 -162t-50 -218.5z" />
<glyph unicode="U" horiz-adv-x="1116" d="M104 139q0 -23 4.5 -48t14.5 -45.5t28.5 -34t47.5 -13.5q63 0 141 52t150.5 123t129 141.5t78.5 109.5q-25 -47 -46 -112.5t-21 -131.5q0 -92 52 -136t146 -44q68 0 125.5 30.5t108.5 79t98 110t96 122.5h-22q-27 -35 -70 -91t-98 -109.5t-120.5 -92.5t-133.5 -39 q-57 0 -87 40t-30 93q0 43 16.5 90.5t45.5 94.5l1005 1740h-110l-916 -1562q-23 -39 -58.5 -90t-79.5 -104.5t-94 -104.5t-100.5 -92t-99.5 -65.5t-92 -24.5q-20 0 -35 12q-16 10 -23.5 29.5t-7.5 42.5q0 39 13.5 78.5t23.5 58.5q92 168 186.5 319.5t186.5 297t181 290.5 t169 299q41 80 76 176t35 191q0 258 -279 258q-109 0 -218 -51.5t-199.5 -136.5t-146.5 -194.5t-56 -228.5q0 -45 11 -85t37 -69.5t64.5 -47t94.5 -17.5q57 0 116.5 24.5t107.5 64.5t81 90.5t39 99.5h-15q-12 -51 -44.5 -98.5t-79 -82t-100.5 -56t-112 -21.5 q-74 0 -119.5 43t-45.5 121q0 115 52 225t139 197.5t197.5 140.5t227.5 53q92 -10 126 -66.5t34 -132.5q0 -41 -8.5 -85t-20.5 -84t-26.5 -74.5t-26.5 -57.5q-51 -90 -114.5 -196.5t-132.5 -219t-137.5 -224t-126.5 -211t-102.5 -180.5t-64.5 -130q-23 -55 -44.5 -118.5 t-21.5 -129.5z" />
<glyph unicode="V" horiz-adv-x="1720" d="M-12 129q0 -129 36.5 -251t108.5 -217t177.5 -152.5t242.5 -57.5q150 0 295 50t274 137.5t238.5 206t188.5 253.5t124 282.5t45 293.5q0 82 -24.5 157.5t-55.5 112.5q31 35 64 71t67 75q111 123 241 266t273.5 286.5t297 275.5t309 233.5t311.5 163t303 61.5 q223 0 349 -117t126 -342q0 -121 -32.5 -242t-90 -230.5t-136.5 -203.5t-173 -163.5t-198.5 -108.5t-213.5 -39q-88 0 -158.5 26.5t-120.5 74.5t-78 115.5t-28 147.5q0 113 40 227.5t112 206t171 148.5t218 57q113 0 185.5 -59t72.5 -178q0 -57 -17.5 -118.5t-51 -119 t-84 -104.5t-113.5 -74q72 23 130 70t99 106.5t62.5 128t21.5 133.5q0 45 -11 88t-34 78q-35 49 -97.5 72.5t-137.5 23.5q-141 0 -258 -64.5t-201 -165.5t-130 -225t-46 -245q0 -84 30.5 -155.5t87 -124t136.5 -82t180 -29.5q109 0 221.5 44t218 120.5t199.5 181 t163.5 225.5t110.5 254t41 266q0 115 -47 208t-126 157.5t-178 99.5t-204 35q-172 0 -350 -72.5t-353 -191.5t-342 -270.5t-315.5 -309t-274.5 -306t-220 -263.5q-16 -23 -32.5 -41t-33.5 -37q-61 57 -143 89t-178 38q33 100 84 212t117.5 213t148.5 182t180 122 q63 27 90 55.5t27 51.5q0 39 -61.5 61.5t-147.5 22.5q-29 0 -55.5 -3t-55.5 -8q-209 -41 -409.5 -140t-379.5 -243.5t-329.5 -323.5t-260 -376t-171 -404.5t-61.5 -408.5zM63 92q0 184 59.5 388t166 404.5t254 387t322.5 338t374 257t406 142.5q23 4 41 5t36 1q63 0 98 -18 t35 -47q0 -27 -36.5 -55.5t-114.5 -55.5q-123 -43 -208 -123t-147.5 -179t-110.5 -208.5t-99 -212.5q-143 -20 -269.5 -85.5t-219.5 -168t-147 -235.5t-54 -287q0 -90 28.5 -178t95.5 -170q-53 68 -75.5 146.5t-22.5 162.5q0 141 49 272.5t135 232.5t204 165.5t253 77.5 q-45 -123 -88 -240t-83 -243t-75.5 -269t-66.5 -320q115 115 224.5 237t208.5 239.5t184 223t151 185.5q18 -41 34.5 -103.5t16.5 -156.5q0 -135 -41 -270t-113.5 -259t-172 -231.5t-216 -186.5t-244.5 -124t-260 -45q-135 0 -232 51t-158.5 136t-91.5 194.5t-30 224.5z M975 215q41 137 76.5 246.5t68.5 206t65 186.5t64 188q96 -6 170 -39t115 -88q-51 -68 -102.5 -138t-116 -153t-147.5 -183.5t-193 -225.5z" />
<glyph unicode="W" horiz-adv-x="1529" d="M193 6h30l1221 1698l-633 -1704h29l1132 1540q41 55 103.5 139t136.5 178.5t154.5 191.5t159.5 178t151.5 139.5t128.5 74.5q23 6 44 10.5t44 4.5q94 0 169 -44.5t115 -125.5q8 -8 23 -9q12 0 14 9q11 16 11 34q-6 39 -32 73t-60.5 56.5t-76.5 36t-81 13.5 q-43 0 -86 -9.5t-84 -25.5q-66 -25 -142.5 -85.5t-158.5 -143.5t-164 -178t-156 -187t-134 -175t-101 -139l-893 -1228l596 1720l-1125 -1520l648 1608q-20 -29 -67.5 -79t-108 -98t-128 -84t-127.5 -36q-96 0 -135 56.5t-39 144.5l2 37h-22q-2 -10 -2 -23v-22q0 -43 11 -82 t33.5 -69t59.5 -47t86 -17q66 0 138.5 30.5t111.5 73.5z" />
<glyph unicode="X" horiz-adv-x="2009" d="M-211 776q0 -231 90 -441t252 -370t386 -255t491 -95q176 0 345 47t319.5 130t276.5 194.5t217 239.5t142 266.5t51 273.5q0 121 -41 227.5t-125 186.5t-213 130t-305 60q47 55 102.5 130t117 154t130 156.5t144.5 138t157.5 98.5t172.5 38q98 0 150 -43t69 -129 q8 -49 30 -49q10 0 17.5 13t7.5 36q0 51 -19.5 88t-52 61.5t-75.5 36.5t-91 12q-86 0 -163.5 -26.5t-149.5 -69.5t-139.5 -97t-130.5 -108q-12 -10 -23.5 -19t-23.5 -19q-53 -47 -99.5 -95.5t-107.5 -120.5l6 52q4 49 9 100t5 100q0 63 -11 120t-42 100t-84 67.5t-139 24.5 q-63 0 -131 -28t-133.5 -74t-124 -107.5t-102.5 -129t-69.5 -139t-25.5 -137.5q0 -57 29 -92q0 2 2 5t14 3q-23 25 -22 74q0 88 51 190.5t134 188.5t185.5 143.5t204.5 57.5q61 0 103 -20.5t68 -54.5t37 -80t11 -97q0 -66 -14 -136.5t-34.5 -134t-44.5 -111.5t-40 -71 q-154 0 -331 -28.5t-352 -106.5t-338 -214t-290 -351q-49 -82 -80.5 -181.5t-31.5 -195.5q0 -59 16.5 -112.5t47 -93.5t75.5 -64.5t102 -24.5q63 0 138 31.5t151 80t147.5 107.5t131 114.5t99.5 100.5t54 66q-10 -39 -18 -93.5t-8 -113.5q0 -61 15 -114.5t46 -93.5t77 -63.5 t107 -23.5q104 0 209 55t189 142.5t136 194t52 206.5q0 35 -11 65.5t-42 47.5q-23 0 -23 -23q23 -10 33 -34.5t10 -47.5q0 -94 -50 -193.5t-130 -182.5t-178 -136t-197 -53q-106 0 -146 46t-40 114t26.5 143.5t53.5 134.5q37 84 93 189.5t120.5 221t130 234.5t125.5 228 q162 -6 284.5 -51.5t204.5 -122t124 -179t42 -221.5q0 -123 -50 -253t-139 -254t-213 -235.5t-271.5 -195.5t-313.5 -133t-340 -49q-227 0 -431 89t-357.5 241.5t-242.5 353.5t-89 424q0 238 66.5 468t186.5 437t285.5 381t364.5 300t421 197.5t458 71.5q150 0 308.5 -30.5 t310 -90t287.5 -144.5t238.5 -194.5t162 -240.5t59.5 -283q0 -82 -12.5 -158.5t-32.5 -144.5q63 176 63 340q2 14 2 27v28q0 152 -63.5 279t-170 229.5t-247.5 180t-296 131t-314.5 80t-305.5 26.5h-4q-223 0 -446 -69.5t-428 -193.5t-383 -298t-308 -382t-205 -444.5 t-75 -488.5zM150 311q0 74 17 147.5t48 135.5q-12 -31 -12 -57q0 -55 49 -84t127 -29q74 0 156.5 44t153.5 110.5t117 142.5t46 139q0 57 -36 90t-105 33q-72 0 -136.5 -23.5t-118 -61.5t-96.5 -84t-73 -89q143 178 296.5 298t311.5 191.5t317.5 102.5t313.5 31 q-53 -90 -110.5 -195.5t-127 -219.5t-153.5 -233.5t-191 -238.5q-53 -57 -121.5 -129t-146.5 -134.5t-164 -104.5t-172 -42q-55 0 -92 22.5t-58.5 59.5t-30.5 83t-9 95zM217 559q0 29 12 57q31 49 79 108.5t108.5 110t129 85t142.5 34.5q61 0 101 -30.5t40 -87.5 q0 -39 -25.5 -83t-67.5 -88t-93 -85t-101 -73t-96.5 -50.5t-74.5 -18.5q-72 0 -113 35t-41 86z" />
<glyph unicode="Y" horiz-adv-x="1116" d="M-885 -295q0 -72 25.5 -135.5t77 -112.5t129.5 -77.5t182 -28.5q156 0 307.5 62.5t288.5 156.5t255 203.5t208 203.5l1124 -415q100 -37 203.5 -55.5t185.5 -18.5q137 0 248 41t187.5 103.5t117.5 140t41 151.5q-14 -92 -60 -167.5t-119 -129t-169 -83t-213 -29.5 q-92 0 -197.5 20.5t-210.5 61.5l-1093 423q76 76 175 216.5t213 319.5t235.5 385t243.5 415t238.5 408.5t219.5 365.5h-90q-12 -16 -49 -80.5t-91.5 -157t-119 -203t-130 -221t-127 -211t-108.5 -172.5q-23 -33 -68 -94t-105 -120.5t-131 -104.5t-140 -45q-47 0 -66.5 24.5 t-19.5 59.5q0 45 20.5 95t40.5 83q88 139 172 267t149.5 245t105.5 219.5t40 188.5q0 106 -57.5 159.5t-167.5 53.5q-74 0 -152 -26t-154.5 -68t-146 -97t-128 -115.5t-100.5 -121t-63 -111.5q-10 -29 -20 -78t-10 -100q0 -47 12 -90t43 -66l8 14q-27 23 -37 56t-10 71 q0 41 9 84t22 72q35 90 110.5 187.5t175 177.5t213 132t224.5 52q78 0 130 -38t52 -124q0 -90 -58.5 -202.5t-139.5 -232.5t-166 -241t-138 -231q-16 -35 -29.5 -84t-13.5 -96q0 -57 28 -99.5t99 -42.5q68 0 128.5 29t113.5 72t98 94t82 96q-76 -111 -149.5 -227.5 t-151.5 -235t-162 -238.5t-178 -237q-61 14 -141 43t-178.5 58.5t-216 51t-252.5 21.5q-162 0 -284 -47t-204 -121.5t-124 -168t-42 -183.5zM-860 -301q0 86 41 176t119.5 163t194.5 119t267 46q100 0 205 -19.5t203 -49.5t184 -63.5t152 -64.5q-68 -90 -166 -199.5 t-222 -206t-271.5 -162t-315.5 -65.5q-100 0 -174 27t-122 71t-71.5 103t-23.5 125z" />
<glyph unicode="Z" horiz-adv-x="2138" d="M74 31q0 -12 16 -21.5t51 -9.5q61 0 105.5 4t82.5 14.5t73.5 27.5t80.5 42q94 -25 189.5 -52.5t190.5 -50t189.5 -38t186.5 -15.5q104 0 213 34t210 92.5t191.5 138t158 172t106.5 193t39 198.5q0 129 -67 204.5t-218 75.5q-47 0 -95 -10t-102 -33v-30q49 29 100.5 42 t100.5 13q133 0 192.5 -77t59.5 -189q0 -102 -38 -197.5t-103.5 -178.5t-151.5 -152.5t-181 -119t-194.5 -76t-191.5 -26.5q-104 0 -202.5 18.5t-192 41t-178.5 41t-160 18.5q143 111 282 252t274.5 299t264.5 321.5t247.5 319.5t228.5 294t205 243.5t177 171t145 73.5v15 q-61 -16 -133 -46t-127 -81q-102 0 -192 19t-176 44t-174.5 44.5t-186.5 19.5q-125 0 -260 -44.5t-247.5 -125t-186.5 -197.5t-74 -264q0 -63 17.5 -127t52.5 -115t87 -83t122 -32q74 0 145.5 45.5t134.5 122.5q0 8 -14 9q-63 -82 -133 -116t-133 -34q-70 0 -118 29.5 t-79 76t-44 104.5t-13 118q0 127 57 227t149.5 169t207 105.5t229.5 36.5q76 0 153.5 -11t168.5 -25.5t202 -25.5t254 -13q-98 -98 -221 -243t-260 -311.5t-281.5 -346t-284 -347.5t-268.5 -314t-235 -249q-23 2 -45.5 3t-49.5 1q-59 0 -127.5 -10t-150.5 -45 q-51 -23 -51 -51zM111 35q0 10 30 24q72 23 130.5 31t105.5 8h31q16 0 30 -2q-31 -14 -57.5 -27.5t-57 -24.5t-68.5 -17.5t-91 -6.5q-14 0 -33.5 3.5t-19.5 11.5z" />
<glyph unicode="[" horiz-adv-x="923" d="M59 -319q0 -53 74 -54h342l8 29h-159q-63 0 -97 12.5t-34 52.5q0 20 7 49t29 66l910 1594q29 49 126 73.5t238 30.5l8 29h-344q-39 0 -52 -19.5t-30 -48.5l-1019 -1780q-6 -23 -7 -34z" />
<glyph unicode="\" horiz-adv-x="663" d="M70 1468q0 -51 7 -105t11 -91q37 -178 88 -319.5t106.5 -283t108.5 -300t92 -369.5q12 14 16.5 43t4.5 66q0 49 -4 101t-8 87q-29 156 -70 286t-93.5 269t-112.5 308t-128 403q-10 -16 -14 -41t-4 -54z" />
<glyph unicode="]" horiz-adv-x="923" d="M53 -375h344q39 0 52.5 19.5t29.5 48.5l1020 1780q6 20 6 34q0 53 -73 54h-342l-9 -29h160q63 0 97 -12.5t34 -53.5q0 -20 -7 -48.5t-30 -65.5l-909 -1594q-29 -49 -126 -73.5t-239 -30.5z" />
<glyph unicode="^" horiz-adv-x="780" d="M401 975h37q63 16 132 36.5t133.5 49.5t123 67.5t103.5 92.5q-18 -35 -19 -78q0 -29 9.5 -58.5t31.5 -58.5h9q-8 27 -13.5 50.5t-5.5 49.5q0 51 33 114t127 153l-17 6q-84 -86 -164.5 -153.5t-163.5 -118t-170 -88.5t-186 -64z" />
<glyph unicode="_" horiz-adv-x="1617" d="M117 92q0 -37 39 -55q37 -20 75.5 -28.5t79.5 -8.5q66 0 129.5 23.5t116.5 64.5q49 -10 104.5 -24.5t117 -29t128 -24.5t140.5 -10q70 0 142.5 11.5t149.5 39.5q96 45 184.5 135t129.5 207h-15q-16 -55 -50 -102t-76 -85t-91 -65.5t-96 -44.5q-98 -23 -170 -34t-141 -11 q-88 0 -185.5 18.5t-240.5 55.5q12 31 12 55q0 41 -32.5 62.5t-80.5 21.5q-57 0 -108 -26h8q39 12 76 12q45 0 76.5 -18.5t31.5 -53.5q0 -23 -14 -45q-23 8 -54.5 16.5t-68.5 15.5t-76 11t-75 4q-31 0 -57.5 -3t-47.5 -13q-33 -14 -47 -33.5t-14 -38.5zM176 88q0 20 31 37 q37 6 78 6q53 0 111 -9.5t124 -25.5q-53 -39 -106.5 -53t-100.5 -14q-35 0 -63.5 6t-48.5 16q-25 20 -25 37z" />
<glyph unicode="`" horiz-adv-x="0" d="M543 1458l268 -438l14 14l-192 373q-47 14 -59.5 35.5t-20.5 21.5q-4 0 -10 -6z" />
<glyph unicode="a" horiz-adv-x="770" d="M6 168q0 -25 5 -54.5t17.5 -54t34 -42t54.5 -17.5q27 0 60.5 8t69.5 26.5t71.5 50.5t68.5 79q-4 -14 -7 -33.5t-3 -42.5q0 -31 20.5 -61.5t73.5 -30.5q86 0 161 39t137 95t112.5 120t85.5 115q0 4 -15 6q-16 -25 -63 -84.5t-110.5 -118.5t-133.5 -105.5t-131 -46.5 q-35 0 -47 17.5t-12 40.5q0 18 7 38.5t17 37.5q55 92 126 208.5t139.5 227t125 201t82.5 128.5h-104l-60 -96q-16 55 -43.5 75.5t-60.5 20.5q-63 0 -139 -34.5t-151 -92t-145.5 -133t-123.5 -158.5t-86 -168t-33 -161zM92 113q0 49 24.5 126.5t67.5 165t101.5 175.5 t124 158.5t136 114.5t140.5 44q33 0 52.5 -21.5t19.5 -64.5q0 -2 -6.5 -29.5t-40.5 -81.5q0 -2 -20.5 -33.5t-51.5 -80.5t-66.5 -105.5t-66.5 -105.5t-52.5 -83t-21.5 -36q-29 -47 -65.5 -89t-75.5 -74t-79 -50t-77 -18q-25 0 -34 26.5t-9 61.5z" />
<glyph unicode="b" horiz-adv-x="786" d="M68 158q0 -43 14 -84q23 -43 52.5 -58.5t64.5 -15.5q53 0 98 20q84 39 153.5 103.5t124 145.5t91 172t55.5 184q10 51 13 80.5t3 52.5q10 -8 29.5 -21.5t43.5 -27t49.5 -23.5t47.5 -10q63 0 129 13t123.5 36t104.5 52.5t75 62.5q-6 12 -8 12t-6 10q-20 -20 -58 -47 t-90.5 -51.5t-117 -40.5t-137.5 -16q-47 6 -85 25.5t-67 46t-47 55t-25 51.5q12 -37 13 -107q0 -39 -5.5 -79t-13.5 -74q-14 -70 -49 -155t-85 -168t-116.5 -153.5t-144.5 -111.5q-18 -8 -37.5 -13.5t-38.5 -5.5q-20 0 -37.5 7.5t-27.5 25.5q-20 23 -21 68q0 57 35 127 q45 88 101.5 182t113.5 186.5t110.5 178.5t92.5 159q78 51 156.5 120t156.5 134q131 111 235.5 213.5t185.5 206t138.5 208.5t95.5 220q8 23 10.5 41.5t2.5 34.5q-2 72 -64 72q-41 0 -98 -30t-121.5 -81t-130 -122t-121.5 -152q-74 -111 -138.5 -208.5t-124.5 -192.5 t-119.5 -192.5t-126 -206t-142.5 -232t-168 -273.5q-72 -119 -109.5 -201t-37.5 -153zM616 1004q31 49 80 128.5t108.5 176t127 203t137.5 210t138.5 195.5t131.5 160q61 66 104.5 90t65.5 24q18 0 25.5 -13.5t7.5 -33.5q0 -37 -16 -76q-55 -125 -139 -260t-198 -271 t-256 -272.5t-317 -260.5z" />
<glyph unicode="c" horiz-adv-x="591" d="M35 184q0 -80 38 -134t130 -54q86 0 168 26.5t153.5 73.5t130 110.5t97.5 135.5h-31q-20 -41 -66.5 -96.5t-113 -105.5t-148.5 -85t-174 -35q-57 0 -85 32t-28 85q0 74 44.5 170t110 193.5t141 182.5t141.5 136q88 70 143 70q35 0 56.5 -14.5t21.5 -47.5 q0 -23 -23.5 -58.5t-70.5 -70.5l6 -14q49 35 83 68.5t34 74.5q0 39 -21.5 62.5t-69.5 23.5q-88 0 -170.5 -41t-157.5 -105.5t-137.5 -145t-106.5 -161.5t-69.5 -154t-25.5 -122z" />
<glyph unicode="d" horiz-adv-x="837" d="M20 133q0 -68 29 -101.5t78 -33.5q37 0 88 22q39 25 76 59t70.5 69.5t62.5 70.5t51 64q-29 -57 -40 -96.5t-11 -61.5q0 -72 41 -98.5t98 -26.5q74 0 136.5 30.5t115.5 76t98 96.5t84 94l-8 22q-51 -55 -98 -108t-95 -95t-100.5 -67.5t-113.5 -25.5q-45 0 -79 17t-34 54 q0 33 29 70q53 84 124.5 197.5t155.5 244.5t176.5 274.5t183.5 289t180 284.5t166 263t139 226.5t103 170.5h-96q-39 -63 -95 -154.5t-125 -200t-145.5 -228.5t-154.5 -241t-154.5 -236.5t-144.5 -213.5q-16 47 -48 64.5t-73 17.5q-86 0 -170 -40t-157.5 -105.5t-137 -150.5 t-108.5 -172t-71 -171t-26 -150zM70 90q0 63 30.5 149.5t83 176.5t119 178t138 157.5t141 112.5t129.5 43q73 0 73 -76q0 -14 -2 -27t-8 -30q-45 -68 -105.5 -164t-128 -195.5t-136 -187.5t-130.5 -139q-35 -29 -73.5 -47t-69.5 -18q-29 0 -45 16t-16 51z" />
<glyph unicode="e" horiz-adv-x="602" d="M59 178q0 -102 38 -140t100 -38q63 0 143 33t157.5 80t144.5 101t101 97v23q-14 -18 -64 -61.5t-114.5 -89.5t-133.5 -86t-120 -54q-18 -8 -44.5 -14t-53.5 -6q-37 0 -65.5 21.5t-28.5 88.5q0 68 39 144.5t80 160.5q98 63 189 119.5t161.5 109t113.5 100.5t43 97 q0 29 -20 40t-53 11q-41 0 -92.5 -15t-96.5 -44q-98 -63 -176 -142t-133 -166t-85 -181.5t-30 -188.5zM252 475q12 23 35.5 66t59.5 95t85 108.5t111 103.5q37 25 71.5 35t61.5 10q47 0 47 -31q0 -39 -38 -85t-102.5 -97t-150.5 -103.5t-180 -101.5z" />
<glyph unicode="f" horiz-adv-x="634" d="M-680 -1165h96q45 76 118 199.5t163 273t191.5 317.5t201.5 334t194.5 321.5t170 280.5t128 210t68.5 112h269v22h-252l45 68q154 117 315.5 253t295.5 280.5t219 295t85 297.5q0 109 -90 109q-66 0 -163 -74t-216 -240q-63 -90 -138 -208.5t-154 -250.5t-159.5 -268.5 t-158.5 -261.5h-307v-22q76 -20 116.5 -70.5t40.5 -110.5q0 -20 -5 -40.5t-17 -38.5q-90 -147 -187.5 -308t-196.5 -324t-195.5 -325t-183.5 -311.5t-163 -281.5t-131 -238zM303 883h238l-119 -195q0 47 -10.5 79t-27.5 54.5t-38.5 36.5t-42.5 25zM764 1069 q70 119 150.5 264.5t167.5 287.5t176.5 271t175.5 219q74 76 120 76q29 0 44.5 -25.5t15.5 -62.5q0 -117 -70.5 -251t-189.5 -270t-271.5 -267t-318.5 -242z" />
<glyph unicode="g" horiz-adv-x="860" d="M-5343 -2345q0 213 100 420t269 392t391.5 343t465 271.5t490.5 178t469 64.5q150 0 285 -22.5t246.5 -64.5t196.5 -101.5t136 -134.5q227 94 494.5 158.5t550 106.5t570.5 61.5t558 23.5q82 104 154.5 204.5t142.5 201t139.5 199.5t145.5 200q-53 -59 -120 -108.5 t-144 -49.5q-43 0 -71 17.5t-44 47t-22.5 65.5t-6.5 73q0 70 32 150.5t86 160.5t126 152.5t150.5 128t161.5 89t159 33.5q39 0 70.5 -15t46.5 -52l45 67h96q-111 -207 -243 -419.5t-267 -416.5t-268 -391.5t-248 -342.5q438 -41 802.5 -154t625 -298t404.5 -444t144 -593 q-2 -209 -75.5 -398.5t-200.5 -351.5t-296 -293t-361.5 -223t-398.5 -142t-404 -50q-125 0 -257.5 24.5t-259 73.5t-239.5 122.5t-198 171t-135 218.5t-50 266q0 172 89 308.5t230.5 231.5t314.5 146t341 51q129 0 240.5 -25.5t199.5 -67.5t148.5 -97t87.5 -115 q-31 61 -93.5 114.5t-149.5 92.5t-193.5 61.5t-223.5 22.5q-104 0 -216 -23.5t-216 -67.5t-197.5 -107.5t-162 -143.5t-109.5 -175t-41 -202q0 -145 49 -263t133 -210t196 -157.5t234.5 -108.5t249.5 -63.5t244 -20.5q207 0 408.5 50t381 141.5t332 221.5t263 289.5t173 345 t62.5 390.5q0 289 -127 531.5t-371.5 424.5t-599 298t-809.5 153q-254 -307 -545.5 -619.5t-610 -603.5t-660.5 -545t-697.5 -443.5t-719 -298t-728.5 -108.5q-186 0 -358 38t-322.5 104.5t-273.5 158.5t-212 199.5t-137 227.5t-48 245zM-5282 -2341q0 -115 48 -229.5 t135.5 -220t208 -195.5t269 -156.5t317.5 -104.5t351 -38q309 0 612.5 82t592 222t561 326.5t522.5 395.5t474 429t415.5 428t347 390.5t270.5 317.5q-178 0 -412.5 -9.5t-509 -43t-578.5 -102.5t-621 -187q25 -63 36 -127t11 -127q0 -158 -60.5 -303.5t-161 -271.5 t-230.5 -229.5t-270.5 -176t-279.5 -112.5t-258 -40q-59 0 -121.5 12.5t-113 40t-83 72.5t-32.5 113q0 53 20.5 117.5t73.5 138.5q106 152 267 280.5t346.5 237t380 202t370.5 173.5q-37 63 -114.5 117.5t-187.5 95.5t-246 64.5t-292 23.5q-209 0 -442 -62.5t-462.5 -173 t-437.5 -263t-367.5 -331t-254 -376t-94.5 -400.5zM-3801 -2191q0 -59 32.5 -96t80 -57.5t102.5 -29t100 -8.5q147 0 288.5 51.5t268.5 136.5t234.5 196.5t187.5 232t127.5 244t55.5 229.5q0 68 -11.5 124t-34.5 97q-190 -86 -385.5 -186.5t-372.5 -210t-324.5 -228.5 t-242.5 -241q-55 -74 -80.5 -137.5t-25.5 -116.5zM123 145q0 -23 3 -47t12 -43.5t24.5 -32t38.5 -12.5q43 0 84 20.5t76.5 50.5t63.5 62.5t44 57.5l379 579q6 19 6 33q0 35 -24.5 54.5t-65.5 19.5q-53 0 -121 -37t-138.5 -97.5t-139 -138t-123 -160.5t-87 -163t-32.5 -146z " />
<glyph unicode="h" horiz-adv-x="983" d="M0 0h96l342 573q25 43 74 97.5t106.5 101.5t115 80t100.5 33q18 0 30.5 -10.5t12.5 -34.5q0 -51 -39 -125t-95.5 -165t-121 -196.5t-115.5 -220.5q-12 -37 -12 -63q0 -41 28.5 -56.5t69.5 -15.5q70 0 142.5 27.5t143 71.5t135 100.5t117.5 113.5l-14 8q-20 -18 -72.5 -66 t-122 -100.5t-147.5 -92.5t-147 -40q-29 0 -46.5 10.5t-17.5 37.5q0 25 17 57q39 82 97 185.5t112.5 201.5t93.5 178t39 113q0 16 -2 35.5t-9.5 37t-22 28.5t-38.5 11q-41 0 -84 -18t-83 -46t-75 -58.5t-61 -55.5l-19 -16q37 55 55.5 84t31 47t24.5 36.5t37 55.5 q106 92 221 191.5t223.5 203t205.5 208t170 206.5t116 200.5t43 190.5q0 66 -58 66q-29 0 -69.5 -15.5t-91.5 -50.5q-80 -55 -130.5 -113.5t-84.5 -109.5q-41 -57 -97.5 -141t-123 -183.5t-137 -206t-137.5 -209t-126 -194.5t-102 -162l-150 -141l17 -14l73 67zM715 1012 q100 150 196.5 302t185.5 291.5t171 258t153 204.5q59 72 101.5 97.5t66.5 25.5q20 0 29.5 -16t9.5 -43q0 -74 -45 -165t-117.5 -191.5t-168 -205t-197 -204.5t-201.5 -191.5t-184 -162.5z" />
<glyph unicode="i" horiz-adv-x="512" d="M49 127q0 -31 7 -56.5t18 -41.5q8 -18 28.5 -25.5t49.5 -7.5q33 0 67.5 8t63.5 25q96 51 198.5 120.5t180.5 155.5l-7 6q-35 -37 -80 -73.5t-96 -71.5t-104 -69t-101 -60q-16 -10 -47.5 -18.5t-58.5 -8.5q-20 0 -27 4q-32 22 -32 62q0 29 10 49q53 104 111.5 208.5 t117 206t114.5 196.5t103 179h-112q-31 -59 -61 -107t-67.5 -108.5t-89 -146.5t-124.5 -219q-61 -115 -62 -207zM653 1264q0 -23 15.5 -37.5t38.5 -14.5q20 0 36.5 14.5t16.5 37.5t-15.5 38t-37.5 15q-23 0 -38.5 -15.5t-15.5 -37.5z" />
<glyph unicode="j" horiz-adv-x="520" d="M-1059 -1323q0 -57 23.5 -83t62.5 -26q74 0 168 76q66 51 141.5 142.5t156.5 207t164 248.5t165 269.5t158.5 266.5t144.5 242q82 78 189.5 159t211 152.5t187.5 127t121 84.5l-23 22q-45 -35 -122 -87t-167 -116.5t-186 -136t-180 -143.5l506 833h-97l-581 -946 q-129 -131 -285 -271t-303.5 -289.5t-267 -308.5t-172.5 -329q-6 -29 -10.5 -51.5t-4.5 -42.5zM-1032 -1323q0 16 2 38.5t8 47.5q31 88 92.5 185.5t140 196.5t171 198.5t186.5 190.5t186 173t170 150q-47 -76 -105.5 -180.5t-123 -220t-134 -235.5t-138 -227.5t-135 -195.5 t-124.5 -139q-84 -74 -135 -74q-61 0 -61 92zM733 1266q0 -18 12.5 -31.5t32.5 -13.5t32.5 13.5t12.5 31.5q0 16 -12 29.5t-33 13.5q-18 0 -31.5 -13.5t-13.5 -29.5z" />
<glyph unicode="k" horiz-adv-x="817" d="M0 0q207 338 404.5 661.5t375.5 595.5q84 129 171 270.5t178.5 268.5t186.5 229.5t195 155.5q18 10 37 15.5t35 5.5q25 0 41 -11.5t21 -31.5q6 -7 6 -25q-23 -127 -92.5 -255t-165 -249t-203 -231.5t-208.5 -200.5t-183 -155.5t-123 -98.5q-31 -45 -64.5 -98 t-68.5 -110.5t-69 -113t-64 -102.5q18 -6 30 -6q51 0 119 23.5t127 64.5t101 94.5t42 112.5q0 33 -14 60.5t-51 27.5q-27 0 -52.5 -13.5t-37.5 -25.5l-12 12q29 23 56 33t54 10q47 0 84 -33.5t37 -80.5q0 -59 -40 -111.5t-101.5 -92.5t-133 -65.5t-135.5 -31.5 q23 -14 47.5 -48t24.5 -83q0 -33 -13.5 -70t-28.5 -75t-27.5 -75.5t-12.5 -70.5q0 -31 21.5 -46.5t40.5 -15.5q59 0 127.5 44t134 103.5t121 119t86.5 90.5h22q-41 -47 -100.5 -111.5t-128 -123t-142 -98.5t-143.5 -40q-45 0 -73.5 30.5t-28.5 69.5q0 16 4 34t10 38t18.5 54 t24.5 69t21.5 66.5t9.5 50.5q0 53 -24.5 70.5t-51.5 17.5q-16 0 -29 -6l-297 -492h-96zM715 1012q225 174 394 349t281.5 324.5t169 259t56.5 154.5q0 27 -5 56.5t-34 29.5q-20 0 -55 -23.5t-92 -84.5q-68 -76 -137.5 -172.5t-153.5 -224.5t-187.5 -292.5t-236.5 -375.5z " />
<glyph unicode="l" horiz-adv-x="593" d="M66 170q0 -61 21.5 -96t52 -52.5t65.5 -21.5t63 -4q94 0 176 48t148.5 110.5t118 123t86.5 87.5l-9 6q-45 -37 -100 -98.5t-119.5 -121t-139.5 -102.5t-161 -43q-61 0 -102 35t-41 84q0 45 22.5 92t45.5 88q94 162 193 322.5t202 316.5q119 106 240.5 203.5t237.5 205 t221.5 234.5t193.5 297q47 92 67.5 155.5t20.5 100.5q0 66 -58 66q-35 0 -82 -22.5t-96 -56.5t-93 -76t-73 -79q-94 -125 -206.5 -293t-235.5 -358.5t-251 -395t-251 -405.5q-25 -41 -52.5 -87t-51 -93t-38.5 -91t-15 -79zM625 1012q43 70 107.5 171t138 213.5t149.5 225.5 t140.5 208t112.5 161.5t66 85.5q61 63 100.5 89.5t63.5 26.5q23 0 32 -16t9 -39q0 -18 -5 -37.5t-13 -38.5q-53 -123 -141.5 -263t-204 -279.5t-256 -270.5t-299.5 -237z" />
<glyph unicode="m" horiz-adv-x="1413" d="M0 0h111q33 49 59.5 89t50 77t49 77t58.5 91q86 133 185 259t202 232q43 41 78.5 56.5t62.5 15.5q20 0 32.5 -10t18.5 -23.5t7 -29t1 -23.5q0 -23 -3 -43t-12 -45t-24.5 -56.5t-41.5 -72.5l-373 -594h112q37 63 82 140t96.5 158t104.5 163t105 155q47 70 100 126.5 t106 97.5q84 63 123 63q29 0 40 -19.5t11 -47.5q0 -31 -13 -68t-33.5 -76t-44 -76.5t-44.5 -72.5q-31 -55 -53.5 -88t-41.5 -64t-43 -67.5t-56 -100.5q-27 -49 -27 -106q0 -119 133 -119q39 0 78 11t70 34q41 29 85 65.5t85 76.5t76.5 80t64.5 77v4q0 2 -6 2 q-16 -18 -49 -56t-76 -80t-92 -84t-97 -69q-29 -20 -69.5 -33.5t-77.5 -13.5q-41 0 -58.5 16.5t-17.5 45.5q0 39 24.5 92t62.5 113.5t81 127t81 135t62.5 136t24.5 131.5v10q0 41 -18.5 67.5t-57.5 26.5q-23 0 -51.5 -10t-66.5 -33q-61 -39 -122 -99t-139 -161 q14 39 27.5 89.5t13.5 103.5q0 63 -30.5 86.5t-67.5 23.5q-29 0 -56.5 -9t-49.5 -25q-20 -14 -50 -43t-65 -68t-72 -84t-73 -90l184 321h-111z" />
<glyph unicode="n" horiz-adv-x="937" d="M0 0h111q68 100 131 207.5t129 208.5q92 115 191.5 232.5t211.5 207.5q33 25 55.5 35t38.5 10q23 0 32 -13.5t9 -33.5q0 -29 -16 -57q-35 -70 -96.5 -164t-122 -192.5t-104.5 -189.5t-44 -153q0 -41 17.5 -67.5t44.5 -30.5q63 0 121.5 23.5t117 64.5t117.5 96t127 121v14 q-63 -61 -122.5 -116.5t-113 -96t-102.5 -65.5t-94 -27h-6q-43 0 -43 47q0 51 26.5 115t65.5 133.5t85 140t85 136t65.5 121t26.5 92.5v4q-2 63 -22.5 86.5t-49.5 23.5q-23 0 -46 -9t-46 -25q-41 -29 -124 -110t-173 -181l193 327h-111z" />
<glyph unicode="o" d="M4 113q0 -53 24.5 -82t75.5 -29q57 0 134 35q94 55 179 141t153.5 181.5t116.5 190.5t71 171q43 -23 115.5 -44.5t146.5 -21.5q41 0 79.5 10t67.5 33v17q-12 -16 -50 -32.5t-97 -16.5q-39 0 -84 9t-96 32q-29 10 -52.5 28.5t-29.5 22.5q4 12 4 26q0 16 -2 35t-2 29 q-10 29 -28.5 49.5t-59.5 20.5q-23 0 -54.5 -8.5t-72.5 -30.5q-90 -49 -171 -120t-148.5 -156t-120 -183t-83.5 -205q-16 -61 -16 -102zM43 88q23 76 77 173t126.5 199.5t153.5 200t157 173.5q35 35 64.5 49t52.5 14q29 0 46 -19t17 -44q0 -90 -39 -194.5t-106.5 -210 t-156.5 -202t-189 -168.5q-39 -29 -75 -40t-65 -11q-31 0 -47 17.5t-16 62.5z" />
<glyph unicode="p" horiz-adv-x="946" d="M-3293 -2327q0 147 121 353q119 201 313.5 381t434 334.5t507.5 279.5t535.5 216t518.5 145.5t453 64.5l1049 1661h98l-245 -387q59 33 95 67.5t65.5 63.5t62.5 46t88 17q41 0 61.5 -27.5t20.5 -68.5q0 -23 -7.5 -50.5t-16.5 -52t-19.5 -46t-16.5 -31.5l-260 -461 q-16 -31 -26.5 -54.5t-10.5 -41.5q0 -59 72 -59t199 70.5t280 225.5l15 -8q-61 -76 -135 -134t-146 -98t-139.5 -61.5t-116.5 -21.5q-47 0 -73.5 16.5t-26.5 57.5q0 23 13 57.5t36 73.5q18 37 51 94t71 122.5t76.5 132t69.5 120.5q29 49 44.5 95t15.5 79q0 49 -39 49 q-55 0 -123 -51t-139.5 -132t-141 -180.5t-131.5 -195.5l-551 -879q125 12 248 13q252 0 498.5 -44.5t471 -128t417 -206.5t333 -282t220 -350.5t79.5 -414.5v-4q0 -176 -53 -325.5t-145 -271.5t-219 -216t-272.5 -157.5t-305.5 -96.5t-319 -33q-115 0 -251.5 25.5 t-274.5 77t-268 127t-230.5 176t-161 224.5t-60.5 271q0 172 77 306.5t199 225.5t273.5 138t300.5 47q121 0 234.5 -25.5t206 -70.5t156 -108.5t83.5 -139.5q-35 74 -101.5 132.5t-155.5 99t-193.5 62t-214.5 21.5q-139 0 -285 -44t-265.5 -129t-196.5 -209.5t-77 -286.5 q0 -147 56.5 -269t151.5 -218.5t220 -169t259.5 -121t270.5 -72t255 -23.5q254 0 476 76t386 218.5t259 347t95 460.5q0 238 -88 428.5t-235.5 339t-342 256t-407.5 177t-432 103.5t-414 34q-72 0 -144.5 -3.5t-144.5 -11.5q-145 -215 -324 -452.5t-408.5 -480 t-519.5 -482.5t-654 -461q-182 -111 -347 -153.5t-300 -42.5q-193 0 -305.5 89t-112.5 246zM-3240 -2304q0 -135 92 -219t266 -84q129 0 296 54t374 177q283 168 542 386t486.5 457t418 482.5t333.5 460.5q-145 -6 -354 -43t-452 -110.5t-505 -185t-513 -265.5t-477 -351.5 t-396 -443.5q-59 -84 -85 -163.5t-26 -151.5z" />
<glyph unicode="q" horiz-adv-x="837" d="M-238 -1200q0 -59 45 -60q18 0 42 13.5t47 46.5q285 389 585.5 819.5t597.5 915.5q0 6 -8 7t-14 1q-115 -184 -255 -397.5t-292 -437.5t-309.5 -448.5t-304.5 -428.5q-23 -31 -45.5 -49.5t-34.5 -18.5q-10 0 -11 14q0 25 23 76q213 356 379 632.5t292 486.5t215 358.5 t150.5 251t99 164t58 96.5t30 50t13.5 23h-98l-88 -149q6 25 6 45q0 47 -29 74.5t-82 27.5q-41 0 -95 -20.5t-122 -67.5q-102 -72 -186 -147.5t-145.5 -153.5t-98.5 -154.5t-45 -146.5q0 -47 5 -89t18.5 -72.5t36 -49t59.5 -18.5q29 0 61.5 12t79.5 37q66 35 116 78t85 72 q-147 -229 -297 -468t-291 -485q-29 -49 -57.5 -101t-55 -103.5t-46 -100.5t-27.5 -90q-6 -25 -7 -45zM133 119q12 86 56 172t102.5 166t122 151.5t118.5 130.5l25 27q49 53 116.5 91t119.5 38q33 0 53 -20.5t20 -67.5q0 -16 -2 -35.5t-8 -42.5q-35 -61 -77 -135t-89 -148.5 t-98 -144.5t-100 -123q-20 -23 -57.5 -50.5t-78.5 -51t-84 -40t-75 -16.5q-29 0 -46.5 19.5t-17.5 79.5z" />
<glyph unicode="r" horiz-adv-x="614" d="M0 0h102l344 655q70 133 130.5 183.5t109.5 50.5q47 0 92 -39t82 -86q25 -29 40 -44t54 -15q14 0 29.5 1t36.5 9l74 28l-9 31l-65 -31q-16 -2 -29.5 -5t-27.5 -3q-23 0 -45.5 16.5t-55.5 67.5q-31 49 -84 77t-112 28q-63 0 -128 -36t-114 -122q-53 -90 -111.5 -193.5 t-115 -207t-107.5 -198.5t-90 -167z" />
<glyph unicode="s" horiz-adv-x="753" d="M-209 29q156 61 275.5 172.5t207.5 237.5t146.5 248t91.5 206q51 -51 68.5 -129t17.5 -162q0 -43 -3 -85t-7 -79q-8 -59 -30.5 -121.5t-64.5 -119t-102.5 -101.5t-144.5 -67q-23 -6 -45.5 -11.5t-42.5 -5.5q-49 0 -92 25q-23 16 -31 35.5t-15 29.5q-10 27 -20 27 q-8 0 -8 -41q6 -16 26.5 -38.5t55.5 -35.5q29 -10 68.5 -12t80.5 -2q100 2 212 30.5t215.5 78t191.5 118t141 152.5l-16 14q-53 -80 -117 -134t-127.5 -89t-121.5 -54.5t-103 -33.5q37 43 70.5 90t60 101.5t43 112.5t16.5 124q0 92 -38 192.5t-130 212.5v23h-28 q-8 -35 -35 -101.5t-70 -152.5t-103.5 -180t-136 -182.5t-164.5 -162t-192 -116.5v-14z" />
<glyph unicode="t" horiz-adv-x="628" d="M-31 1638q113 55 212.5 99.5t189.5 73t175 44t169 15.5q72 0 145.5 -12.5t151.5 -34.5q129 -70 184 -169.5t55 -205.5q0 -129 -54 -227.5t-141 -166t-199 -106.5t-224 -47l246 379h-99l-245 -379h-179v-22h164q-84 -123 -166 -245t-153 -241q-92 -145 -92 -258 q0 -76 47 -115q22 -22 75 -22h5q33 0 65.5 6t54.5 16q92 45 173 92.5t144.5 94.5t106.5 92t60 88h-15q-51 -86 -174 -178t-303 -172q-20 -10 -51 -17.5t-61 -7.5q-20 0 -38 3t-28 14q-10 16 -15 31.5t-5 33.5q0 14 2 29.5t12 32.5q8 35 28.5 69.5t45.5 71.5q41 61 90 134 t100 148.5t101.5 152.5t95.5 147q166 8 295 63t218 138t136 184.5t47 201.5q0 123 -71.5 229.5t-229.5 157.5q-72 25 -146.5 34t-148.5 9q-205 0 -397.5 -71.5t-358.5 -186.5z" />
<glyph unicode="u" horiz-adv-x="792" d="M8 115q0 -59 29 -95q16 -16 49 -16q29 0 61.5 11.5t59.5 21.5q39 23 68.5 44t53 42.5t44 46.5t43.5 53q-10 -27 -10 -71q0 -31 9 -63t31 -52q16 -16 38 -25.5t53 -9.5q27 0 59.5 9t73.5 32q18 14 45.5 35.5t57.5 46.5t60.5 50.5t59.5 47.5l-14 15q-57 -45 -105.5 -87 t-111.5 -85q-68 -47 -121 -48q-45 0 -72 41q-6 18 -6 35q0 29 15.5 62.5t49.5 89.5q106 168 209.5 330.5t214.5 338.5h-104l-418 -649q-39 -49 -93 -107.5t-122 -99.5q-27 -16 -57.5 -28.5t-55.5 -12.5q-23 0 -37 12.5t-14 43.5q0 16 10.5 41.5t25.5 53.5t31.5 53.5 t28.5 43.5q57 90 124 190.5t127.5 190.5t107.5 162t67 106h-104l-403 -610q-23 -33 -40.5 -86t-17.5 -104z" />
<glyph unicode="v" d="M59 111q0 -41 27 -76t78 -35q45 0 96 29q133 100 221 197.5t143.5 185.5t84 166.5t43.5 142.5q47 -39 102 -57.5t111 -18.5q98 0 174 53l-15 17q-78 -49 -159 -49q-86 0 -149.5 55t-63.5 164q-14 0 -23 -6q0 -147 -43 -270.5t-111.5 -225.5t-153.5 -186t-169 -154 q-39 -27 -76 -27t-61.5 22.5t-24.5 59.5q0 16 6 35q27 84 87.5 189.5t129 213t136 207t108.5 172.5h-96q-37 -55 -87 -131.5t-102.5 -160.5t-99.5 -168t-76 -158q-23 -55 -30 -93t-7 -93z" />
<glyph unicode="w" horiz-adv-x="1206" d="M16 172q0 -49 16.5 -88t41.5 -64q12 -12 33.5 -18t44.5 -6q31 0 61.5 9t52.5 24q78 53 133.5 125.5t106.5 150.5q-16 -37 -27.5 -78t-11.5 -80q0 -57 25 -88q12 -23 44.5 -42t75.5 -19q70 0 140 61q51 45 123.5 133.5t143.5 191.5t132 207.5t92 182.5q6 -16 26.5 -41.5 t53.5 -49.5t73 -41t83 -17q47 0 93 26t87 92l-21 9q-20 -47 -65 -77t-98 -30q-39 0 -79 18.5t-74 60.5t-57.5 109.5t-29.5 163.5l-37 -8q0 -98 -27.5 -198.5t-70.5 -195.5t-95.5 -181t-103.5 -155t-93 -117t-65 -68q-43 -37 -77.5 -51.5t-61.5 -14.5q-35 0 -56.5 22.5 t-35.5 51.5q-4 6 -4 12v15q0 41 22.5 90t42.5 84l394 632h-88l-418 -641q-41 -61 -92.5 -124.5t-102.5 -98.5q-23 -14 -48 -26.5t-54 -12.5q-23 0 -43.5 10.5t-38.5 36.5q-16 23 -16 54q0 25 8 50t19 50t24.5 45.5t23.5 36.5q4 8 6 10q57 90 121 184.5t120 177.5t99 148.5 t64 99.5h-98l-379 -559q-35 -49 -46.5 -96t-11.5 -88z" />
<glyph unicode="x" horiz-adv-x="1015" d="M0 145q0 -33 14 -63q16 -35 43 -57.5t68 -22.5q53 0 136 49t200 172q-6 -41 -6 -84q0 -29 4 -49t16 -31q18 -29 58 -49t96 -20q29 0 58.5 4t64.5 20q84 39 148.5 78t116.5 79t95 81l86 82l-14 31q-174 -199 -447 -336q-59 -16 -100 -17q-104 0 -125 70q-4 20 -4 31 q0 35 15.5 67.5t33.5 65.5q47 80 82 152.5t68.5 137t71.5 120t91 102.5q16 18 45 39.5t63 41t70.5 33t73.5 13.5q39 0 65.5 -19.5t33.5 -68.5q18 4 26 16.5t8 26.5q0 23 -13 42t-36 25q-55 12 -94 13q-94 0 -149.5 -35t-102.5 -76q-37 -33 -69.5 -64.5t-69.5 -89.5 q20 39 32.5 82t12.5 82q0 29 -9 50.5t-28 31.5q-25 18 -49 19q-41 0 -78 -29t-67 -51l16 -15q29 31 58.5 45.5t58.5 14.5t46 -15.5t17 -46.5q0 -16 -5 -36.5t-19 -43.5q-10 -35 -34 -83t-55.5 -101t-65.5 -108.5t-65.5 -102.5t-56 -83t-37.5 -50q-80 -98 -147.5 -144 t-116.5 -46q-66 0 -100 77q-4 10 -6.5 21.5t-2.5 21.5q0 51 38 103.5t98 107.5q-8 4 -11 4h-2h2t2 5q-14 -6 -38.5 -27t-49 -49.5t-42 -65.5t-17.5 -78z" />
<glyph unicode="y" horiz-adv-x="864" d="M-2886 -2327q0 147 121 353q119 201 314.5 381t435 334.5t508 279.5t535.5 216t518 145.5t454 64.5l393 621q-35 -20 -61.5 -32.5t-49 -19t-43 -7.5t-40.5 -1q-72 0 -107 46t-35 120q0 66 27 149t80 169l260 423h102l-389 -657q-20 -27 -27.5 -64.5t-7.5 -62.5 q0 -47 28 -79t79 -32q57 0 138 59.5t183 196.5l385 639h105q-98 -174 -209 -355t-226.5 -366.5t-233.5 -372t-232 -366.5q125 12 248 13q250 0 497.5 -39t472 -117t417 -195.5t332.5 -276.5t220 -358.5t80 -439.5q0 -176 -53.5 -326.5t-145.5 -273.5t-219 -216 t-272.5 -157.5t-305 -97.5t-319.5 -33q-115 0 -252 25.5t-275 77t-267.5 127t-229.5 176t-160.5 224.5t-60.5 271q0 172 77 306.5t198.5 225.5t272 138t300.5 47q121 0 234.5 -25.5t205.5 -70.5t155.5 -108.5t84.5 -139.5q-35 74 -101.5 132.5t-154.5 99t-192.5 62 t-215.5 21.5q-139 0 -284.5 -44t-266.5 -129t-197.5 -209.5t-76.5 -286.5q0 -147 57.5 -269t152.5 -218.5t219 -169t259 -121t271.5 -72t254.5 -23.5q254 0 476.5 76t386 218.5t259 347t95.5 460.5q0 238 -88 428.5t-235.5 339t-342 256t-407.5 177t-432.5 103.5t-413.5 34 q-74 0 -145.5 -3.5t-143.5 -11.5q-74 -86 -176 -221t-228 -298t-274.5 -340t-316.5 -350t-351.5 -330t-381 -275.5t-405.5 -188t-423 -69.5q-193 0 -305.5 89t-112.5 246zM-2830 -2304q0 -135 92 -219t266 -84q193 0 380 63.5t367.5 171t351.5 252t330.5 306t305 332.5 t274.5 334t239.5 306t200.5 252q-145 -6 -354 -43t-451.5 -110.5t-504.5 -185t-513 -265.5t-477.5 -351.5t-396.5 -443.5q-59 -84 -84.5 -163.5t-25.5 -151.5z" />
<glyph unicode="z" horiz-adv-x="669" d="M-707 -1419q0 -72 60 -72q23 0 57.5 12.5t75.5 40.5q162 117 291 240t232.5 256t186.5 276.5t152 298.5q31 70 51.5 153t20.5 157q0 16 -1 29.5t-3 27.5l149 170h-14l-141 -150q-23 70 -73 94.5t-95 24.5q-29 0 -49 -6l745 828l-16 6q-47 0 -81 -36t-63.5 -82t-60.5 -90 t-70 -61q-10 -4 -24.5 -8t-30.5 -4q-41 0 -64 29q-16 18 -21 32.5t-5 26.5q0 8 1 14.5t3 14.5q4 23 27.5 47t39.5 35l-8 22q-16 -4 -38.5 -20.5t-34.5 -38.5q-10 -23 -16.5 -38t-6.5 -44q-96 -152 -190.5 -271.5t-159.5 -197.5h37q78 96 159.5 199.5t159.5 232.5 q16 -33 45 -49t64 -16q45 0 92 28l-662 -692h15q18 14 41.5 30.5t49 32t52.5 25.5t55 10q25 0 48.5 -11t41 -29.5t28.5 -40t11 -40.5q-29 -55 -117.5 -152t-206.5 -219t-248 -259.5t-238.5 -274.5t-180.5 -264t-72 -227zM-690 -1405q0 29 13 68t42 86q49 80 126 182t167 213 t187.5 223.5t187.5 214t166.5 185t124.5 137.5l32 35q0 -61 -22.5 -139.5t-87.5 -194.5q-74 -129 -148.5 -254t-159.5 -248t-183.5 -241.5t-217.5 -233.5q-53 -51 -99 -72.5t-75 -21.5q-53 0 -53 61z" />
<glyph unicode="{" horiz-adv-x="946" d="M164 580q45 -10 72.5 -33t43 -50.5t22.5 -59t9 -58.5q8 -31 8 -66q0 -57 -18 -111.5t-40.5 -106.5t-41 -105t-18.5 -111q0 -45 20.5 -99t67.5 -101.5t121.5 -79t183.5 -31.5q-33 10 -81 33.5t-93 56.5t-77 76t-32 94q0 55 19.5 110.5t42 111.5t42 115.5t19.5 123.5 q0 12 -1 25.5t-3 27.5q-6 31 -19.5 69t-37 71.5t-57 59t-78.5 31.5q37 8 82 29t89 49.5t80.5 62.5t53.5 66q23 70 27.5 149t11 160.5t20.5 163.5t53 160q23 29 63 59.5t84 57t87 45t72 24.5q-123 0 -224.5 -32.5t-163.5 -122.5q-51 -92 -72.5 -179t-32.5 -169t-21.5 -161 t-36.5 -155q-20 -33 -47 -66.5t-60 -61t-67.5 -47t-71.5 -25.5z" />
<glyph unicode="|" horiz-adv-x="0" d="M625 -8h104v2212h-104v-2212z" />
<glyph unicode="}" horiz-adv-x="946" d="M-150 -418q123 0 235 36t212 142q45 63 60.5 132t21.5 139.5t13 144.5t38 152q14 39 32.5 76.5t49.5 72.5t74.5 64.5t111.5 52.5q-66 16 -98.5 82.5t-48.5 157.5q0 57 19.5 112t44 110.5t44 112t19.5 117.5q0 16 -2 30.5t-6 31.5q-14 39 -44 85t-75 84.5t-106.5 64.5 t-139.5 26q53 -16 96 -46t77 -64t57.5 -69.5t37.5 -66.5q6 -29 7 -55q0 -59 -22.5 -118t-49.5 -117t-51.5 -116.5t-26.5 -115.5q6 -41 30.5 -82t55.5 -75t64.5 -59.5t58.5 -35.5q-49 -6 -97 -31t-91 -62.5t-81 -85t-65 -98.5q-25 -70 -33 -140.5t-15 -140t-24.5 -138 t-62.5 -132.5q-61 -66 -137 -107.5t-183 -70.5z" />
<glyph unicode="~" horiz-adv-x="0" d="M342 983q35 33 71 45t74 12q43 0 88.5 -11t93.5 -25.5t97 -25.5t100 -11q35 0 69 7t69 23l-7 7q-49 -20 -102 -21q-49 0 -93 14.5t-88 30.5t-89 30.5t-93 14.5q-43 0 -90 -16.5t-100 -59.5v-14z" />
<glyph unicode="&#xa1;" horiz-adv-x="512" d="M41 -16h102q31 57 79 153t107.5 214t128 251t140.5 266q-74 -66 -126 -105.5t-93 -39.5q-20 0 -36.5 13.5t-29 32.5t-19.5 43t-7 44q0 57 28.5 104.5t73.5 80t97.5 50t101.5 17.5q16 0 29.5 -2t27.5 -6q-23 0 -43 -23.5t-20 -50.5q0 -37 26.5 -61.5t61.5 -24.5t61.5 22.5 t26.5 63.5q0 31 -15.5 50.5t-38 31.5t-50 16t-54.5 4q-66 0 -125 -20.5t-104 -57t-72 -89t-27 -117.5q0 -23 7.5 -47.5t20.5 -45t33.5 -32.5t49.5 -12q45 0 82 36q-106 -209 -218 -400t-206 -359z" />
<glyph unicode="&#xa2;" horiz-adv-x="591" d="M-23 -172l29 -8l127 180q41 -10 80 -10q29 0 58.5 5t62.5 19q135 39 245.5 122t172.5 206h-31q-23 -45 -60.5 -91t-92 -89t-126 -78t-159.5 -55q-16 -4 -30.5 -7.5t-29.5 -3.5q-37 0 -67 19l573 842q20 -10 25.5 -29t5.5 -39q0 -45 -90 -113l6 -14q49 35 83 68.5t34 74.5 q0 25 -6.5 46.5t-34.5 33.5l110 164l23 82l-164 -238q-117 0 -223.5 -58t-192.5 -144t-148.5 -186.5t-90.5 -184.5q-14 -43 -22.5 -84t-8.5 -80q0 -51 16.5 -93t50.5 -71zM106 137q0 74 44.5 170t110 193.5t141 182.5t141.5 136q41 31 75.5 48.5t79.5 17.5l-565 -834 q-16 18 -21.5 41t-5.5 45z" />
<glyph unicode="&#xa3;" horiz-adv-x="1656" d="M117 92q0 -37 39 -55q39 -20 77.5 -28.5t79.5 -8.5q66 0 131.5 21.5t120.5 60.5q98 -20 215 -52t258 -32q70 0 144.5 12.5t156.5 40.5q96 45 184.5 135t129.5 207h-15q-16 -55 -50 -99t-76 -78t-91 -57.5t-96 -39.5q-74 -27 -153.5 -36t-159.5 -9q-104 0 -202.5 13 t-184.5 32q84 63 170 149t165.5 180.5t148.5 190.5t120 180l497 193l-149 -8l-311 -119q37 76 71.5 137t69.5 125.5t69.5 140.5t71.5 178q70 29 148 69t153.5 95.5t143 130t114.5 174.5q16 31 21.5 56t5.5 45q0 41 -21.5 59.5t-56.5 18.5q-66 0 -135 -52 q-59 -43 -120.5 -105.5t-122 -138t-117 -161.5t-103.5 -176q-121 -49 -254 -49q-82 0 -157.5 16t-134 46t-94.5 69t-38 82q-4 0 -9 2t-9 2t-4 -4q6 -49 25.5 -83t48 -57.5t61.5 -39t68 -29.5q51 -23 109 -31t118 -8q70 0 136.5 11t119.5 28l-314 -580q-31 -12 -60.5 -23.5 t-61 -20.5t-67.5 -15t-81 -6q-90 0 -126 39.5t-36 91.5q0 37 15.5 73.5t46.5 66.5t77 49t107 19l-29 9q-59 0 -105 -19.5t-77 -51.5t-47 -72t-16 -78q0 -23 10 -50.5t33.5 -52t58.5 -41t84 -16.5q45 0 114.5 5t131.5 34q-96 -199 -236.5 -367t-308.5 -297q-45 8 -107.5 28.5 t-144.5 20.5q-29 0 -60.5 -4t-66.5 -14q-33 -16 -47 -34.5t-14 -37.5zM176 88q0 20 31 37q37 6 74 6q51 0 105 -9.5t120 -25.5q-53 -39 -104.5 -53t-94.5 -14q-33 0 -59.5 6t-46.5 16q-25 20 -25 37zM1571 1518q37 78 77 156.5t87 150t104 131t127 98.5q29 16 51.5 23.5 t38.5 7.5q31 0 44.5 -18.5t13.5 -43.5q0 -31 -15 -57q-76 -127 -152.5 -206t-147 -126t-130 -72.5t-98.5 -43.5z" />
<glyph unicode="&#xa4;" horiz-adv-x="591" d="M35 186q0 -80 38 -134t130 -54q86 0 168 26.5t153.5 73.5t130 110.5t97.5 135.5h-31q-20 -41 -66.5 -96t-113 -105.5t-148.5 -85t-174 -34.5q-57 0 -85 31.5t-28 84.5q0 63 33 141t82 164h371v37h-346q4 8 9 15.5t9 11.5h328v37h-301q61 84 126.5 155.5t125.5 118.5 q88 70 143 70q35 0 56.5 -14.5t21.5 -47.5q0 -23 -23.5 -58.5t-70.5 -70.5l6 -14q49 35 83 68.5t34 74.5q0 39 -21.5 62.5t-69.5 23.5q-76 0 -149.5 -31.5t-141 -82.5t-127 -118t-106.5 -136h-133v-37h111q-4 -6 -8.5 -14.5t-8.5 -12.5h-94v-37h74q-39 -78 -61.5 -144.5 t-22.5 -113.5z" />
<glyph unicode="&#xa5;" horiz-adv-x="1339" d="M88 295q0 -43 10.5 -86t26.5 -84q27 -59 88 -92t141 -33q88 0 197 51q80 37 148.5 99.5t126 134t103.5 142.5t83 124q117 0 224 24.5t198.5 61.5t164 81t121.5 85l-22 8q-39 -27 -109.5 -66.5t-160 -76.5t-191.5 -62.5t-203 -25.5q248 377 473.5 762t450.5 772h-96 q-12 -16 -49 -77t-91.5 -151t-122 -200.5t-137 -229.5t-138.5 -235.5t-126 -216.5q70 180 96.5 329.5t26.5 272.5q0 166 -37 275.5t-78 158.5q-35 41 -90 58.5t-121 17.5q-49 0 -99 -9.5t-93 -21.5q-86 -27 -172 -89.5t-159 -137t-125 -151.5t-73 -130q-10 -27 -21 -75 t-11 -101q0 -47 11 -89t44 -69l8 14q-27 20 -37 56.5t-10 77.5t9 79.5t22 69.5q29 76 82 154t121.5 146.5t150.5 124.5t168 89q41 16 91 25.5t99 9.5q45 0 85 -11.5t67 -37.5q61 -63 88 -163.5t27 -223.5t-23.5 -262.5t-65.5 -279.5t-96.5 -275.5t-115.5 -247.5l-283 28 q-53 4 -107.5 10.5t-107.5 6.5q-47 0 -92 -7.5t-88 -25.5t-83 -52t-73 -87q-45 -70 -45 -166zM125 262q0 51 12.5 95t26.5 73q27 51 63.5 84t79.5 51.5t92.5 25.5t98.5 7q47 0 92 -3t86 -7l268 -31q-31 -41 -76 -110.5t-101 -143.5t-122.5 -139.5t-138.5 -97.5 q-84 -41 -162 -41q-70 0 -118 30.5t-70 77.5q-31 61 -31 129z" />
<glyph unicode="&#xa6;" horiz-adv-x="1656" d="M117 92q0 -37 39 -55q39 -20 77.5 -28.5t79.5 -8.5q66 0 131.5 21.5t120.5 60.5q98 -20 215 -52t258 -32q94 0 189.5 22.5t178.5 70.5t147.5 123t99.5 179h-15q-37 -96 -105.5 -157.5t-153.5 -97.5t-180 -50t-187 -14q-104 0 -202.5 13t-184.5 32q84 63 170 149 t165.5 180.5t148.5 190.5t120 180l497 193l-149 -8l-311 -119l282 581q61 23 138 61t154 95t147.5 135t119.5 178q16 31 21.5 56t5.5 45q0 41 -21.5 59.5t-56.5 18.5q-66 0 -135 -52q-59 -43 -120.5 -105.5t-122 -138t-117 -161.5t-103.5 -176q-121 -49 -254 -49 q-82 0 -157.5 16t-134 46t-94.5 69t-38 82q-4 0 -9 2t-9 2t-4 -4q8 -76 54 -124t109.5 -76t135 -38t131.5 -10q70 0 136.5 11t119.5 28l-314 -580q-94 -35 -184 -49t-164 -14q-78 0 -127 12q16 -20 85 -29.5t153 -9.5q55 0 109.5 4t95.5 14q-96 -199 -234.5 -360.5 t-306.5 -290.5q-45 8 -107.5 28.5t-144.5 20.5q-29 0 -60.5 -4t-66.5 -14q-33 -16 -47 -34.5t-14 -37.5zM176 88q0 20 31 37q37 6 74 6q51 0 105 -9.5t120 -25.5q-53 -39 -104.5 -53t-94.5 -14q-33 0 -59.5 6t-46.5 16q-25 20 -25 37zM1571 1518q37 78 77 156.5t87 150 t104 131t127 98.5q29 16 51.5 23.5t38.5 7.5q31 0 44.5 -18.5t13.5 -43.5q0 -31 -15 -57q-72 -119 -138.5 -193.5t-130 -122.5t-121.5 -75t-112 -47z" />
<glyph unicode="&#xa7;" d="M276 180q0 -49 30 -74.5t73 -25.5q29 0 51 8q35 10 72 55t49 103q0 43 -5 68.5t-18 41.5q10 -2 22.5 -3t27.5 -1q35 0 71.5 9.5t65.5 31.5q94 55 179 141.5t153.5 184.5t116.5 201.5t71 195.5q8 20 8 51q0 33 -15.5 65t-60.5 40q-27 12 -42 36.5t-15 53.5t14 51 q6 8 15.5 23.5t22 33t27.5 33t32 23.5q47 35 86 35q29 0 44 -17.5t15 -44.5q0 -45 -41 -86q-10 -10 -10 -14q0 -6 10 -6q8 0 14 6q23 27 33 51t10 47q0 35 -21.5 56.5t-60.5 21.5q-23 0 -51 -9.5t-59 -31.5q-47 -33 -62.5 -61.5t-25.5 -51.5q-12 -25 -12 -53q0 -33 14 -58.5 t35 -29.5q-35 -6 -62.5 -17.5t-56.5 -27.5q-90 -51 -171 -121t-148.5 -155t-120 -182t-82.5 -204q-10 -37 -18.5 -70.5t-8.5 -62.5q0 -33 12 -47q18 -29 33.5 -52.5t15.5 -59.5q0 -8 -1 -16.5t-3 -18.5q-12 -51 -35.5 -82t-68.5 -53q-14 -4 -25.5 -6.5t-21.5 -2.5 q-41 0 -61.5 24t-20.5 64q0 25 8 54.5t25 60.5l-9 6q-23 -39 -33 -71.5t-10 -59.5zM516 422q0 8 4 24q23 76 77 173.5t127 199t153.5 198.5t156.5 173q35 35 63.5 49t51.5 14q29 0 46 -19t17 -44q0 -90 -38.5 -195.5t-106.5 -210t-157 -201t-189 -167.5q-39 -29 -75 -40 t-64 -11q-66 0 -66 57z" />
<glyph unicode="&#xa8;" horiz-adv-x="638" d="M725 1122q0 -49 41 -49q14 0 37 12q45 29 76.5 68t42.5 68q8 16 8 34q0 35 -35 35q-18 0 -39 -10q-106 -57 -127 -133q-4 -16 -4 -25zM997 1147q0 -41 7.5 -56.5t27.5 -15.5q4 0 25 4q45 29 76.5 62t42.5 71q8 19 8 37t-10.5 26.5t-26.5 8.5q-25 0 -45 -12 q-57 -33 -79 -68t-26 -57z" />
<glyph unicode="&#xa9;" horiz-adv-x="1675" d="M37 143q0 -100 46 -196.5t128 -172t196.5 -121.5t251.5 -46q59 0 112.5 10t107.5 33q147 61 284 182t241.5 276.5t167 333t62.5 353.5q0 47 -4 90t-8 82h-23q4 -35 6.5 -72t2.5 -76q-2 -150 -50.5 -313.5t-141.5 -314t-228 -271.5t-309 -182q-70 -20 -119 -29.5t-96 -9.5 q-111 0 -209.5 35t-173 99.5t-118.5 158.5t-44 215q0 82 34.5 183.5t95 203.5t144.5 199.5t184.5 173t212 121t226.5 45.5q174 0 257 -72t83 -205q0 -74 -22.5 -165t-63.5 -183t-100.5 -181t-133 -157t-161 -110t-183.5 -42q-63 0 -88.5 37t-25.5 84q0 57 23.5 124t62 135.5 t89 135t101.5 126t101.5 105.5t86.5 75q66 47 123 47q35 0 56.5 -16.5t21.5 -45.5q0 -27 -21.5 -57.5t-68.5 -60.5l8 -23q35 23 62.5 49.5t33.5 54.5q4 16 5 31q0 31 -20.5 61.5t-80.5 30.5q-25 0 -58.5 -6t-76.5 -26q-49 -23 -106.5 -62t-116 -92t-112.5 -117.5t-96 -135.5 t-67.5 -144.5t-25.5 -147.5q0 -35 8 -69.5t29.5 -61t58.5 -43t94 -16.5q96 0 185.5 44t166 116.5t138 164t105.5 187.5t67.5 188t23.5 164q0 147 -91 224t-271 77q-111 0 -225.5 -43t-223 -116.5t-205 -172t-169 -211t-114.5 -232.5t-42 -237z" />
<glyph unicode="&#xaa;" horiz-adv-x="593" d="M63 170q0 -49 17.5 -83t46.5 -53.5t65.5 -28.5t73.5 -9q94 0 176 48t148.5 110.5t118 123t86.5 87.5l-9 6q-45 -37 -100 -98.5t-119.5 -121t-139.5 -102.5t-161 -43q-68 4 -105.5 38t-37.5 81q0 45 22.5 92t44.5 88q94 162 193.5 322.5t202.5 316.5q119 88 240.5 183.5 t237.5 207t221.5 245.5t193.5 304q47 92 67.5 155.5t20.5 100.5q0 66 -58 66q-35 0 -82 -22.5t-96 -56.5t-93 -76t-73 -79q-137 -182 -304 -431t-349 -542l-344 -231l-80 -143l344 219q-57 -90 -107.5 -162t-103.5 -162q-25 -41 -52.5 -87t-51 -93t-39 -91t-15.5 -79z M655 1067q43 70 105.5 167t132.5 203.5t141.5 212t134 194.5t107.5 151.5t63 81.5q61 63 100.5 89.5t63.5 26.5q23 0 32 -16t9 -39q0 -18 -5 -37.5t-13 -38.5q-53 -123 -136 -254t-194 -260t-246 -251.5t-295 -229.5z" />
<glyph unicode="&#xab;" horiz-adv-x="1339" d="M147 393l664 -364v22l-573 320q84 43 164.5 95t150.5 110.5t123 120t82 122.5h-21q-35 -68 -96 -126t-140 -110.5t-170 -98.5t-184 -91zM504 393l663 -364v22l-573 320q84 43 165 95t150.5 110.5t122.5 120t82 122.5h-20q-35 -68 -96.5 -126t-140.5 -110.5t-170 -98.5 t-183 -91z" />
<glyph unicode="&#xac;" horiz-adv-x="2238" d="M-4 1176q0 -43 20.5 -77t53 -58.5t70.5 -37t75 -12.5q72 0 133.5 36t97.5 97q47 -72 132.5 -105.5t177.5 -33.5q63 0 122.5 14.5t104.5 49.5q61 47 89 117.5t28 142.5q0 78 -30 145.5t-87 108.5q66 31 99.5 93t33.5 152q0 27 -14.5 55.5t-39 53.5t-56 40t-64.5 15 q-51 0 -99 -44t-77 -156h8q29 98 68 135t80 37q43 0 71.5 -14.5t46 -36t24.5 -45t7 -42.5q0 -55 -20.5 -121.5t-98.5 -121.5q57 -41 80 -89.5t23 -97.5q0 -39 -11.5 -76.5t-30 -69.5t-41 -58.5t-42.5 -41.5q-41 -29 -114 -60.5t-154 -31.5q-59 0 -114.5 23.5t-101.5 85.5 q-57 -61 -107 -80.5t-108 -19.5q-41 2 -78.5 16t-66.5 35.5t-45 47t-16 54.5q0 39 45 76t159 55v8q-131 -20 -182 -66t-51 -97zM2 786q0 -53 50 -100t177 -70v17q-113 18 -156.5 53t-43.5 76q0 43 23.5 72.5t57 49t71.5 29t67 9.5q53 0 96 -20.5t102 -76.5q43 59 97.5 84 t109.5 25q82 0 156 -36t113 -73q20 -16 42.5 -40.5t41 -56.5t30 -68.5t11.5 -73.5q0 -47 -23 -95.5t-80 -89.5q66 -37 91.5 -87t25.5 -103q0 -12 -1 -23.5t-3 -23.5q-2 -23 -14.5 -47.5t-33 -46t-46 -36t-52.5 -14.5q-41 0 -79.5 41t-65.5 146l-8 -6q29 -113 77 -157t99 -44 q33 0 63.5 15.5t55 39t40 52t15.5 57.5v6q0 86 -37 144.5t-104 86.5q59 41 91 112t32 149q0 72 -29 138t-86 115q-41 35 -96.5 51.5t-116.5 16.5q-94 0 -183.5 -35t-132.5 -100q-37 57 -98 91t-129 34q-35 0 -74 -13.5t-70.5 -38t-52 -58.5t-20.5 -77zM1124 164 q0 -27 15.5 -55.5t40 -52t56.5 -39t64 -15.5q49 0 97.5 44t77.5 155h-17q-29 -100 -65.5 -139t-77.5 -39q-27 0 -52.5 15t-45 36.5t-30.5 47t-11 48.5q0 84 26.5 134t85.5 97q-53 39 -74.5 85t-21.5 94q0 39 12.5 77.5t30.5 72.5t39.5 60.5t42.5 43.5q18 14 45 30.5 t59.5 30.5t70.5 23.5t79 9.5q57 0 111.5 -24.5t97.5 -84.5q66 70 115 99.5t102 29.5q29 0 63.5 -10t64 -30.5t50 -51.5t20.5 -74q0 -45 -45 -86t-163 -63q129 23 180 68t51 94q-2 41 -22.5 73.5t-52.5 56t-69.5 36t-74.5 12.5q-68 0 -127.5 -34t-91.5 -91q-45 61 -130 97 t-177 36q-59 0 -116 -15.5t-100 -50.5q-59 -47 -84.5 -113.5t-25.5 -135.5q0 -78 30.5 -151t88.5 -114q-66 -31 -104 -86t-38 -145v-6zM1130 1808q0 -94 35 -158.5t101 -93.5q-57 -41 -87 -107.5t-30 -141.5q0 -72 28.5 -140.5t88.5 -117.5q43 -35 100 -51.5t119 -16.5 q90 0 174 35t135 100q33 -61 90.5 -97t126.5 -36q37 0 75 12.5t70.5 35t53 56t22.5 74.5q0 49 -53 95.5t-184 68.5q123 -23 170 -63.5t47 -87.5q0 -39 -19.5 -70t-49 -52.5t-63.5 -32.5t-63 -11q-59 0 -110.5 30.5t-112.5 108.5q-41 -63 -98.5 -88t-116.5 -25q-43 0 -85 9.5 t-79 23.5t-65.5 31.5t-46.5 31.5q-41 31 -78 95.5t-37 140.5q0 49 23.5 99.5t82.5 90.5q-37 37 -60.5 66t-36.5 57.5t-17 59t-4 69.5q0 23 13 46.5t33.5 43t47 32t55.5 12.5q43 0 84 -39t66 -140h6q-29 117 -76 163t-98 46q-33 0 -65 -15t-56.5 -40t-40 -53.5t-15.5 -55.5z " />
<glyph unicode="&#xad;" horiz-adv-x="892" d="M238 416h491l51 67h-497z" />
<glyph unicode="&#xae;" horiz-adv-x="1452" d="M37 143q0 -100 46 -196.5t128 -172t196.5 -121.5t251.5 -46q131 0 254 51t230.5 139t195.5 206t152.5 250t101.5 271.5t41 270.5q0 47 -4 90t-8 82h-23q4 -35 6.5 -72t2.5 -76q0 -125 -30 -256t-87 -255t-139 -234.5t-187.5 -194.5t-231.5 -132t-269 -48 q-111 0 -209.5 35t-173 99.5t-118.5 158.5t-44 215q0 88 34.5 191.5t96 206t146.5 197.5t184.5 168.5t210 118t225.5 44.5q174 0 257 -72t83 -205t-49.5 -261t-129 -238.5t-181 -198.5t-208.5 -138q-10 -4 -20 -4h-16q-59 0 -60 54q0 35 23 77q12 31 30.5 69t36 79t30.5 80 t13 69q0 55 -51 68q70 0 130.5 20.5t105.5 56.5t70.5 82t25.5 97q0 8 -1 16.5t-3 18.5q-6 47 -51 77.5t-107 30.5q-59 0 -129 -32.5t-117 -112.5l-452 -766h82l297 492q57 -4 80.5 -21.5t23.5 -50.5q0 -43 -31.5 -107.5t-72.5 -148.5q-20 -39 -21 -72q0 -43 35 -78 q4 -10 23.5 -14t48.5 -4h30q16 0 33 4q129 43 238.5 139.5t191.5 217t128 252.5t46 245q0 147 -91 224t-271 77q-111 0 -225.5 -43t-223 -116.5t-205 -172t-169 -211t-114.5 -232.5t-42 -237zM655 543l164 276q23 41 56.5 57.5t64.5 16.5q47 0 82 -29t43 -76q0 -37 -8 -73.5 t-30.5 -68.5t-62.5 -58.5t-102 -44.5q-16 -10 -76 -11q-29 0 -61.5 3.5t-69.5 7.5z" />
<glyph unicode="&#xaf;" horiz-adv-x="2232" d="M-1577 147q0 -176 72.5 -310t193.5 -224t277.5 -137t324.5 -47q203 0 397.5 52t363.5 134t305.5 184.5t222.5 200.5h-68q-27 -33 -90.5 -86t-155.5 -113.5t-206.5 -121t-241.5 -109.5t-261.5 -80t-265.5 -31q-162 0 -314.5 45t-271 131t-191.5 213t-73 291 q0 143 52.5 269.5t143.5 230.5t211 185t255 136.5t277.5 85t277.5 29.5q123 0 248 -29.5t226 -93t164.5 -162t63.5 -235.5q0 -115 -52 -217t-139 -188.5t-200.5 -155t-234.5 -115.5t-241 -72.5t-220 -25.5q-113 0 -205 30.5t-158.5 82t-103.5 117t-37 136.5q0 90 43 172 t115 154t164 130.5t189 99t194.5 63t177.5 22.5q74 0 145.5 -12t128 -43t91 -83t34.5 -130q0 -113 -72.5 -201t-180 -149t-230.5 -94t-223 -33q-111 0 -170.5 43t-59.5 107q0 86 61.5 147t148.5 101t180.5 59.5t158.5 19.5q-27 2 -43 2h-24q-68 0 -155 -19.5t-164 -61.5 t-130 -106.5t-53 -152.5q0 -31 12 -60.5t41 -53t75 -39t113 -15.5q39 0 110 10.5t153 35t168 62.5t155.5 94t113.5 131t44 171q0 76 -31 131.5t-87 90t-134 51t-170 16.5t-195.5 -22.5t-205 -63.5t-195.5 -100.5t-165 -132t-114 -158.5t-43 -180q0 -90 45.5 -165t124 -128.5 t182 -83t220.5 -29.5q135 0 267 34t252 92t221.5 137t176 170t116.5 188.5t42 191.5q0 141 -65.5 243.5t-170 169t-233.5 99.5t-258 33q-131 0 -273.5 -30t-279.5 -86t-262 -139t-218 -189.5t-148.5 -234.5t-55.5 -276z" />
<glyph unicode="&#xb0;" horiz-adv-x="1544" d="M512 977q0 45 21.5 90t55.5 82t77 60.5t86 23.5q12 0 27.5 -3t29.5 -12.5t24.5 -27.5t10.5 -51q0 -47 -19.5 -97.5t-52.5 -91.5t-76 -67.5t-90 -26.5q-53 0 -73.5 37t-20.5 84zM545 930q0 -23 13 -43.5t42 -20.5q41 0 83 28t75 70t53 89t20 86q0 27 -14 49t-43 22 t-67.5 -22.5t-74.5 -61.5t-61.5 -90t-25.5 -106z" />
<glyph unicode="&#xb1;" horiz-adv-x="1056" d="M-164 856q35 -43 86 -72.5t112.5 -49t130 -29t140.5 -9.5q82 0 163 11.5t150.5 33t122 50t78.5 65.5q0 -59 -3 -98t-8 -69t-10 -54.5t-10 -54.5q-10 -68 -40.5 -147t-80 -155.5t-119 -143t-155.5 -105.5q-16 -8 -35.5 -13.5t-42.5 -5.5q-27 0 -52 8.5t-48 18.5 q-23 12 -31 33.5t-14 31.5q-10 27 -23 27q-12 0 -12 -18q0 -10 6 -23q4 -16 25.5 -38.5t56.5 -35.5q29 -10 69 -12t79 -2q100 2 192 45t178 106.5t164 134t152 130.5q22 10 22 30q-23 -12 -69.5 -52t-104 -89t-118 -97t-111.5 -75q51 61 84 144t51 171.5t24.5 175.5t6.5 160 v50q0 25 -2 45l45 59h-29q-35 -43 -100.5 -81t-149.5 -66.5t-178 -45t-188 -16.5q-123 0 -230.5 35t-173.5 115v-23z" />
<glyph unicode="&#xb2;" horiz-adv-x="579" d="M0 469q6 -27 47 -27q39 0 94 27q31 -12 87.5 -23.5t109.5 -11.5q23 0 42 2t36 10q25 16 41 42t16 49q0 18 -12 28l-8 -8q8 -8 8 -18q0 -16 -14.5 -34t-36.5 -30q-14 -10 -44 -15t-67 -5q-35 0 -70.5 5t-64.5 15q25 16 64.5 33.5t86.5 43.5t98.5 62.5t98.5 92.5 q63 75 63 153q0 37 -12 71t-35 58q-20 20 -44.5 27.5t-51.5 7.5t-52.5 -5t-45.5 -15q-39 -20 -64.5 -46t-31.5 -43q0 -20 9 -28t13 -8q10 33 25.5 53t56.5 43q23 12 42 16t40 4q45 0 74 -28q31 -33 30 -74q0 -25 -10 -52.5t-26 -60.5t-50 -73.5t-80.5 -80.5t-102.5 -76 t-118 -58q-49 20 -84 20q-51 0 -57 -43z" />
<glyph unicode="&#xb3;" horiz-adv-x="546" d="M49 518q0 -20 10.5 -36.5t22.5 -28.5q35 -20 102 -21q57 0 121 14q35 14 57.5 25.5t39 24t32 28t35.5 41.5q53 72 53 129q0 35 -14 64.5t-39 52.5q-29 18 -49.5 25.5t-36.5 7.5q-10 0 -27 -4q27 31 87.5 66.5t127.5 70.5l23 12q0 8 -14 8q-8 -4 -11.5 -5t-6.5 -3t-10 -5 t-24 -9q-16 2 -37.5 9t-49 16.5t-58.5 16.5t-64 7q-47 0 -94 -18.5t-92 -67.5v-8q23 23 52.5 38t93.5 15q35 0 85 -7t119 -24q-29 -16 -65.5 -36.5t-73.5 -42t-66.5 -44t-39.5 -41.5q27 27 73 27q63 0 105 -41q31 -27 30 -78q0 -53 -36 -108q-16 -16 -29.5 -31.5t-26 -29 t-28 -24.5t-37.5 -20q-27 -14 -59.5 -21t-61.5 -7q-37 0 -66 14q-31 25 -30 49q0 25 30 62l-20 8q-33 -39 -33 -70z" />
<glyph unicode="&#xb4;" horiz-adv-x="0" d="M573 1034l15 -14l327 446q-4 4 -8 4q-6 0 -12 -8t-15.5 -17t-21.5 -16.5t-33 -7.5z" />
<glyph unicode="&#xb5;" horiz-adv-x="792" d="M-285 -158l17 -6q25 10 64.5 34t79.5 51.5t75 56t49 51.5q16 -18 34.5 -25.5t41.5 -7.5q35 0 70.5 15.5t60.5 25.5q39 23 68.5 44t53 42.5t44 46.5t43.5 53q-10 -27 -10 -71q0 -31 9 -63t31 -52q16 -16 38 -25.5t53 -9.5q27 0 59.5 9t73.5 32q18 14 45.5 35.5t57.5 46.5 t60.5 50.5t59.5 47.5l-14 15q-57 -45 -105.5 -87t-111.5 -85q-68 -47 -121 -48q-45 0 -72 41q-6 18 -6 35q0 29 15.5 62.5t49.5 89.5l424 669h-104l-418 -649q-39 -49 -93 -107.5t-122 -99.5q-27 -16 -57.5 -28.5t-55.5 -12.5q-23 0 -37 12.5t-14 43.5q0 16 10.5 41.5 t25.5 53.5t31.5 53.5t28.5 43.5q57 90 124 190.5t127.5 190.5t107.5 162t67 106h-104l-403 -610q-53 -82 -93.5 -142.5t-77 -111.5t-78.5 -100t-102 -109z" />
<glyph unicode="&#xb6;" horiz-adv-x="1284" d="M6 0q137 0 228.5 29.5t154 81t105.5 119t86 141.5q61 109 104 189.5t79 151t70.5 141.5t83 160t116 204.5t165.5 277.5q39 61 90 113.5t109.5 89.5t118 57.5t112.5 20.5q78 0 131 -50.5t58 -162.5q4 10 11 11t17 11q0 119 -74.5 177.5t-187.5 58.5q-61 0 -127.5 -18.5 t-132.5 -56.5t-127 -96.5t-111 -138.5q-90 -143 -150.5 -246.5t-105.5 -186.5t-81.5 -154.5t-77.5 -150.5t-93.5 -177t-130.5 -231q-18 -31 -43.5 -68t-59.5 -72t-74 -61.5t-85 -38.5q109 190 233 397t238.5 395.5t205.5 341t136 236.5l-118 -14q6 25 6 45q0 47 -29 74.5 t-82 27.5q-41 0 -96 -20.5t-121 -67.5q-72 -49 -134.5 -106.5t-108.5 -117t-72.5 -118.5t-26.5 -117q0 -51 22.5 -95t75.5 -44q27 0 62 13.5t86 41.5q66 35 116 78t85 72q-72 -115 -157 -262.5t-173 -303t-172 -307t-154 -274.5zM344 1087q0 29 9 59t33 67.5t63.5 86 t101.5 113.5q27 31 62.5 60.5t72.5 53t72 39t59 15.5q47 0 47 -63q0 -16 -1 -34t-7 -40q-35 -61 -58.5 -98t-48 -67t-57.5 -62.5t-82 -86.5q-12 -12 -37.5 -32.5t-54.5 -39t-60.5 -31.5t-56.5 -13t-41 16.5t-16 56.5z" />
<glyph unicode="&#xb9;" horiz-adv-x="339" d="M0 446h82q37 72 77 155t78.5 162t73.5 146.5t60 110.5q-6 -4 -20.5 -9t-32 -11.5t-34 -12.5t-24.5 -12q29 0 35 -1t6 -7q0 -8 -4 -15q-25 -47 -63.5 -112.5t-79.5 -135t-82 -137t-72 -121.5z" />
<glyph unicode="&#xba;" horiz-adv-x="688" d="M18 846q45 -29 99.5 -48.5t138.5 -47.5l-82 -119h90l60 102q25 -6 59 -6q43 0 98.5 11.5t124.5 39.5q-4 -20 -4 -30q0 -41 25 -72t78 -31v6q-23 0 -48.5 24.5t-25.5 78.5q0 23 6 49t22 57q-14 -20 -42.5 -37.5t-65.5 -30t-77 -19.5t-77 -7q-33 0 -59 6q25 49 54.5 108.5 t60 119t61.5 114.5t55 96q12 18 13 21l-12 -11q-11 -10 -15 -10q-23 -39 -54.5 -89t-69.5 -106.5t-79 -116.5t-80 -120q-51 8 -85.5 16.5t-57.5 16.5t-37 14t-22 13q29 8 74.5 26.5t96 45t98.5 61.5t81 76q25 25 46 68.5t21 78.5q0 25 -14 39q0 -41 -11 -80t-48 -92 q-39 -39 -88.5 -74t-101.5 -63.5t-105 -49t-101 -28.5z" />
<glyph unicode="&#xbb;" horiz-adv-x="1339" d="M147 29l672 364q-76 25 -162 63t-167.5 89t-151.5 119.5t-115 154.5h-22q37 -68 87 -135.5t116.5 -127.5t149.5 -108.5t183 -76.5l-590 -320v-22zM504 29l672 364q-76 25 -162 63t-168 89t-151.5 119.5t-114.5 154.5h-23q37 -68 87 -135.5t116.5 -127.5t149.5 -108.5 t184 -76.5l-590 -320v-22z" />
<glyph unicode="&#xbc;" horiz-adv-x="1003" d="M-121 260l23 -31q125 70 235.5 176.5t216 215t211.5 204t223 142.5l-22 22q-123 -53 -235.5 -152.5t-221 -209t-215 -211t-215.5 -156.5zM0 628h82q37 72 77 155t78.5 162t73.5 146.5t60 110.5q-6 -4 -20.5 -9t-32 -11.5t-34 -12.5t-24.5 -12q29 0 35 -1t6 -7 q0 -8 -4 -15q-25 -47 -63.5 -112.5t-79.5 -135t-82 -137t-72 -121.5zM249 232q45 -29 99.5 -48.5t138.5 -47.5l-82 -119h90l60 102q25 -6 59 -6q43 0 98.5 11.5t124.5 39.5q-4 -20 -4 -30q0 -41 25 -72t78 -31v6q-23 0 -48.5 24.5t-25.5 78.5q0 23 6 49t22 57 q-14 -20 -42.5 -37.5t-65.5 -30t-77 -19.5t-77 -7q-33 0 -59 6q25 49 54.5 108.5t60 119t61.5 114.5t55 96q12 18 13 21l-12 -11q-11 -10 -15 -10q-23 -39 -54.5 -89t-69.5 -106.5t-79 -116.5t-80 -120q-51 8 -85.5 16.5t-57.5 16.5t-37 14t-22 13q29 8 74.5 26.5t96 45 t98.5 61.5t81 76q25 25 46 68.5t21 78.5q0 25 -14 39q0 -41 -11 -80t-48 -92q-39 -39 -88.5 -74t-101.5 -63.5t-105 -49t-101 -28.5z" />
<glyph unicode="&#xbd;" horiz-adv-x="1003" d="M-121 260l23 -31q125 70 235.5 176.5t216 215t211.5 204t223 142.5l-22 22q-123 -53 -235.5 -152.5t-221 -209t-215 -211t-215.5 -156.5zM0 610h82q37 72 77 155t78.5 162t73.5 146.5t60 110.5q-6 -4 -20.5 -9t-32 -11.5t-34 -12.5t-24.5 -12q29 0 35 -1t6 -7 q0 -8 -4 -15q-25 -47 -63.5 -112.5t-79.5 -135t-82 -137t-72 -121.5zM287 80q6 -27 47 -27q39 0 94 27q31 -12 87.5 -23.5t109.5 -11.5q23 0 42 2t36 10q25 16 41 42t16 49q0 18 -12 28l-8 -8q8 -8 8 -18q0 -16 -14.5 -34t-36.5 -30q-14 -10 -44 -15t-67 -5q-35 0 -70.5 5 t-64.5 15q25 16 64.5 33.5t86.5 43.5t98.5 62.5t98.5 92.5q63 75 63 153q0 37 -12 71t-35 58q-20 20 -44.5 27.5t-51.5 7.5t-52.5 -5t-45.5 -15q-39 -20 -64.5 -46t-31.5 -43q0 -20 9 -28t13 -8q10 33 25.5 53t56.5 43q23 12 42 16t40 4q45 0 74 -28q31 -33 30 -74 q0 -25 -10 -52.5t-26 -60.5t-50 -73.5t-80.5 -80.5t-102.5 -76t-118 -58q-49 20 -84 20q-51 0 -57 -43z" />
<glyph unicode="&#xbe;" horiz-adv-x="1003" d="M-121 260l23 -31q125 70 235.5 176.5t216 215t211.5 204t223 142.5l-22 22q-123 -53 -235.5 -152.5t-221 -209t-215 -211t-215.5 -156.5zM39 860q0 -20 10.5 -36.5t22.5 -28.5q35 -20 102 -21q57 0 121 14q35 14 57.5 25.5t39 24t32 28t35.5 41.5q53 72 53 129 q0 35 -14 64.5t-39 52.5q-29 18 -49.5 25.5t-36.5 7.5q-10 0 -27 -4q27 31 87.5 66.5t127.5 70.5l23 12q0 8 -14 8q-8 -4 -11.5 -5t-6.5 -3t-10 -5t-24 -9q-16 2 -37.5 9t-49 16.5t-58.5 16.5t-64 7q-47 0 -94 -18.5t-92 -67.5v-8q23 23 52.5 38t93.5 15q35 0 85 -7t119 -24 q-29 -16 -65.5 -36.5t-73.5 -42t-66.5 -44t-39.5 -41.5q27 27 73 27q63 0 105 -41q31 -27 30 -78q0 -53 -36 -108q-16 -16 -29.5 -31.5t-26 -29t-28 -24.5t-37.5 -20q-27 -14 -59.5 -21t-61.5 -7q-37 0 -66 14q-31 25 -30 49q0 25 30 62l-20 8q-33 -39 -33 -70zM243 223 q45 -29 99.5 -48.5t138.5 -47.5l-82 -119h90l60 102q25 -6 59 -6q43 0 98.5 11.5t124.5 39.5q-4 -20 -4 -30q0 -41 25 -72t78 -31v6q-23 0 -48.5 24.5t-25.5 78.5q0 23 6 49t22 57q-14 -20 -42.5 -37.5t-65.5 -30t-77 -19.5t-77 -7q-33 0 -59 6q25 49 54.5 108.5t60 119 t61.5 114.5t55 96q12 18 13 21l-12 -11q-11 -10 -15 -10q-23 -39 -54.5 -89t-69.5 -106.5t-79 -116.5t-80 -120q-51 8 -85.5 16.5t-57.5 16.5t-37 14t-22 13q29 8 74.5 26.5t96 45t98.5 61.5t81 76q25 25 46 68.5t21 78.5q0 25 -14 39q0 -41 -11 -80t-48 -92 q-39 -39 -88.5 -74t-101.5 -63.5t-105 -49t-101 -28.5z" />
<glyph unicode="&#xbf;" horiz-adv-x="1185" d="M195 276q0 -43 21.5 -88t56 -79.5t80.5 -57t93 -22.5q90 0 174.5 50t124.5 130l-67 8q-16 -57 -68.5 -87t-111.5 -30q-37 0 -73 14.5t-63.5 39t-45 58.5t-17.5 71q0 53 55.5 119.5t188.5 164.5q78 39 149.5 87t136 119t122 170t106.5 241l-51 16q-35 -152 -129.5 -291 t-243.5 -223q-88 -49 -168 -96t-139.5 -95.5t-95 -100.5t-35.5 -111v-7zM1067 1397q0 -51 39 -51q23 0 47 18q41 29 57.5 67.5t16.5 67.5q0 66 -41 66q-18 0 -41 -15q-33 -29 -48.5 -55.5t-25.5 -71.5q-2 -8 -3 -14t-1 -12z" />
<glyph unicode="&#xc0;" horiz-adv-x="3473" d="M-25 743q0 -252 106.5 -432t280 -294.5t390.5 -168t438 -53.5q141 0 279.5 17.5t264.5 46t234.5 66.5t190.5 81q115 59 226.5 136t216.5 173.5t200.5 216t175.5 265.5q37 0 61.5 1t48 4t51 7t70.5 10q-51 -123 -94 -239.5t-94 -217t-120 -181.5t-169 -130 q-45 10 -92 23.5t-86 13.5q-47 0 -77 -15.5t-30 -33.5q0 -16 25 -32.5t82 -22.5q35 -4 69.5 -5.5t67.5 -1.5q162 0 290 35t220 84t150.5 104.5t80.5 96.5h-8q-43 -61 -108.5 -111.5t-142 -86.5t-155.5 -54t-147 -18q-45 0 -86 10q115 53 196 134t143.5 183.5t111.5 225 t100 260.5q147 27 280.5 110.5t234 202.5t158.5 260t58 281q0 86 -22.5 164.5t-75.5 150.5q68 68 135.5 121t147.5 91t176 59.5t219 27.5q150 6 231.5 43t81.5 96t-79.5 136t-260.5 141q-229 78 -439 106.5t-407 28.5q-193 0 -392 -41t-386.5 -120t-352.5 -192.5t-289 -260 t-195.5 -321.5t-71.5 -378q0 -139 44 -265t138 -226.5t237.5 -169t344.5 -88.5q-55 -102 -114.5 -197.5t-139.5 -188t-190.5 -181.5t-270.5 -179q-145 -82 -360 -127t-455 -45q-154 0 -309.5 19.5t-299 61.5t-269.5 108.5t-219 162t-146 219t-53 281.5q0 193 88 344.5 t232 256t329.5 158.5t378.5 54q98 0 205.5 -20.5t211 -60.5t195.5 -99t162.5 -140t111.5 -181.5t41 -221.5q0 -156 -56 -273.5t-154.5 -197.5t-232.5 -121t-288 -41q-123 0 -251 33t-234.5 99.5t-174 167t-67.5 235.5q0 100 44 177t115 128t162 78t183 27q88 0 176 -23 t158 -68t114 -112.5t44 -159.5t-39 -143.5t-103.5 -79t-148.5 -36.5t-172 -15q-10 0 -21.5 -1t-21.5 -3q49 -6 104 -7q80 0 160 11.5t143.5 43t103.5 90t40 154.5q0 92 -46.5 164t-121 122t-170 77t-193.5 27q-90 0 -186 -31t-175 -89.5t-130.5 -144.5t-51.5 -196 q0 -145 73 -252t184.5 -176.5t246.5 -103.5t260 -34q158 0 301.5 49.5t252 139.5t173 220t64.5 292q0 188 -89 334.5t-230.5 246t-314.5 150.5t-341 51q-217 0 -414.5 -61.5t-348 -176t-241 -279.5t-90.5 -370zM2161 1516q0 213 76.5 390t207.5 319t307.5 250t375 178.5 t410.5 106.5t415 36q164 0 333.5 -25t344.5 -90q150 -57 216 -116.5t66 -106.5q0 -55 -86 -87t-239 -40q-113 -6 -207.5 -28t-177 -54.5t-158.5 -74.5t-152 -89q-111 100 -246 147t-276 47q-123 0 -246 -39.5t-220 -112.5t-158.5 -176.5t-61.5 -230.5q0 -61 20.5 -117.5 t57.5 -98.5t89 -66.5t116 -24.5q68 0 131 27.5t112 73t79 104.5t30 123q0 43 -16.5 82t-45 69.5t-68.5 48t-87 17.5q-53 0 -100.5 -22.5t-69.5 -73.5q27 41 67.5 60.5t85.5 19.5q88 0 138.5 -55.5t50.5 -145.5q0 -53 -22.5 -105.5t-62.5 -94.5t-97.5 -68.5t-124.5 -26.5 q-47 0 -89.5 18.5t-76 53t-53 82t-19.5 106.5q0 123 59.5 221t153.5 166t209 103.5t225 35.5q135 0 258 -46t207 -138q-59 -41 -138 -118t-168 -175t-182.5 -215t-180.5 -235.5t-162.5 -236.5t-128.5 -220q-152 0 -283 55t-228.5 148.5t-153.5 214t-56 250.5zM3009 856 q39 70 96 167t127.5 206.5t150.5 224.5t162 221.5t163 197.5t157 152q4 -6 15 -14t21 -24q-100 -102 -200.5 -241.5t-190.5 -290t-164.5 -301t-121.5 -275.5q-47 -8 -80 -13.5t-56.5 -7.5t-42.5 -2h-36zM3351 893q49 131 110.5 282.5t133 298t151.5 276.5t170 216 q12 -12 25.5 -35.5t24.5 -53.5t18.5 -63.5t7.5 -64.5q2 -12 2 -27v-24q0 -135 -50.5 -269.5t-137.5 -246t-203.5 -189.5t-251.5 -100zM3924 2062q16 16 45 32.5t45 27.5q35 20 43 20q4 0 4 -2q0 -8 -33 -33q-16 -12 -31.5 -25.5t-50.5 -41.5zM4268 3410l268 -438l14 14 l-192 373q-47 14 -59.5 35.5t-20.5 21.5q-4 0 -10 -6z" />
<glyph unicode="&#xc1;" horiz-adv-x="3473" d="M-25 743q0 -252 106.5 -432t280 -294.5t390.5 -168t438 -53.5q141 0 279.5 17.5t264.5 46t234.5 66.5t190.5 81q115 59 226.5 136t216.5 173.5t200.5 216t175.5 265.5q37 0 61.5 1t48 4t51 7t70.5 10q-51 -123 -94 -239.5t-94 -217t-120 -181.5t-169 -130 q-45 10 -92 23.5t-86 13.5q-47 0 -77 -15.5t-30 -33.5q0 -16 25 -32.5t82 -22.5q35 -4 69.5 -5.5t67.5 -1.5q162 0 290 35t220 84t150.5 104.5t80.5 96.5h-8q-43 -61 -108.5 -111.5t-142 -86.5t-155.5 -54t-147 -18q-45 0 -86 10q115 53 196 134t143.5 183.5t111.5 225 t100 260.5q147 27 280.5 110.5t234 202.5t158.5 260t58 281q0 86 -22.5 164.5t-75.5 150.5q68 68 135.5 121t147.5 91t176 59.5t219 27.5q150 6 231.5 43t81.5 96t-79.5 136t-260.5 141q-229 78 -439 106.5t-407 28.5q-193 0 -392 -41t-386.5 -120t-352.5 -192.5t-289 -260 t-195.5 -321.5t-71.5 -378q0 -139 44 -265t138 -226.5t237.5 -169t344.5 -88.5q-55 -102 -114.5 -197.5t-139.5 -188t-190.5 -181.5t-270.5 -179q-145 -82 -360 -127t-455 -45q-154 0 -309.5 19.5t-299 61.5t-269.5 108.5t-219 162t-146 219t-53 281.5q0 193 88 344.5 t232 256t329.5 158.5t378.5 54q98 0 205.5 -20.5t211 -60.5t195.5 -99t162.5 -140t111.5 -181.5t41 -221.5q0 -156 -56 -273.5t-154.5 -197.5t-232.5 -121t-288 -41q-123 0 -251 33t-234.5 99.5t-174 167t-67.5 235.5q0 100 44 177t115 128t162 78t183 27q88 0 176 -23 t158 -68t114 -112.5t44 -159.5t-39 -143.5t-103.5 -79t-148.5 -36.5t-172 -15q-10 0 -21.5 -1t-21.5 -3q49 -6 104 -7q80 0 160 11.5t143.5 43t103.5 90t40 154.5q0 92 -46.5 164t-121 122t-170 77t-193.5 27q-90 0 -186 -31t-175 -89.5t-130.5 -144.5t-51.5 -196 q0 -145 73 -252t184.5 -176.5t246.5 -103.5t260 -34q158 0 301.5 49.5t252 139.5t173 220t64.5 292q0 188 -89 334.5t-230.5 246t-314.5 150.5t-341 51q-217 0 -414.5 -61.5t-348 -176t-241 -279.5t-90.5 -370zM2161 1516q0 213 76.5 390t207.5 319t307.5 250t375 178.5 t410.5 106.5t415 36q164 0 333.5 -25t344.5 -90q150 -57 216 -116.5t66 -106.5q0 -55 -86 -87t-239 -40q-113 -6 -207.5 -28t-177 -54.5t-158.5 -74.5t-152 -89q-111 100 -246 147t-276 47q-123 0 -246 -39.5t-220 -112.5t-158.5 -176.5t-61.5 -230.5q0 -61 20.5 -117.5 t57.5 -98.5t89 -66.5t116 -24.5q68 0 131 27.5t112 73t79 104.5t30 123q0 43 -16.5 82t-45 69.5t-68.5 48t-87 17.5q-53 0 -100.5 -22.5t-69.5 -73.5q27 41 67.5 60.5t85.5 19.5q88 0 138.5 -55.5t50.5 -145.5q0 -53 -22.5 -105.5t-62.5 -94.5t-97.5 -68.5t-124.5 -26.5 q-47 0 -89.5 18.5t-76 53t-53 82t-19.5 106.5q0 123 59.5 221t153.5 166t209 103.5t225 35.5q135 0 258 -46t207 -138q-59 -41 -138 -118t-168 -175t-182.5 -215t-180.5 -235.5t-162.5 -236.5t-128.5 -220q-152 0 -283 55t-228.5 148.5t-153.5 214t-56 250.5zM3009 856 q39 70 96 167t127.5 206.5t150.5 224.5t162 221.5t163 197.5t157 152q4 -6 15 -14t21 -24q-100 -102 -200.5 -241.5t-190.5 -290t-164.5 -301t-121.5 -275.5q-47 -8 -80 -13.5t-56.5 -7.5t-42.5 -2h-36zM3351 893q49 131 110.5 282.5t133 298t151.5 276.5t170 216 q12 -12 25.5 -35.5t24.5 -53.5t18.5 -63.5t7.5 -64.5q2 -12 2 -27v-24q0 -135 -50.5 -269.5t-137.5 -246t-203.5 -189.5t-251.5 -100zM3924 2062q16 16 45 32.5t45 27.5q35 20 43 20q4 0 4 -2q0 -8 -33 -33q-16 -12 -31.5 -25.5t-50.5 -41.5zM4694 2992l15 -14l327 446 q-4 4 -8 4q-6 0 -12 -8t-15.5 -17t-21.5 -16.5t-33 -7.5z" />
<glyph unicode="&#xc2;" horiz-adv-x="3473" d="M-25 743q0 -252 106.5 -432t280 -294.5t390.5 -168t438 -53.5q141 0 279.5 17.5t264.5 46t234.5 66.5t190.5 81q115 59 226.5 136t216.5 173.5t200.5 216t175.5 265.5q37 0 61.5 1t48 4t51 7t70.5 10q-51 -123 -94 -239.5t-94 -217t-120 -181.5t-169 -130 q-45 10 -92 23.5t-86 13.5q-47 0 -77 -15.5t-30 -33.5q0 -16 25 -32.5t82 -22.5q35 -4 69.5 -5.5t67.5 -1.5q162 0 290 35t220 84t150.5 104.5t80.5 96.5h-8q-43 -61 -108.5 -111.5t-142 -86.5t-155.5 -54t-147 -18q-45 0 -86 10q115 53 196 134t143.5 183.5t111.5 225 t100 260.5q147 27 280.5 110.5t234 202.5t158.5 260t58 281q0 86 -22.5 164.5t-75.5 150.5q68 68 135.5 121t147.5 91t176 59.5t219 27.5q150 6 231.5 43t81.5 96t-79.5 136t-260.5 141q-229 78 -439 106.5t-407 28.5q-193 0 -392 -41t-386.5 -120t-352.5 -192.5t-289 -260 t-195.5 -321.5t-71.5 -378q0 -139 44 -265t138 -226.5t237.5 -169t344.5 -88.5q-55 -102 -114.5 -197.5t-139.5 -188t-190.5 -181.5t-270.5 -179q-145 -82 -360 -127t-455 -45q-154 0 -309.5 19.5t-299 61.5t-269.5 108.5t-219 162t-146 219t-53 281.5q0 193 88 344.5 t232 256t329.5 158.5t378.5 54q98 0 205.5 -20.5t211 -60.5t195.5 -99t162.5 -140t111.5 -181.5t41 -221.5q0 -156 -56 -273.5t-154.5 -197.5t-232.5 -121t-288 -41q-123 0 -251 33t-234.5 99.5t-174 167t-67.5 235.5q0 100 44 177t115 128t162 78t183 27q88 0 176 -23 t158 -68t114 -112.5t44 -159.5t-39 -143.5t-103.5 -79t-148.5 -36.5t-172 -15q-10 0 -21.5 -1t-21.5 -3q49 -6 104 -7q80 0 160 11.5t143.5 43t103.5 90t40 154.5q0 92 -46.5 164t-121 122t-170 77t-193.5 27q-90 0 -186 -31t-175 -89.5t-130.5 -144.5t-51.5 -196 q0 -145 73 -252t184.5 -176.5t246.5 -103.5t260 -34q158 0 301.5 49.5t252 139.5t173 220t64.5 292q0 188 -89 334.5t-230.5 246t-314.5 150.5t-341 51q-217 0 -414.5 -61.5t-348 -176t-241 -279.5t-90.5 -370zM2161 1516q0 213 76.5 390t207.5 319t307.5 250t375 178.5 t410.5 106.5t415 36q164 0 333.5 -25t344.5 -90q150 -57 216 -116.5t66 -106.5q0 -55 -86 -87t-239 -40q-113 -6 -207.5 -28t-177 -54.5t-158.5 -74.5t-152 -89q-111 100 -246 147t-276 47q-123 0 -246 -39.5t-220 -112.5t-158.5 -176.5t-61.5 -230.5q0 -61 20.5 -117.5 t57.5 -98.5t89 -66.5t116 -24.5q68 0 131 27.5t112 73t79 104.5t30 123q0 43 -16.5 82t-45 69.5t-68.5 48t-87 17.5q-53 0 -100.5 -22.5t-69.5 -73.5q27 41 67.5 60.5t85.5 19.5q88 0 138.5 -55.5t50.5 -145.5q0 -53 -22.5 -105.5t-62.5 -94.5t-97.5 -68.5t-124.5 -26.5 q-47 0 -89.5 18.5t-76 53t-53 82t-19.5 106.5q0 123 59.5 221t153.5 166t209 103.5t225 35.5q135 0 258 -46t207 -138q-59 -41 -138 -118t-168 -175t-182.5 -215t-180.5 -235.5t-162.5 -236.5t-128.5 -220q-152 0 -283 55t-228.5 148.5t-153.5 214t-56 250.5zM3009 856 q39 70 96 167t127.5 206.5t150.5 224.5t162 221.5t163 197.5t157 152q4 -6 15 -14t21 -24q-100 -102 -200.5 -241.5t-190.5 -290t-164.5 -301t-121.5 -275.5q-47 -8 -80 -13.5t-56.5 -7.5t-42.5 -2h-36zM3351 893q49 131 110.5 282.5t133 298t151.5 276.5t170 216 q12 -12 25.5 -35.5t24.5 -53.5t18.5 -63.5t7.5 -64.5q2 -12 2 -27v-24q0 -135 -50.5 -269.5t-137.5 -246t-203.5 -189.5t-251.5 -100zM3924 2062q16 16 45 32.5t45 27.5q35 20 43 20q4 0 4 -2q0 -8 -33 -33q-16 -12 -31.5 -25.5t-50.5 -41.5zM4296 2986h37q63 16 132 36.5 t133.5 49.5t123 67.5t103.5 92.5q-18 -35 -19 -78q0 -29 9.5 -58.5t31.5 -58.5h9q-8 27 -13.5 50.5t-5.5 49.5q0 51 33 114t127 153l-17 6q-84 -86 -164.5 -153.5t-163.5 -118t-170 -88.5t-186 -64z" />
<glyph unicode="&#xc3;" horiz-adv-x="3473" d="M-25 743q0 -252 106.5 -432t280 -294.5t390.5 -168t438 -53.5q141 0 279.5 17.5t264.5 46t234.5 66.5t190.5 81q115 59 226.5 136t216.5 173.5t200.5 216t175.5 265.5q37 0 61.5 1t48 4t51 7t70.5 10q-51 -123 -94 -239.5t-94 -217t-120 -181.5t-169 -130 q-45 10 -92 23.5t-86 13.5q-47 0 -77 -15.5t-30 -33.5q0 -16 25 -32.5t82 -22.5q35 -4 69.5 -5.5t67.5 -1.5q162 0 290 35t220 84t150.5 104.5t80.5 96.5h-8q-43 -61 -108.5 -111.5t-142 -86.5t-155.5 -54t-147 -18q-45 0 -86 10q115 53 196 134t143.5 183.5t111.5 225 t100 260.5q147 27 280.5 110.5t234 202.5t158.5 260t58 281q0 86 -22.5 164.5t-75.5 150.5q68 68 135.5 121t147.5 91t176 59.5t219 27.5q150 6 231.5 43t81.5 96t-79.5 136t-260.5 141q-229 78 -439 106.5t-407 28.5q-193 0 -392 -41t-386.5 -120t-352.5 -192.5t-289 -260 t-195.5 -321.5t-71.5 -378q0 -139 44 -265t138 -226.5t237.5 -169t344.5 -88.5q-55 -102 -114.5 -197.5t-139.5 -188t-190.5 -181.5t-270.5 -179q-145 -82 -360 -127t-455 -45q-154 0 -309.5 19.5t-299 61.5t-269.5 108.5t-219 162t-146 219t-53 281.5q0 193 88 344.5 t232 256t329.5 158.5t378.5 54q98 0 205.5 -20.5t211 -60.5t195.5 -99t162.5 -140t111.5 -181.5t41 -221.5q0 -156 -56 -273.5t-154.5 -197.5t-232.5 -121t-288 -41q-123 0 -251 33t-234.5 99.5t-174 167t-67.5 235.5q0 100 44 177t115 128t162 78t183 27q88 0 176 -23 t158 -68t114 -112.5t44 -159.5t-39 -143.5t-103.5 -79t-148.5 -36.5t-172 -15q-10 0 -21.5 -1t-21.5 -3q49 -6 104 -7q80 0 160 11.5t143.5 43t103.5 90t40 154.5q0 92 -46.5 164t-121 122t-170 77t-193.5 27q-90 0 -186 -31t-175 -89.5t-130.5 -144.5t-51.5 -196 q0 -145 73 -252t184.5 -176.5t246.5 -103.5t260 -34q158 0 301.5 49.5t252 139.5t173 220t64.5 292q0 188 -89 334.5t-230.5 246t-314.5 150.5t-341 51q-217 0 -414.5 -61.5t-348 -176t-241 -279.5t-90.5 -370zM2161 1516q0 213 76.5 390t207.5 319t307.5 250t375 178.5 t410.5 106.5t415 36q164 0 333.5 -25t344.5 -90q150 -57 216 -116.5t66 -106.5q0 -55 -86 -87t-239 -40q-113 -6 -207.5 -28t-177 -54.5t-158.5 -74.5t-152 -89q-111 100 -246 147t-276 47q-123 0 -246 -39.5t-220 -112.5t-158.5 -176.5t-61.5 -230.5q0 -61 20.5 -117.5 t57.5 -98.5t89 -66.5t116 -24.5q68 0 131 27.5t112 73t79 104.5t30 123q0 43 -16.5 82t-45 69.5t-68.5 48t-87 17.5q-53 0 -100.5 -22.5t-69.5 -73.5q27 41 67.5 60.5t85.5 19.5q88 0 138.5 -55.5t50.5 -145.5q0 -53 -22.5 -105.5t-62.5 -94.5t-97.5 -68.5t-124.5 -26.5 q-47 0 -89.5 18.5t-76 53t-53 82t-19.5 106.5q0 123 59.5 221t153.5 166t209 103.5t225 35.5q135 0 258 -46t207 -138q-59 -41 -138 -118t-168 -175t-182.5 -215t-180.5 -235.5t-162.5 -236.5t-128.5 -220q-152 0 -283 55t-228.5 148.5t-153.5 214t-56 250.5zM3009 856 q39 70 96 167t127.5 206.5t150.5 224.5t162 221.5t163 197.5t157 152q4 -6 15 -14t21 -24q-100 -102 -200.5 -241.5t-190.5 -290t-164.5 -301t-121.5 -275.5q-47 -8 -80 -13.5t-56.5 -7.5t-42.5 -2h-36zM3351 893q49 131 110.5 282.5t133 298t151.5 276.5t170 216 q12 -12 25.5 -35.5t24.5 -53.5t18.5 -63.5t7.5 -64.5q2 -12 2 -27v-24q0 -135 -50.5 -269.5t-137.5 -246t-203.5 -189.5t-251.5 -100zM3552 3088q0 -37 39 -55q37 -20 75.5 -28.5t79.5 -8.5q66 0 129.5 23.5t116.5 64.5q49 -10 104.5 -24.5t117 -28.5t128 -24.5t139.5 -10.5 q70 0 142.5 11.5t150.5 39.5q96 45 184.5 135t129.5 207h-15q-16 -55 -50 -102t-76 -85t-91 -65.5t-96 -44.5q-98 -23 -170 -34t-141 -11q-88 0 -185.5 18.5t-240.5 55.5q12 31 12 55q0 41 -33 62.5t-80 21.5q-57 0 -108 -26h8q39 12 76 12q45 0 76.5 -18.5t31.5 -53.5 q0 -23 -14 -45q-23 8 -54.5 16.5t-68.5 15.5t-76 11t-75 4q-31 0 -57.5 -3t-47.5 -13q-33 -14 -47 -33.5t-14 -38.5zM3611 3084q0 20 31 37q37 6 78 6q53 0 111 -9.5t124 -25.5q-53 -39 -106.5 -53t-100.5 -14q-35 0 -63.5 6t-48.5 16q-25 20 -25 37zM3924 2062 q16 16 45 32.5t45 27.5q35 20 43 20q4 0 4 -2q0 -8 -33 -33q-16 -12 -31.5 -25.5t-50.5 -41.5z" />
<glyph unicode="&#xc4;" horiz-adv-x="3473" d="M-25 743q0 -252 106.5 -432t280 -294.5t390.5 -168t438 -53.5q141 0 279.5 17.5t264.5 46t234.5 66.5t190.5 81q115 59 226.5 136t216.5 173.5t200.5 216t175.5 265.5q37 0 61.5 1t48 4t51 7t70.5 10q-51 -123 -94 -239.5t-94 -217t-120 -181.5t-169 -130 q-45 10 -92 23.5t-86 13.5q-47 0 -77 -15.5t-30 -33.5q0 -16 25 -32.5t82 -22.5q35 -4 69.5 -5.5t67.5 -1.5q162 0 290 35t220 84t150.5 104.5t80.5 96.5h-8q-43 -61 -108.5 -111.5t-142 -86.5t-155.5 -54t-147 -18q-45 0 -86 10q115 53 196 134t143.5 183.5t111.5 225 t100 260.5q147 27 280.5 110.5t234 202.5t158.5 260t58 281q0 86 -22.5 164.5t-75.5 150.5q68 68 135.5 121t147.5 91t176 59.5t219 27.5q150 6 231.5 43t81.5 96t-79.5 136t-260.5 141q-229 78 -439 106.5t-407 28.5q-193 0 -392 -41t-386.5 -120t-352.5 -192.5t-289 -260 t-195.5 -321.5t-71.5 -378q0 -139 44 -265t138 -226.5t237.5 -169t344.5 -88.5q-55 -102 -114.5 -197.5t-139.5 -188t-190.5 -181.5t-270.5 -179q-145 -82 -360 -127t-455 -45q-154 0 -309.5 19.5t-299 61.5t-269.5 108.5t-219 162t-146 219t-53 281.5q0 193 88 344.5 t232 256t329.5 158.5t378.5 54q98 0 205.5 -20.5t211 -60.5t195.5 -99t162.5 -140t111.5 -181.5t41 -221.5q0 -156 -56 -273.5t-154.5 -197.5t-232.5 -121t-288 -41q-123 0 -251 33t-234.5 99.5t-174 167t-67.5 235.5q0 100 44 177t115 128t162 78t183 27q88 0 176 -23 t158 -68t114 -112.5t44 -159.5t-39 -143.5t-103.5 -79t-148.5 -36.5t-172 -15q-10 0 -21.5 -1t-21.5 -3q49 -6 104 -7q80 0 160 11.5t143.5 43t103.5 90t40 154.5q0 92 -46.5 164t-121 122t-170 77t-193.5 27q-90 0 -186 -31t-175 -89.5t-130.5 -144.5t-51.5 -196 q0 -145 73 -252t184.5 -176.5t246.5 -103.5t260 -34q158 0 301.5 49.5t252 139.5t173 220t64.5 292q0 188 -89 334.5t-230.5 246t-314.5 150.5t-341 51q-217 0 -414.5 -61.5t-348 -176t-241 -279.5t-90.5 -370zM2161 1516q0 213 76.5 390t207.5 319t307.5 250t375 178.5 t410.5 106.5t415 36q164 0 333.5 -25t344.5 -90q150 -57 216 -116.5t66 -106.5q0 -55 -86 -87t-239 -40q-113 -6 -207.5 -28t-177 -54.5t-158.5 -74.5t-152 -89q-111 100 -246 147t-276 47q-123 0 -246 -39.5t-220 -112.5t-158.5 -176.5t-61.5 -230.5q0 -61 20.5 -117.5 t57.5 -98.5t89 -66.5t116 -24.5q68 0 131 27.5t112 73t79 104.5t30 123q0 43 -16.5 82t-45 69.5t-68.5 48t-87 17.5q-53 0 -100.5 -22.5t-69.5 -73.5q27 41 67.5 60.5t85.5 19.5q88 0 138.5 -55.5t50.5 -145.5q0 -53 -22.5 -105.5t-62.5 -94.5t-97.5 -68.5t-124.5 -26.5 q-47 0 -89.5 18.5t-76 53t-53 82t-19.5 106.5q0 123 59.5 221t153.5 166t209 103.5t225 35.5q135 0 258 -46t207 -138q-59 -41 -138 -118t-168 -175t-182.5 -215t-180.5 -235.5t-162.5 -236.5t-128.5 -220q-152 0 -283 55t-228.5 148.5t-153.5 214t-56 250.5zM3009 856 q39 70 96 167t127.5 206.5t150.5 224.5t162 221.5t163 197.5t157 152q4 -6 15 -14t21 -24q-100 -102 -200.5 -241.5t-190.5 -290t-164.5 -301t-121.5 -275.5q-47 -8 -80 -13.5t-56.5 -7.5t-42.5 -2h-36zM3351 893q49 131 110.5 282.5t133 298t151.5 276.5t170 216 q12 -12 25.5 -35.5t24.5 -53.5t18.5 -63.5t7.5 -64.5q2 -12 2 -27v-24q0 -135 -50.5 -269.5t-137.5 -246t-203.5 -189.5t-251.5 -100zM3924 2062q16 16 45 32.5t45 27.5q35 20 43 20q4 0 4 -2q0 -8 -33 -33q-16 -12 -31.5 -25.5t-50.5 -41.5zM4399 3033q0 -49 41 -49 q14 0 37 12q45 29 76.5 68t42.5 68q8 16 8 34q0 35 -35 35q-18 0 -39 -10q-106 -57 -127 -133q-4 -16 -4 -25zM4671 3058q0 -41 7.5 -56.5t27.5 -15.5q4 0 25 4q45 29 76.5 62t42.5 71q8 19 8 37t-10.5 26.5t-26.5 8.5q-25 0 -45 -12q-57 -33 -79 -68t-26 -57z" />
<glyph unicode="&#xc5;" horiz-adv-x="3473" d="M-25 743q0 -252 106.5 -432t280 -294.5t390.5 -168t438 -53.5q141 0 279.5 17.5t264.5 46t234.5 66.5t190.5 81q115 59 226.5 136t216.5 173.5t200.5 216t175.5 265.5q37 0 61.5 1t48 4t51 7t70.5 10q-51 -123 -94 -239.5t-94 -217t-120 -181.5t-169 -130 q-45 10 -92 23.5t-86 13.5q-47 0 -77 -15.5t-30 -33.5q0 -16 25 -32.5t82 -22.5q35 -4 69.5 -5.5t67.5 -1.5q162 0 290 35t220 84t150.5 104.5t80.5 96.5h-8q-43 -61 -108.5 -111.5t-142 -86.5t-155.5 -54t-147 -18q-45 0 -86 10q115 53 196 134t143.5 183.5t111.5 225 t100 260.5q147 27 280.5 110.5t234 202.5t158.5 260t58 281q0 86 -22.5 164.5t-75.5 150.5q68 68 135.5 121t147.5 91t176 59.5t219 27.5q150 6 231.5 43t81.5 96t-79.5 136t-260.5 141q-229 78 -439 106.5t-407 28.5q-193 0 -392 -41t-386.5 -120t-352.5 -192.5t-289 -260 t-195.5 -321.5t-71.5 -378q0 -139 44 -265t138 -226.5t237.5 -169t344.5 -88.5q-55 -102 -114.5 -197.5t-139.5 -188t-190.5 -181.5t-270.5 -179q-145 -82 -360 -127t-455 -45q-154 0 -309.5 19.5t-299 61.5t-269.5 108.5t-219 162t-146 219t-53 281.5q0 193 88 344.5 t232 256t329.5 158.5t378.5 54q98 0 205.5 -20.5t211 -60.5t195.5 -99t162.5 -140t111.5 -181.5t41 -221.5q0 -156 -56 -273.5t-154.5 -197.5t-232.5 -121t-288 -41q-123 0 -251 33t-234.5 99.5t-174 167t-67.5 235.5q0 100 44 177t115 128t162 78t183 27q88 0 176 -23 t158 -68t114 -112.5t44 -159.5t-39 -143.5t-103.5 -79t-148.5 -36.5t-172 -15q-10 0 -21.5 -1t-21.5 -3q49 -6 104 -7q80 0 160 11.5t143.5 43t103.5 90t40 154.5q0 92 -46.5 164t-121 122t-170 77t-193.5 27q-90 0 -186 -31t-175 -89.5t-130.5 -144.5t-51.5 -196 q0 -145 73 -252t184.5 -176.5t246.5 -103.5t260 -34q158 0 301.5 49.5t252 139.5t173 220t64.5 292q0 188 -89 334.5t-230.5 246t-314.5 150.5t-341 51q-217 0 -414.5 -61.5t-348 -176t-241 -279.5t-90.5 -370zM2161 1516q0 213 76.5 390t207.5 319t307.5 250t375 178.5 t410.5 106.5t415 36q164 0 333.5 -25t344.5 -90q150 -57 216 -116.5t66 -106.5q0 -55 -86 -87t-239 -40q-113 -6 -207.5 -28t-177 -54.5t-158.5 -74.5t-152 -89q-111 100 -246 147t-276 47q-123 0 -246 -39.5t-220 -112.5t-158.5 -176.5t-61.5 -230.5q0 -61 20.5 -117.5 t57.5 -98.5t89 -66.5t116 -24.5q68 0 131 27.5t112 73t79 104.5t30 123q0 43 -16.5 82t-45 69.5t-68.5 48t-87 17.5q-53 0 -100.5 -22.5t-69.5 -73.5q27 41 67.5 60.5t85.5 19.5q88 0 138.5 -55.5t50.5 -145.5q0 -53 -22.5 -105.5t-62.5 -94.5t-97.5 -68.5t-124.5 -26.5 q-47 0 -89.5 18.5t-76 53t-53 82t-19.5 106.5q0 123 59.5 221t153.5 166t209 103.5t225 35.5q135 0 258 -46t207 -138q-59 -41 -138 -118t-168 -175t-182.5 -215t-180.5 -235.5t-162.5 -236.5t-128.5 -220q-152 0 -283 55t-228.5 148.5t-153.5 214t-56 250.5zM3009 856 q39 70 96 167t127.5 206.5t150.5 224.5t162 221.5t163 197.5t157 152q4 -6 15 -14t21 -24q-100 -102 -200.5 -241.5t-190.5 -290t-164.5 -301t-121.5 -275.5q-47 -8 -80 -13.5t-56.5 -7.5t-42.5 -2h-36zM3351 893q49 131 110.5 282.5t133 298t151.5 276.5t170 216 q12 -12 25.5 -35.5t24.5 -53.5t18.5 -63.5t7.5 -64.5q2 -12 2 -27v-24q0 -135 -50.5 -269.5t-137.5 -246t-203.5 -189.5t-251.5 -100zM3924 2062q16 16 45 32.5t45 27.5q35 20 43 20q4 0 4 -2q0 -8 -33 -33q-16 -12 -31.5 -25.5t-50.5 -41.5zM4469 3124q0 55 26.5 112.5 t69.5 103.5t96.5 74.5t108.5 28.5q14 0 33.5 -3t38 -14.5t31 -35t12.5 -64.5q0 -59 -24.5 -121.5t-65.5 -114.5t-95.5 -85t-111.5 -33q-66 0 -92.5 46t-26.5 106zM4512 3064q0 -27 16.5 -52.5t51.5 -25.5q51 0 103 35t93 86t67.5 110.5t26.5 108.5q0 33 -18 61.5t-53 28.5 q-37 0 -86 -28.5t-93.5 -76.5t-76 -112.5t-31.5 -134.5z" />
<glyph unicode="&#xc6;" horiz-adv-x="4888" d="M-25 743q0 -252 106.5 -432t280 -294.5t390.5 -168t438 -53.5q141 0 279.5 17.5t264.5 46t234.5 66.5t190.5 81q115 59 226.5 136t216.5 173.5t200.5 216t175.5 265.5q37 0 61.5 1t48 4t51 7t70.5 10q-51 -123 -94 -239.5t-94 -217t-120 -181.5t-169 -130 q-45 10 -92 23.5t-86 13.5q-47 0 -77 -15.5t-30 -33.5q0 -16 25 -32.5t82 -22.5q35 -4 69.5 -5.5t67.5 -1.5q131 0 238.5 25t193.5 62.5t148.5 83t103.5 85.5q16 -59 48 -109t77 -89t102.5 -60.5t126.5 -21.5q98 0 188.5 32.5t167.5 87t139 125t107.5 146.5t69 151.5 t23.5 141.5q0 117 -58.5 190.5t-163.5 73.5q-98 0 -180 -30.5t-151.5 -80t-128 -111t-108.5 -124.5t-94 -120.5t-85 -100.5q10 150 74.5 269.5t162 214.5t217 172t240.5 140q23 10 23 23q0 8 -15 51q-23 68 -37 140.5t-14 144.5q0 104 35 202.5t95.5 175.5t142.5 123t178 46 q59 0 112.5 -18.5t93.5 -52.5t63.5 -82t23.5 -107q0 -113 -56.5 -196t-144.5 -159l6 -8q55 49 96 89t68 79t40 83t13 105q0 74 -25.5 129.5t-67.5 94.5t-98.5 58.5t-117.5 19.5q-68 0 -138.5 -23t-137 -61.5t-125 -93t-101.5 -117.5q-16 125 -92 233q68 68 135.5 121 t147.5 91t176 59.5t219 27.5q150 6 231.5 43t81.5 96t-79.5 136t-260.5 141q-229 78 -439 106.5t-407 28.5q-193 0 -392 -41t-386.5 -120t-352.5 -192.5t-289 -260t-195.5 -321.5t-71.5 -378q0 -139 44 -265t138 -226.5t237.5 -169t344.5 -88.5q-10 -16 -20.5 -32.5 t-20.5 -33.5q-55 -90 -112.5 -177t-133.5 -171t-179.5 -167t-248.5 -165t-360 -127t-455 -45q-154 0 -309.5 19.5t-299 61.5t-269.5 108.5t-219 162t-146 219t-53 281.5q0 193 88 344.5t232 256t329.5 158.5t378.5 54q98 0 205.5 -20.5t211 -60.5t195.5 -99t162.5 -140 t111.5 -181.5t41 -221.5q0 -156 -56 -273.5t-154.5 -197.5t-232.5 -121t-288 -41q-123 0 -251 33t-234.5 99.5t-174 167t-67.5 235.5q0 100 44 177t115 128t162 78t183 27q88 0 176 -23t158 -68t114 -112.5t44 -159.5t-39 -143.5t-103.5 -79t-148.5 -36.5t-172 -15 q-10 0 -21.5 -1t-21.5 -3q49 -6 104 -7q80 0 160 11.5t143.5 43t103.5 90t40 154.5q0 92 -46.5 164t-121 122t-170 77t-193.5 27q-90 0 -186 -31t-175 -89.5t-130.5 -144.5t-51.5 -196q0 -145 73 -252t184.5 -176.5t246.5 -103.5t260 -34q158 0 301.5 49.5t252 139.5 t173 220t64.5 292q0 125 -44 232.5t-118 194.5t-171 153.5t-205.5 111.5t-221.5 67.5t-215 22.5q-123 0 -251 -27.5t-250 -80t-229.5 -130t-188 -176t-128 -217t-47.5 -256.5zM2161 1516q0 213 76.5 390t207.5 319t307.5 250t375 178.5t410.5 106.5t415 36q164 0 333.5 -25 t344.5 -90q150 -57 216 -116.5t66 -106.5q0 -55 -86 -87t-239 -40q-113 -6 -207.5 -28t-177 -54.5t-158.5 -74.5t-152 -89q-111 100 -246 147t-276 47q-123 0 -246 -39.5t-220 -112.5t-158.5 -176.5t-61.5 -230.5q0 -61 20.5 -117.5t57.5 -98.5t89 -66.5t116 -24.5 q68 0 131 27.5t112 73t79 104.5t30 123q0 43 -16.5 82t-45 69.5t-68.5 48t-87 17.5q-53 0 -100.5 -22.5t-69.5 -73.5q27 41 67.5 60.5t85.5 19.5q88 0 136.5 -51.5t48.5 -141.5q0 -53 -19.5 -106.5t-54.5 -96.5t-86 -70.5t-115 -27.5q-129 0 -197.5 70.5t-68.5 187.5 q0 123 59.5 221t153.5 166t209 103.5t225 35.5q135 0 258 -46t207 -138q-59 -41 -137 -117t-165 -174t-178 -214t-178 -235.5t-165 -237.5t-137 -222q-12 -2 -27 -2h-25q-139 0 -262 57.5t-213 151.5t-142 215t-52 246zM2785 37q115 53 196 134t143.5 183.5t111.5 225 t100 260.5q106 18 206.5 68t186.5 123t154 164t113 189q23 -55 56.5 -98t68.5 -74q20 -20 20 -41q0 -27 -37 -49q-78 -29 -163 -64.5t-166.5 -83.5t-157.5 -108.5t-133.5 -137.5t-91 -171t-33.5 -209q0 -29 2 -51.5t6 -38.5q-47 -49 -108.5 -91t-128 -73t-134.5 -49 t-125 -18q-45 0 -86 10zM3009 856q39 70 96 167t127.5 206.5t150.5 224.5t162 221.5t163 197.5t157 152q4 -6 15 -14t21 -24q-100 -102 -200.5 -241.5t-190.5 -290t-164.5 -301t-121.5 -275.5q-47 -8 -80 -13.5t-56.5 -7.5t-42.5 -2h-36zM3351 893q49 131 110.5 282.5 t133 298t151.5 276.5t170 216q12 -12 25.5 -35.5t24.5 -53.5t18.5 -63.5t7.5 -64.5l2 -47q0 -41 -7 -84q-4 -20 -8 -41t-6 -43q-27 -115 -84 -222.5t-139 -194.5t-184.5 -146.5t-214.5 -77.5zM3453 281v18q70 74 149.5 172t172 186t199 148.5t233.5 60.5q47 0 82.5 -20.5 t60.5 -53t37 -74.5t12 -83q0 -106 -55 -221t-146.5 -211.5t-205 -158.5t-230.5 -62q-141 0 -225 78.5t-84 220.5zM3924 2062q16 16 45 32.5t45 27.5q35 20 43 20q4 0 4 -2q0 -8 -33 -33q-16 -12 -31.5 -25.5t-50.5 -41.5z" />
<glyph unicode="&#xc7;" horiz-adv-x="1116" d="M117 1786q0 -57 32.5 -98t84 -69t115 -44t126 -25.5t115.5 -12.5t86 -3h53l-27 -33q-59 -72 -132.5 -168t-147.5 -204.5t-137.5 -226.5t-100.5 -232q-23 -72 -42 -163t-19 -183q0 -66 10 -124.5t37 -103.5q12 -14 20.5 -27.5t23.5 -26.5t38.5 -23.5t66.5 -18.5 q-41 -23 -72.5 -53.5t-53.5 -59.5q-14 -27 -23.5 -53.5t-9.5 -54.5q0 -25 10 -55q16 -41 48 -60.5t73 -19.5q59 0 123.5 42t105.5 128q4 12 4 22q0 25 -16 47.5t-45 22.5q-20 0 -45 -14.5t-53 -49.5l6 -6q27 33 48 45.5t40 12.5q23 0 35 -19.5t12 -54.5q-14 -35 -39 -62.5 t-53.5 -48t-59 -32t-59.5 -11.5q-31 0 -56.5 15.5t-37.5 50.5q-8 27 -8 53q0 25 7 45t23 43q33 39 77 70.5t93 48.5q143 2 271.5 68.5t223.5 171t151.5 234.5t56.5 259q0 35 -10.5 72t-30 66.5t-48 49t-67.5 19.5q-80 0 -152.5 -51.5t-131 -125t-98.5 -154.5t-52 -140h14 q51 133 110.5 220t115 137t104.5 69.5t82 19.5q63 0 94 -47t31 -104q0 -104 -48 -232.5t-134.5 -241t-206 -188.5t-265.5 -76q-47 0 -88 13.5t-69 42.5q-31 33 -43.5 70.5t-12.5 80.5q0 74 24 151t46 136q49 141 111.5 267t133 242t146.5 225.5t156 217.5l55 76 q129 12 268.5 47t260 93.5t209 140.5t112.5 188q2 10 3 17.5t1 13.5q0 74 -94 74q-29 0 -69 -6.5t-87 -22.5q-90 -31 -190 -88.5t-197.5 -130t-183.5 -151.5t-143 -152q-18 -2 -37 -2h-35q-117 0 -212 15t-162.5 47t-104.5 83t-37 123q0 31 6 55q8 18 22.5 40t32 40 t33.5 32.5t31 20.5l-15 8q-23 -10 -50 -33.5t-50.5 -56t-40 -71.5t-16.5 -78zM885 1577q59 76 140 155.5t170 149.5t180 124t173 79q51 10 74 10q41 0 56.5 -14t15.5 -37q0 -25 -14.5 -55.5t-26.5 -53.5q-35 -49 -101.5 -104t-165 -104.5t-224.5 -89.5t-277 -60z" />
<glyph unicode="&#xc8;" horiz-adv-x="1171" d="M117 393q0 -80 25.5 -151.5t72.5 -126t116.5 -86t155.5 -31.5q98 0 188.5 32.5t167.5 87t139 125t107.5 146.5t69 151.5t23.5 141.5q0 117 -58.5 190.5t-162.5 73.5q-66 0 -135.5 -37t-130 -98t-105.5 -139t-62 -160q8 -4 7 -4l8 4q14 72 54 143.5t96.5 128t126 92 t145.5 35.5q47 0 82.5 -20.5t60.5 -53t37 -74.5t12 -83q0 -106 -55 -221t-146.5 -211t-205 -158.5t-230.5 -62.5q-141 0 -225 78.5t-84 220.5q0 162 61.5 290.5t160.5 231t223 182.5t251 146q23 10 23 22q0 8 -15 51q-23 68 -37 140.5t-14 144.5q0 104 35 202.5t95.5 175.5 t142.5 123t178 46q59 0 112.5 -18.5t93.5 -52.5t63.5 -82t23.5 -107q0 -113 -56.5 -196t-144.5 -159l6 -8q55 49 96 89t68 79t40 83.5t13 105.5q0 74 -25.5 129t-67.5 94t-98.5 58.5t-117.5 19.5q-100 0 -204.5 -47.5t-190.5 -126t-140.5 -180t-54.5 -210.5q0 -51 13.5 -95 t35 -81t48 -66.5t51.5 -52.5q20 -20 20 -40q0 -27 -37 -50q-78 -29 -163 -64.5t-166.5 -83.5t-157.5 -108.5t-133.5 -137.5t-91 -171t-33.5 -209zM1157 2697l268 -438l14 14l-192 373q-47 14 -59.5 35.5t-20.5 21.5q-4 0 -10 -6z" />
<glyph unicode="&#xc9;" horiz-adv-x="1171" d="M117 393q0 -80 25.5 -151.5t72.5 -126t116.5 -86t155.5 -31.5q98 0 188.5 32.5t167.5 87t139 125t107.5 146.5t69 151.5t23.5 141.5q0 117 -58.5 190.5t-162.5 73.5q-66 0 -135.5 -37t-130 -98t-105.5 -139t-62 -160q8 -4 7 -4l8 4q14 72 54 143.5t96.5 128t126 92 t145.5 35.5q47 0 82.5 -20.5t60.5 -53t37 -74.5t12 -83q0 -106 -55 -221t-146.5 -211t-205 -158.5t-230.5 -62.5q-141 0 -225 78.5t-84 220.5q0 162 61.5 290.5t160.5 231t223 182.5t251 146q23 10 23 22q0 8 -15 51q-23 68 -37 140.5t-14 144.5q0 104 35 202.5t95.5 175.5 t142.5 123t178 46q59 0 112.5 -18.5t93.5 -52.5t63.5 -82t23.5 -107q0 -113 -56.5 -196t-144.5 -159l6 -8q55 49 96 89t68 79t40 83.5t13 105.5q0 74 -25.5 129t-67.5 94t-98.5 58.5t-117.5 19.5q-100 0 -204.5 -47.5t-190.5 -126t-140.5 -180t-54.5 -210.5q0 -51 13.5 -95 t35 -81t48 -66.5t51.5 -52.5q20 -20 20 -40q0 -27 -37 -50q-78 -29 -163 -64.5t-166.5 -83.5t-157.5 -108.5t-133.5 -137.5t-91 -171t-33.5 -209zM1411 2275l15 -14l327 446q-4 4 -8 4q-6 0 -12 -8t-15.5 -17t-21.5 -16.5t-33 -7.5z" />
<glyph unicode="&#xca;" horiz-adv-x="1171" d="M117 393q0 -80 25.5 -151.5t72.5 -126t116.5 -86t155.5 -31.5q98 0 188.5 32.5t167.5 87t139 125t107.5 146.5t69 151.5t23.5 141.5q0 117 -58.5 190.5t-162.5 73.5q-66 0 -135.5 -37t-130 -98t-105.5 -139t-62 -160q8 -4 7 -4l8 4q14 72 54 143.5t96.5 128t126 92 t145.5 35.5q47 0 82.5 -20.5t60.5 -53t37 -74.5t12 -83q0 -106 -55 -221t-146.5 -211t-205 -158.5t-230.5 -62.5q-141 0 -225 78.5t-84 220.5q0 162 61.5 290.5t160.5 231t223 182.5t251 146q23 10 23 22q0 8 -15 51q-23 68 -37 140.5t-14 144.5q0 104 35 202.5t95.5 175.5 t142.5 123t178 46q59 0 112.5 -18.5t93.5 -52.5t63.5 -82t23.5 -107q0 -113 -56.5 -196t-144.5 -159l6 -8q55 49 96 89t68 79t40 83.5t13 105.5q0 74 -25.5 129t-67.5 94t-98.5 58.5t-117.5 19.5q-100 0 -204.5 -47.5t-190.5 -126t-140.5 -180t-54.5 -210.5q0 -51 13.5 -95 t35 -81t48 -66.5t51.5 -52.5q20 -20 20 -40q0 -27 -37 -50q-78 -29 -163 -64.5t-166.5 -83.5t-157.5 -108.5t-133.5 -137.5t-91 -171t-33.5 -209zM989 2282h37q63 16 132 36.5t133.5 49.5t123 67.5t103.5 92.5q-18 -35 -19 -78q0 -29 9.5 -58.5t31.5 -58.5h9 q-8 27 -13.5 50.5t-5.5 49.5q0 51 33 114t127 153l-17 6q-84 -86 -164.5 -153.5t-163.5 -118t-170 -88.5t-186 -64z" />
<glyph unicode="&#xcb;" horiz-adv-x="1171" d="M117 393q0 -80 25.5 -151.5t72.5 -126t116.5 -86t155.5 -31.5q98 0 188.5 32.5t167.5 87t139 125t107.5 146.5t69 151.5t23.5 141.5q0 117 -58.5 190.5t-162.5 73.5q-66 0 -135.5 -37t-130 -98t-105.5 -139t-62 -160q8 -4 7 -4l8 4q14 72 54 143.5t96.5 128t126 92 t145.5 35.5q47 0 82.5 -20.5t60.5 -53t37 -74.5t12 -83q0 -106 -55 -221t-146.5 -211t-205 -158.5t-230.5 -62.5q-141 0 -225 78.5t-84 220.5q0 162 61.5 290.5t160.5 231t223 182.5t251 146q23 10 23 22q0 8 -15 51q-23 68 -37 140.5t-14 144.5q0 104 35 202.5t95.5 175.5 t142.5 123t178 46q59 0 112.5 -18.5t93.5 -52.5t63.5 -82t23.5 -107q0 -113 -56.5 -196t-144.5 -159l6 -8q55 49 96 89t68 79t40 83.5t13 105.5q0 74 -25.5 129t-67.5 94t-98.5 58.5t-117.5 19.5q-100 0 -204.5 -47.5t-190.5 -126t-140.5 -180t-54.5 -210.5q0 -51 13.5 -95 t35 -81t48 -66.5t51.5 -52.5q20 -20 20 -40q0 -27 -37 -50q-78 -29 -163 -64.5t-166.5 -83.5t-157.5 -108.5t-133.5 -137.5t-91 -171t-33.5 -209zM1202 2302q0 -49 41 -49q14 0 37 12q45 29 76.5 68t42.5 68q8 16 8 34q0 35 -35 35q-18 0 -39 -10q-106 -57 -127 -133 q-4 -16 -4 -25zM1474 2327q0 -41 7.5 -56.5t27.5 -15.5q4 0 25 4q45 29 76.5 62t42.5 71q8 19 8 37t-10.5 26.5t-26.5 8.5q-25 0 -45 -12q-57 -33 -79 -68t-26 -57z" />
<glyph unicode="&#xcc;" horiz-adv-x="1339" d="M-39 412q0 -111 37 -192t104.5 -134t161.5 -79.5t209 -26.5q256 0 491.5 117.5t405.5 348.5q37 51 78 135.5t83 182.5t86 200.5t87 188.5q92 180 222 287.5t278 130.5q94 0 145 30.5t51 71.5q0 29 -27.5 59.5t-86.5 53.5q-63 23 -133 31t-146 8q-90 0 -201.5 -20.5 t-229.5 -60.5t-229.5 -100.5t-198.5 -140.5t-140.5 -179t-53.5 -218q0 -47 15.5 -98.5t44 -93.5t69.5 -69.5t93 -27.5q68 0 130 26.5t111 72t79 105.5t30 126q0 35 -11.5 68.5t-33 61.5t-53 44t-70.5 16q-35 0 -73 -16t-79 -55q53 31 89 43t65 12q27 0 51.5 -13.5t40.5 -35 t26.5 -48t10.5 -53.5q0 -51 -27.5 -106t-73 -101t-99.5 -77t-109 -31q-37 0 -66 16.5t-48 44t-28.5 60.5t-9.5 67q0 113 51 212.5t136 183.5t195 151.5t225.5 113.5t230 70.5t209.5 24.5q106 0 211 -28q35 -10 58 -34t23 -52q0 -27 -24.5 -48.5t-79.5 -29.5q-68 -8 -157 -34 t-180 -75t-174 -127t-136 -188q-37 -59 -71 -131t-65.5 -145.5t-61 -145.5t-56.5 -129q-61 -135 -149.5 -248t-201 -194.5t-251.5 -128t-303 -46.5q-82 0 -163 25t-144.5 74t-102.5 121.5t-39 171.5q0 80 45 157.5t121 140t172 100.5t199 38q78 0 160.5 -12.5t150.5 -43 t111 -82t43 -126.5q0 -74 -41 -135.5t-107.5 -106.5t-148.5 -70.5t-164 -25.5q-41 0 -83 6t-76 22.5t-55.5 46t-21.5 76.5q0 51 24.5 88t63.5 61.5t88.5 36t100.5 11.5q66 0 118 -27.5t66 -93.5q0 78 -53 106.5t-125 28.5q-53 0 -109.5 -13t-103.5 -40t-77 -68t-30 -96 q0 -49 21.5 -83t59.5 -55.5t87.5 -30.5t104.5 -9q80 0 170 27.5t167 78t127 121t50 156.5q0 90 -40 153.5t-108.5 104.5t-158.5 60.5t-189 19.5q-113 0 -221 -42t-194 -114t-138.5 -166t-52.5 -196zM2073 2691l268 -438l14 14l-192 373q-47 14 -59.5 35.5t-20.5 21.5 q-4 0 -10 -6z" />
<glyph unicode="&#xcd;" horiz-adv-x="1339" d="M-39 412q0 -111 37 -192t104.5 -134t161.5 -79.5t209 -26.5q256 0 491.5 117.5t405.5 348.5q37 51 78 135.5t83 182.5t86 200.5t87 188.5q92 180 222 287.5t278 130.5q94 0 145 30.5t51 71.5q0 29 -27.5 59.5t-86.5 53.5q-63 23 -133 31t-146 8q-90 0 -201.5 -20.5 t-229.5 -60.5t-229.5 -100.5t-198.5 -140.5t-140.5 -179t-53.5 -218q0 -47 15.5 -98.5t44 -93.5t69.5 -69.5t93 -27.5q68 0 130 26.5t111 72t79 105.5t30 126q0 35 -11.5 68.5t-33 61.5t-53 44t-70.5 16q-35 0 -73 -16t-79 -55q53 31 89 43t65 12q27 0 51.5 -13.5t40.5 -35 t26.5 -48t10.5 -53.5q0 -51 -27.5 -106t-73 -101t-99.5 -77t-109 -31q-37 0 -66 16.5t-48 44t-28.5 60.5t-9.5 67q0 113 51 212.5t136 183.5t195 151.5t225.5 113.5t230 70.5t209.5 24.5q106 0 211 -28q35 -10 58 -34t23 -52q0 -27 -24.5 -48.5t-79.5 -29.5q-68 -8 -157 -34 t-180 -75t-174 -127t-136 -188q-37 -59 -71 -131t-65.5 -145.5t-61 -145.5t-56.5 -129q-61 -135 -149.5 -248t-201 -194.5t-251.5 -128t-303 -46.5q-82 0 -163 25t-144.5 74t-102.5 121.5t-39 171.5q0 80 45 157.5t121 140t172 100.5t199 38q78 0 160.5 -12.5t150.5 -43 t111 -82t43 -126.5q0 -74 -41 -135.5t-107.5 -106.5t-148.5 -70.5t-164 -25.5q-41 0 -83 6t-76 22.5t-55.5 46t-21.5 76.5q0 51 24.5 88t63.5 61.5t88.5 36t100.5 11.5q66 0 118 -27.5t66 -93.5q0 78 -53 106.5t-125 28.5q-53 0 -109.5 -13t-103.5 -40t-77 -68t-30 -96 q0 -49 21.5 -83t59.5 -55.5t87.5 -30.5t104.5 -9q80 0 170 27.5t167 78t127 121t50 156.5q0 90 -40 153.5t-108.5 104.5t-158.5 60.5t-189 19.5q-113 0 -221 -42t-194 -114t-138.5 -166t-52.5 -196zM2398 2281l15 -14l327 446q-4 4 -8 4q-6 0 -12 -8t-15.5 -17t-21.5 -16.5 t-33 -7.5z" />
<glyph unicode="&#xce;" horiz-adv-x="1339" d="M-39 412q0 -111 37 -192t104.5 -134t161.5 -79.5t209 -26.5q256 0 491.5 117.5t405.5 348.5q37 51 78 135.5t83 182.5t86 200.5t87 188.5q92 180 222 287.5t278 130.5q94 0 145 30.5t51 71.5q0 29 -27.5 59.5t-86.5 53.5q-63 23 -133 31t-146 8q-90 0 -201.5 -20.5 t-229.5 -60.5t-229.5 -100.5t-198.5 -140.5t-140.5 -179t-53.5 -218q0 -47 15.5 -98.5t44 -93.5t69.5 -69.5t93 -27.5q68 0 130 26.5t111 72t79 105.5t30 126q0 35 -11.5 68.5t-33 61.5t-53 44t-70.5 16q-35 0 -73 -16t-79 -55q53 31 89 43t65 12q27 0 51.5 -13.5t40.5 -35 t26.5 -48t10.5 -53.5q0 -51 -27.5 -106t-73 -101t-99.5 -77t-109 -31q-37 0 -66 16.5t-48 44t-28.5 60.5t-9.5 67q0 113 51 212.5t136 183.5t195 151.5t225.5 113.5t230 70.5t209.5 24.5q106 0 211 -28q35 -10 58 -34t23 -52q0 -27 -24.5 -48.5t-79.5 -29.5q-68 -8 -157 -34 t-180 -75t-174 -127t-136 -188q-37 -59 -71 -131t-65.5 -145.5t-61 -145.5t-56.5 -129q-61 -135 -149.5 -248t-201 -194.5t-251.5 -128t-303 -46.5q-82 0 -163 25t-144.5 74t-102.5 121.5t-39 171.5q0 80 45 157.5t121 140t172 100.5t199 38q78 0 160.5 -12.5t150.5 -43 t111 -82t43 -126.5q0 -74 -41 -135.5t-107.5 -106.5t-148.5 -70.5t-164 -25.5q-41 0 -83 6t-76 22.5t-55.5 46t-21.5 76.5q0 51 24.5 88t63.5 61.5t88.5 36t100.5 11.5q66 0 118 -27.5t66 -93.5q0 78 -53 106.5t-125 28.5q-53 0 -109.5 -13t-103.5 -40t-77 -68t-30 -96 q0 -49 21.5 -83t59.5 -55.5t87.5 -30.5t104.5 -9q80 0 170 27.5t167 78t127 121t50 156.5q0 90 -40 153.5t-108.5 104.5t-158.5 60.5t-189 19.5q-113 0 -221 -42t-194 -114t-138.5 -166t-52.5 -196zM2068 2265h37q63 16 132 36.5t133.5 49.5t123 67.5t103.5 92.5 q-18 -35 -19 -78q0 -29 9.5 -58.5t31.5 -58.5h9q-8 27 -13.5 50.5t-5.5 49.5q0 51 33 114t127 153l-17 6q-84 -86 -164.5 -153.5t-163.5 -118t-170 -88.5t-186 -64z" />
<glyph unicode="&#xcf;" horiz-adv-x="1339" d="M-39 412q0 -111 37 -192t104.5 -134t161.5 -79.5t209 -26.5q256 0 491.5 117.5t405.5 348.5q37 51 78 135.5t83 182.5t86 200.5t87 188.5q92 180 222 287.5t278 130.5q94 0 145 30.5t51 71.5q0 29 -27.5 59.5t-86.5 53.5q-63 23 -133 31t-146 8q-90 0 -201.5 -20.5 t-229.5 -60.5t-229.5 -100.5t-198.5 -140.5t-140.5 -179t-53.5 -218q0 -47 15.5 -98.5t44 -93.5t69.5 -69.5t93 -27.5q68 0 130 26.5t111 72t79 105.5t30 126q0 35 -11.5 68.5t-33 61.5t-53 44t-70.5 16q-35 0 -73 -16t-79 -55q53 31 89 43t65 12q27 0 51.5 -13.5t40.5 -35 t26.5 -48t10.5 -53.5q0 -51 -27.5 -106t-73 -101t-99.5 -77t-109 -31q-37 0 -66 16.5t-48 44t-28.5 60.5t-9.5 67q0 113 51 212.5t136 183.5t195 151.5t225.5 113.5t230 70.5t209.5 24.5q106 0 211 -28q35 -10 58 -34t23 -52q0 -27 -24.5 -48.5t-79.5 -29.5q-68 -8 -157 -34 t-180 -75t-174 -127t-136 -188q-37 -59 -71 -131t-65.5 -145.5t-61 -145.5t-56.5 -129q-61 -135 -149.5 -248t-201 -194.5t-251.5 -128t-303 -46.5q-82 0 -163 25t-144.5 74t-102.5 121.5t-39 171.5q0 80 45 157.5t121 140t172 100.5t199 38q78 0 160.5 -12.5t150.5 -43 t111 -82t43 -126.5q0 -74 -41 -135.5t-107.5 -106.5t-148.5 -70.5t-164 -25.5q-41 0 -83 6t-76 22.5t-55.5 46t-21.5 76.5q0 51 24.5 88t63.5 61.5t88.5 36t100.5 11.5q66 0 118 -27.5t66 -93.5q0 78 -53 106.5t-125 28.5q-53 0 -109.5 -13t-103.5 -40t-77 -68t-30 -96 q0 -49 21.5 -83t59.5 -55.5t87.5 -30.5t104.5 -9q80 0 170 27.5t167 78t127 121t50 156.5q0 90 -40 153.5t-108.5 104.5t-158.5 60.5t-189 19.5q-113 0 -221 -42t-194 -114t-138.5 -166t-52.5 -196zM2193 2310q0 -49 41 -49q14 0 37 12q45 29 76.5 68t42.5 68q8 16 8 34 q0 35 -35 35q-18 0 -39 -10q-106 -57 -127 -133q-4 -16 -4 -25zM2465 2335q0 -41 7.5 -56.5t27.5 -15.5q4 0 25 4q45 29 76.5 62t42.5 71q8 19 8 37t-10.5 26.5t-26.5 8.5q-25 0 -45 -12q-57 -33 -79 -68t-26 -57z" />
<glyph unicode="&#xd0;" horiz-adv-x="2009" d="M119 80q0 -25 18.5 -40t44 -24.5t53 -13.5t46.5 -4q53 0 108 12.5t109 32.5q96 -16 188 -29.5t186 -13.5q211 0 398.5 71.5t345.5 198.5t286 300t220 374q41 92 68.5 213t27.5 252q0 82 -16.5 165t-51.5 161q-41 90 -99 158.5t-130 123.5q39 51 79 79t68 34q-2 4 -4 5 l-2 1q-35 -10 -75.5 -37.5t-81.5 -73.5q-129 92 -322 93q-74 0 -153.5 -13.5t-163.5 -42.5q-193 -66 -365 -190.5t-291 -286.5q-25 -33 -49 -71.5t-43.5 -81.5t-33 -91.5t-13.5 -97.5q0 -53 19.5 -108.5t54.5 -101.5t86 -74.5t117 -28.5q78 0 153.5 55t136 136t101.5 174.5 t51 170.5h-14q-10 -68 -49.5 -156.5t-98.5 -168.5t-132 -134.5t-148 -54.5q-41 0 -84 20.5t-77 55.5t-55.5 80t-21.5 94q0 94 55 211q55 121 124 212t144.5 159.5t155.5 117t158 85.5q106 47 204.5 75.5t194.5 28.5q84 0 165 -24.5t165 -79.5q-20 -23 -49 -57t-60.5 -74.5 t-63.5 -86t-58 -88.5l-410 -669q-78 -72 -185.5 -112t-218.5 -40q-80 0 -153.5 24.5t-128.5 73t-89 116t-34 153.5q0 82 33 170t85 171t118.5 151.5t134.5 111.5l-9 14q-74 -43 -144.5 -115.5t-126.5 -161.5t-90 -186.5t-34 -187.5q0 -66 24.5 -136.5t77 -129t131.5 -95 t189 -36.5q72 0 162 23.5t199 80.5l-209 -344q-47 -63 -93.5 -135t-98.5 -139.5t-111.5 -123t-135.5 -85.5q-94 16 -174 33.5t-139 17.5q-12 0 -28.5 -2t-32 -6t-25.5 -13.5t-10 -23.5zM172 66q0 8 8 15t27 7q31 0 68.5 -5t73.5 -11t66 -12.5t46 -8.5q-53 -16 -103.5 -21 t-85.5 -5q-12 0 -29.5 1t-32.5 6t-26.5 13t-11.5 21zM565 66q88 39 160 93t131 116.5t111.5 129t103.5 130.5q78 98 147.5 217.5t135.5 222.5q35 29 82 51.5t75 38.5q37 14 78 14q63 0 111.5 -39t48.5 -116v-9q0 -33 -15.5 -57t-38 -41.5t-50 -26t-54.5 -8.5q-39 0 -65 15 v-23q27 -18 65 -18q35 0 72 14t67.5 43t51 69t20.5 93q-12 96 -68.5 135t-125.5 39q-55 0 -109.5 -20.5t-91.5 -49.5q25 45 49.5 84t47 81t47 88t48.5 104q20 49 58.5 125.5t81.5 158.5t83 153t68 107q12 -6 30.5 -20t39 -35.5t42 -47.5t38.5 -54q43 -72 63.5 -159 t20.5 -183q-2 -143 -47 -307t-125 -326t-191.5 -311.5t-247 -263t-291 -181t-323.5 -67.5q-98 0 -183 15t-151 26z" />
<glyph unicode="&#xd1;" horiz-adv-x="1617" d="M-14 360q0 -102 51 -170.5t132 -110.5t181.5 -59.5t196.5 -17.5q162 0 309.5 37t281.5 104.5t251.5 162.5t218.5 214q82 96 158.5 220t151.5 254t145.5 258t140 233.5t138 178.5t136.5 93q-125 -119 -210 -259t-138 -291.5t-76.5 -307.5t-23.5 -303q0 -174 26.5 -327.5 t73.5 -268.5q96 270 234.5 566t312.5 583t379.5 546t439 455.5t490.5 312t532 115.5q123 0 215 -29.5t155.5 -76.5t95.5 -105.5t32 -115.5q0 -61 -32 -106.5t-80 -73t-106.5 -41t-113.5 -13.5q-66 0 -128.5 15.5t-110.5 46t-77.5 73.5t-29.5 99q0 70 47 145h-6 q-29 -45 -42.5 -84t-13.5 -74q0 -61 35 -106t91.5 -76t126 -46t138.5 -15q70 0 131.5 15t106.5 49t71.5 85t28.5 125q0 61 -28.5 126t-95 116t-175 84t-270.5 33q-250 0 -481.5 -85t-443.5 -238t-404.5 -367t-365.5 -472t-327.5 -553t-287.5 -608q-23 74 -33 156t-10 168 q0 129 21.5 262t60.5 260t92 241.5t117.5 205t137.5 149.5t151 76q94 0 139 33.5t45 78.5q0 61 -51.5 99.5t-123 57.5t-148.5 26.5t-126 7.5q-119 0 -248 -22.5t-257 -69.5t-250.5 -120t-231.5 -173q-160 -147 -225.5 -284.5t-65.5 -248.5q0 -104 53.5 -168.5t159.5 -64.5 q70 0 151 37t149.5 95t114.5 131t46 144q0 86 -47 121t-119 35q-51 0 -101 -29.5t-85 -95.5q45 57 88 80t82 23q63 0 101 -38t38 -92q0 -61 -38 -129.5t-96 -127t-129 -96.5t-134 -38q-84 0 -121 56.5t-37 132.5q0 68 26.5 139.5t67.5 140t93.5 131t103.5 109.5 q88 82 198.5 153.5t233.5 125t254 84t258 30.5q25 0 61.5 -2t78.5 -7t84 -15.5t76 -27.5t55.5 -44t21.5 -62t-48 -62.5t-171 -31.5q-131 -4 -238.5 -61.5t-197 -147.5t-163 -202.5t-137 -227t-119 -221t-106.5 -182.5q-106 -158 -214.5 -293t-235.5 -235.5t-280.5 -157 t-352.5 -56.5q-100 0 -196.5 16.5t-172.5 56.5t-123 105.5t-47 166.5q0 111 63.5 210t165 174.5t227.5 120.5t249 45q78 0 148.5 -13t123.5 -44t85 -83t32 -132t-43 -150.5t-112.5 -123t-161 -82t-185.5 -29.5q-43 0 -98 7t-105.5 25.5t-84 51.5t-33.5 84q0 57 36.5 99 t91 70t117 42t115.5 14q74 0 133.5 -28.5t75.5 -98.5h8q-10 72 -73.5 107t-149.5 35q-47 0 -111.5 -11.5t-122 -40t-97.5 -76t-40 -116.5q0 -57 34 -93t85 -56.5t111.5 -29t113.5 -8.5q78 0 178.5 27t189.5 81t149.5 136t60.5 191q0 80 -32 134t-86 89t-127 50t-155 15 q-158 0 -309 -46t-270 -131t-191.5 -202.5t-72.5 -259.5zM1948 2617q0 -37 39 -55q37 -20 75.5 -28.5t79.5 -8.5q66 0 129.5 23.5t116.5 64.5q49 -10 104.5 -24.5t117 -28.5t128 -24.5t139.5 -10.5q70 0 142.5 11.5t150.5 39.5q96 45 184.5 135t129.5 207h-15 q-16 -55 -50 -102t-76 -85t-91 -65.5t-96 -44.5q-98 -23 -170 -34t-141 -11q-88 0 -185.5 18.5t-240.5 55.5q12 31 12 55q0 41 -33 62.5t-80 21.5q-57 0 -108 -26h8q39 12 76 12q45 0 76.5 -18.5t31.5 -53.5q0 -23 -14 -45q-23 8 -54.5 16.5t-68.5 15.5t-76 11t-75 4 q-31 0 -57.5 -3t-47.5 -13q-33 -14 -47 -33.5t-14 -38.5zM2007 2613q0 20 31 37q37 6 78 6q53 0 111 -9.5t124 -25.5q-53 -39 -106.5 -53t-100.5 -14q-35 0 -63.5 6t-48.5 16q-25 20 -25 37z" />
<glyph unicode="&#xd2;" horiz-adv-x="1187" d="M57 371q0 109 52.5 257t140.5 312t201.5 332t238.5 317.5t250 267t234 183.5q31 18 68.5 33.5t78.5 25.5t82 16.5t78 6.5q23 0 40 -2t33 -6q-92 0 -185 -20.5t-165 -68.5q-96 -63 -214 -185t-238.5 -278.5t-235.5 -334.5t-203 -353.5t-142 -336t-54 -279.5q0 -41 6 -82 t22.5 -75.5t44 -56t72.5 -21.5q96 0 206 60t223.5 163.5t227 239t217 286t192.5 306t154.5 299t103.5 264t38 200.5q0 66 -27.5 107t-83.5 41q-43 0 -106.5 -28t-136.5 -99q-55 -55 -137 -140.5t-170.5 -188.5t-176.5 -221t-158.5 -239t-114.5 -240.5t-46 -226.5 q0 -27 9 -45t32 -18q25 0 63.5 26.5t87.5 85.5q123 150 222.5 284t181.5 262t147.5 251t120.5 252q-66 -172 -138.5 -317.5t-153.5 -274.5t-170 -245.5t-187 -233.5q-49 -59 -93 -88t-77 -29q-41 0 -55.5 25.5t-14.5 62.5q0 102 42 221t111 241t156 244t177 229.5t174 196.5 t147 148q84 76 150.5 103.5t113.5 27.5q37 0 64 -15t43 -41t24.5 -58.5t8.5 -69.5q0 -100 -35 -231.5t-96.5 -278.5t-147.5 -302t-187.5 -302.5t-216 -277.5t-234.5 -227t-241.5 -154.5t-236.5 -57.5t-158 95t-43 276zM1180 2687q6 6 10 6q8 0 20.5 -21.5t59.5 -35.5 l192 -373l-14 -14z" />
<glyph unicode="&#xd3;" horiz-adv-x="1187" d="M57 371q0 109 52.5 257t140.5 312t201.5 332t238.5 317.5t250 267t234 183.5q31 18 68.5 33.5t78.5 25.5t82 16.5t78 6.5q23 0 40 -2t33 -6q-92 0 -185 -20.5t-165 -68.5q-96 -63 -214 -185t-238.5 -278.5t-235.5 -334.5t-203 -353.5t-142 -336t-54 -279.5q0 -41 6 -82 t22.5 -75.5t44 -56t72.5 -21.5q96 0 206 60t223.5 163.5t227 239t217 286t192.5 306t154.5 299t103.5 264t38 200.5q0 66 -27.5 107t-83.5 41q-43 0 -106.5 -28t-136.5 -99q-55 -55 -137 -140.5t-170.5 -188.5t-176.5 -221t-158.5 -239t-114.5 -240.5t-46 -226.5 q0 -27 9 -45t32 -18q25 0 63.5 26.5t87.5 85.5q123 150 222.5 284t181.5 262t147.5 251t120.5 252q-66 -172 -138.5 -317.5t-153.5 -274.5t-170 -245.5t-187 -233.5q-49 -59 -93 -88t-77 -29q-41 0 -55.5 25.5t-14.5 62.5q0 102 42 221t111 241t156 244t177 229.5t174 196.5 t147 148q84 76 150.5 103.5t113.5 27.5q37 0 64 -15t43 -41t24.5 -58.5t8.5 -69.5q0 -100 -35 -231.5t-96.5 -278.5t-147.5 -302t-187.5 -302.5t-216 -277.5t-234.5 -227t-241.5 -154.5t-236.5 -57.5t-158 95t-43 276zM1536 2281l252 388q20 0 32.5 7t21.5 16t15.5 17.5 t12.5 8.5q4 0 8 -4l-328 -447z" />
<glyph unicode="&#xd4;" horiz-adv-x="1187" d="M57 371q0 109 52.5 257t140.5 312t201.5 332t238.5 317.5t250 267t234 183.5q31 18 68.5 33.5t78.5 25.5t82 16.5t78 6.5q23 0 40 -2t33 -6q-92 0 -185 -20.5t-165 -68.5q-96 -63 -214 -185t-238.5 -278.5t-235.5 -334.5t-203 -353.5t-142 -336t-54 -279.5q0 -41 6 -82 t22.5 -75.5t44 -56t72.5 -21.5q96 0 206 60t223.5 163.5t227 239t217 286t192.5 306t154.5 299t103.5 264t38 200.5q0 66 -27.5 107t-83.5 41q-43 0 -106.5 -28t-136.5 -99q-55 -55 -137 -140.5t-170.5 -188.5t-176.5 -221t-158.5 -239t-114.5 -240.5t-46 -226.5 q0 -27 9 -45t32 -18q25 0 63.5 26.5t87.5 85.5q123 150 222.5 284t181.5 262t147.5 251t120.5 252q-66 -172 -138.5 -317.5t-153.5 -274.5t-170 -245.5t-187 -233.5q-49 -59 -93 -88t-77 -29q-41 0 -55.5 25.5t-14.5 62.5q0 102 42 221t111 241t156 244t177 229.5t174 196.5 t147 148q84 76 150.5 103.5t113.5 27.5q37 0 64 -15t43 -41t24.5 -58.5t8.5 -69.5q0 -100 -35 -231.5t-96.5 -278.5t-147.5 -302t-187.5 -302.5t-216 -277.5t-234.5 -227t-241.5 -154.5t-236.5 -57.5t-158 95t-43 276zM1130 2284q98 27 185.5 64.5t170.5 87.5t164 117.5 t165 153.5l16 -6q-94 -90 -127 -152.5t-33 -113.5q0 -27 5 -50.5t14 -49.5h-9q-23 29 -32 58.5t-9 57.5q0 43 19 78q-45 -53 -103.5 -92t-123 -67.5t-133 -49t-132.5 -36.5h-37z" />
<glyph unicode="&#xd5;" horiz-adv-x="1187" d="M57 371q0 109 52.5 257t140.5 312t201.5 332t238.5 317.5t250 267t234 183.5q31 18 68.5 33.5t78.5 25.5t82 16.5t78 6.5q23 0 40 -2t33 -6q-92 0 -185 -20.5t-165 -68.5q-96 -63 -214 -185t-238.5 -278.5t-235.5 -334.5t-203 -353.5t-142 -336t-54 -279.5q0 -41 6 -82 t22.5 -75.5t44 -56t72.5 -21.5q96 0 206 60t223.5 163.5t227 239t217 286t192.5 306t154.5 299t103.5 264t38 200.5q0 66 -27.5 107t-83.5 41q-43 0 -106.5 -28t-136.5 -99q-55 -55 -137 -140.5t-170.5 -188.5t-176.5 -221t-158.5 -239t-114.5 -240.5t-46 -226.5 q0 -27 9 -45t32 -18q25 0 63.5 26.5t87.5 85.5q123 150 222.5 284t181.5 262t147.5 251t120.5 252q-66 -172 -138.5 -317.5t-153.5 -274.5t-170 -245.5t-187 -233.5q-49 -59 -93 -88t-77 -29q-41 0 -55.5 25.5t-14.5 62.5q0 102 42 221t111 241t156 244t177 229.5t174 196.5 t147 148q84 76 150.5 103.5t113.5 27.5q37 0 64 -15t43 -41t24.5 -58.5t8.5 -69.5q0 -100 -35 -231.5t-96.5 -278.5t-147.5 -302t-187.5 -302.5t-216 -277.5t-234.5 -227t-241.5 -154.5t-236.5 -57.5t-158 95t-43 276zM690 2382q0 18 14.5 37.5t47.5 34.5q20 10 46.5 13 t57.5 3q37 0 76 -4t75.5 -11.5t68.5 -15.5t54 -16q14 23 15 45q0 35 -32 53.5t-77 18.5q-37 0 -75 -13h-9q51 27 109 27q47 0 80 -21.5t33 -62.5q0 -25 -13 -55q143 -37 240.5 -55.5t185.5 -18.5q70 0 141.5 11t169.5 34q47 16 96.5 44t91.5 65.5t75.5 85t50.5 102.5h14 q-41 -117 -129 -207t-184 -135q-78 -29 -150.5 -40t-142.5 -11q-74 0 -140.5 10t-128 24.5t-116.5 28.5t-105 25q-53 -41 -116.5 -64.5t-128.5 -23.5q-41 0 -80 8t-76 29q-39 18 -39 55zM750 2378q0 -16 24 -37q20 -10 49 -16.5t64 -6.5q47 0 100.5 14.5t106.5 53.5 q-66 16 -124.5 25.5t-111.5 9.5q-41 0 -78 -6q-31 -16 -30 -37z" />
<glyph unicode="&#xd6;" horiz-adv-x="1187" d="M57 371q0 109 52.5 257t140.5 312t201.5 332t238.5 317.5t250 267t234 183.5q31 18 68.5 33.5t78.5 25.5t82 16.5t78 6.5q23 0 40 -2t33 -6q-92 0 -185 -20.5t-165 -68.5q-96 -63 -214 -185t-238.5 -278.5t-235.5 -334.5t-203 -353.5t-142 -336t-54 -279.5q0 -41 6 -82 t22.5 -75.5t44 -56t72.5 -21.5q96 0 206 60t223.5 163.5t227 239t217 286t192.5 306t154.5 299t103.5 264t38 200.5q0 66 -27.5 107t-83.5 41q-43 0 -106.5 -28t-136.5 -99q-55 -55 -137 -140.5t-170.5 -188.5t-176.5 -221t-158.5 -239t-114.5 -240.5t-46 -226.5 q0 -27 9 -45t32 -18q25 0 63.5 26.5t87.5 85.5q123 150 222.5 284t181.5 262t147.5 251t120.5 252q-66 -172 -138.5 -317.5t-153.5 -274.5t-170 -245.5t-187 -233.5q-49 -59 -93 -88t-77 -29q-41 0 -55.5 25.5t-14.5 62.5q0 102 42 221t111 241t156 244t177 229.5t174 196.5 t147 148q84 76 150.5 103.5t113.5 27.5q37 0 64 -15t43 -41t24.5 -58.5t8.5 -69.5q0 -100 -35 -231.5t-96.5 -278.5t-147.5 -302t-187.5 -302.5t-216 -277.5t-234.5 -227t-241.5 -154.5t-236.5 -57.5t-158 95t-43 276zM1309 2318q0 8 4 25q20 76 127 133q20 10 39 10 q34 0 34 -35q0 -18 -8 -34q-10 -29 -41.5 -68t-77.5 -68q-23 -12 -36 -12q-41 0 -41 49zM1581 2343q4 23 25.5 57.5t79.5 67.5q20 12 45 12q16 0 26 -8.5t10 -26.5t-8 -37q-10 -39 -41.5 -71.5t-77.5 -61.5q-20 -4 -24 -4q-20 0 -27.5 15.5t-7.5 56.5z" />
<glyph unicode="&#xd7;" horiz-adv-x="1507" d="M102 -16l9 -7q88 14 172 50t168 86.5t169 113t177 129.5q41 -80 97 -134t116.5 -93t121 -68.5t111.5 -60.5v14q-51 31 -99 59.5t-96.5 69.5t-94.5 101.5t-91 156.5q78 55 137.5 105.5t119 95.5t128 87t166.5 85l-6 6q-55 -16 -115.5 -37.5t-130 -56.5t-152.5 -87 t-184 -130q-33 53 -68.5 93t-72.5 71t-75 56.5t-74 47.5l53 -82q35 -16 73.5 -71.5t90.5 -137.5l14 -22q-80 -55 -153.5 -120.5t-151.5 -127t-165 -113t-194 -79.5z" />
<glyph unicode="&#xd8;" horiz-adv-x="1284" d="M106 279q0 -66 17.5 -121.5t40.5 -83.5q31 -41 70.5 -57.5t84.5 -16.5q59 0 123 23.5t115 58.5q123 88 249 206t245.5 258t227 295.5t195 318.5t148.5 330t90 327q0 98 -48 165.5t-138 67.5q-53 0 -122 -32.5t-147 -112.5q-166 -172 -313 -395.5t-276 -464t-239 -483.5 t-200 -451l9 -9q135 252 264 494t257 466t260 429t275 385q59 72 126 105.5t122 33.5q59 0 96 -43t37 -133q-10 -98 -67.5 -242.5t-147.5 -310.5t-203.5 -340t-236.5 -333.5t-247 -291t-230 -210.5q-53 -41 -109.5 -64.5t-109.5 -23.5q-43 0 -80 16t-60 49q-14 25 -20 52.5 t-6 56.5q0 49 12 98t23 92q14 53 57 147.5t105.5 212t141 250.5t165 266.5t173.5 260.5t166.5 229t148.5 175t116 97q72 49 165 69t185 20q-16 4 -33.5 6t-40.5 2q-37 0 -78 -6.5t-82 -16.5t-78.5 -25.5t-68.5 -33.5q-109 -66 -225.5 -170.5t-229 -237.5t-218 -288.5 t-193.5 -319.5t-152.5 -331t-97.5 -322q-4 -23 -8.5 -46.5t-4.5 -45.5z" />
<glyph unicode="&#xd9;" horiz-adv-x="1116" d="M104 139q0 -23 4.5 -48t14.5 -45.5t28.5 -34t47.5 -13.5q63 0 141 52t150.5 123t129 141.5t78.5 109.5q-25 -47 -46 -112.5t-21 -131.5q0 -92 52 -136t146 -44q68 0 125.5 30.5t108.5 79t98 110t96 122.5h-22q-27 -35 -70 -91t-98 -109.5t-120.5 -92.5t-133.5 -39 q-57 0 -87 40t-30 93q0 43 16.5 90.5t45.5 94.5l1005 1740h-110l-916 -1562q-23 -39 -58.5 -90t-79.5 -104.5t-94 -104.5t-100.5 -92t-99.5 -65.5t-92 -24.5q-20 0 -35 12q-16 10 -23.5 29.5t-7.5 42.5q0 39 13.5 78.5t23.5 58.5q92 168 186.5 319.5t186.5 297t181 290.5 t169 299q41 80 76 176t35 191q0 258 -279 258q-109 0 -218 -51.5t-199.5 -136.5t-146.5 -194.5t-56 -228.5q0 -45 11 -85t37 -69.5t64.5 -47t94.5 -17.5q57 0 116.5 24.5t107.5 64.5t81 90.5t39 99.5h-15q-12 -51 -44.5 -98.5t-79 -82t-100.5 -56t-112 -21.5 q-74 0 -119.5 43t-45.5 121q0 115 52 225t139 197.5t197.5 140.5t227.5 53q92 -10 126 -66.5t34 -132.5q0 -41 -8.5 -85t-20.5 -84t-26.5 -74.5t-26.5 -57.5q-51 -90 -114.5 -196.5t-132.5 -219t-137.5 -224t-126.5 -211t-102.5 -180.5t-64.5 -130q-23 -55 -44.5 -118.5 t-21.5 -129.5zM1051 2715l268 -438l14 14l-192 373q-47 14 -59.5 35.5t-20.5 21.5q-4 0 -10 -6z" />
<glyph unicode="&#xda;" horiz-adv-x="1116" d="M104 139q0 -23 4.5 -48t14.5 -45.5t28.5 -34t47.5 -13.5q63 0 141 52t150.5 123t129 141.5t78.5 109.5q-25 -47 -46 -112.5t-21 -131.5q0 -92 52 -136t146 -44q68 0 125.5 30.5t108.5 79t98 110t96 122.5h-22q-27 -35 -70 -91t-98 -109.5t-120.5 -92.5t-133.5 -39 q-57 0 -87 40t-30 93q0 43 16.5 90.5t45.5 94.5l1005 1740h-110l-916 -1562q-23 -39 -58.5 -90t-79.5 -104.5t-94 -104.5t-100.5 -92t-99.5 -65.5t-92 -24.5q-20 0 -35 12q-16 10 -23.5 29.5t-7.5 42.5q0 39 13.5 78.5t23.5 58.5q92 168 186.5 319.5t186.5 297t181 290.5 t169 299q41 80 76 176t35 191q0 258 -279 258q-109 0 -218 -51.5t-199.5 -136.5t-146.5 -194.5t-56 -228.5q0 -45 11 -85t37 -69.5t64.5 -47t94.5 -17.5q57 0 116.5 24.5t107.5 64.5t81 90.5t39 99.5h-15q-12 -51 -44.5 -98.5t-79 -82t-100.5 -56t-112 -21.5 q-74 0 -119.5 43t-45.5 121q0 115 52 225t139 197.5t197.5 140.5t227.5 53q92 -10 126 -66.5t34 -132.5q0 -41 -8.5 -85t-20.5 -84t-26.5 -74.5t-26.5 -57.5q-51 -90 -114.5 -196.5t-132.5 -219t-137.5 -224t-126.5 -211t-102.5 -180.5t-64.5 -130q-23 -55 -44.5 -118.5 t-21.5 -129.5zM1300 2263l15 -14l327 446q-4 4 -8 4q-6 0 -12 -8t-15.5 -17t-21.5 -16.5t-33 -7.5z" />
<glyph unicode="&#xdb;" horiz-adv-x="1116" d="M104 139q0 -23 4.5 -48t14.5 -45.5t28.5 -34t47.5 -13.5q63 0 141 52t150.5 123t129 141.5t78.5 109.5q-25 -47 -46 -112.5t-21 -131.5q0 -92 52 -136t146 -44q68 0 125.5 30.5t108.5 79t98 110t96 122.5h-22q-27 -35 -70 -91t-98 -109.5t-120.5 -92.5t-133.5 -39 q-57 0 -87 40t-30 93q0 43 16.5 90.5t45.5 94.5l1005 1740h-110l-916 -1562q-23 -39 -58.5 -90t-79.5 -104.5t-94 -104.5t-100.5 -92t-99.5 -65.5t-92 -24.5q-20 0 -35 12q-16 10 -23.5 29.5t-7.5 42.5q0 39 13.5 78.5t23.5 58.5q92 168 186.5 319.5t186.5 297t181 290.5 t169 299q41 80 76 176t35 191q0 258 -279 258q-109 0 -218 -51.5t-199.5 -136.5t-146.5 -194.5t-56 -228.5q0 -45 11 -85t37 -69.5t64.5 -47t94.5 -17.5q57 0 116.5 24.5t107.5 64.5t81 90.5t39 99.5h-15q-12 -51 -44.5 -98.5t-79 -82t-100.5 -56t-112 -21.5 q-74 0 -119.5 43t-45.5 121q0 115 52 225t139 197.5t197.5 140.5t227.5 53q92 -10 126 -66.5t34 -132.5q0 -41 -8.5 -85t-20.5 -84t-26.5 -74.5t-26.5 -57.5q-51 -90 -114.5 -196.5t-132.5 -219t-137.5 -224t-126.5 -211t-102.5 -180.5t-64.5 -130q-23 -55 -44.5 -118.5 t-21.5 -129.5zM827 2284h37q63 16 132 36.5t133.5 49.5t123 67.5t103.5 92.5q-18 -35 -19 -78q0 -29 9.5 -58.5t31.5 -58.5h9q-8 27 -13.5 50.5t-5.5 49.5q0 51 33 114t127 153l-17 6q-84 -86 -164.5 -153.5t-163.5 -118t-170 -88.5t-186 -64z" />
<glyph unicode="&#xdc;" horiz-adv-x="1116" d="M104 139q0 -23 4.5 -48t14.5 -45.5t28.5 -34t47.5 -13.5q63 0 141 52t150.5 123t129 141.5t78.5 109.5q-25 -47 -46 -112.5t-21 -131.5q0 -92 52 -136t146 -44q68 0 125.5 30.5t108.5 79t98 110t96 122.5h-22q-27 -35 -70 -91t-98 -109.5t-120.5 -92.5t-133.5 -39 q-57 0 -87 40t-30 93q0 43 16.5 90.5t45.5 94.5l1005 1740h-110l-916 -1562q-23 -39 -58.5 -90t-79.5 -104.5t-94 -104.5t-100.5 -92t-99.5 -65.5t-92 -24.5q-20 0 -35 12q-16 10 -23.5 29.5t-7.5 42.5q0 39 13.5 78.5t23.5 58.5q92 168 186.5 319.5t186.5 297t181 290.5 t169 299q41 80 76 176t35 191q0 258 -279 258q-109 0 -218 -51.5t-199.5 -136.5t-146.5 -194.5t-56 -228.5q0 -45 11 -85t37 -69.5t64.5 -47t94.5 -17.5q57 0 116.5 24.5t107.5 64.5t81 90.5t39 99.5h-15q-12 -51 -44.5 -98.5t-79 -82t-100.5 -56t-112 -21.5 q-74 0 -119.5 43t-45.5 121q0 115 52 225t139 197.5t197.5 140.5t227.5 53q92 -10 126 -66.5t34 -132.5q0 -41 -8.5 -85t-20.5 -84t-26.5 -74.5t-26.5 -57.5q-51 -90 -114.5 -196.5t-132.5 -219t-137.5 -224t-126.5 -211t-102.5 -180.5t-64.5 -130q-23 -55 -44.5 -118.5 t-21.5 -129.5zM1147 2316q0 -49 41 -49q14 0 37 12q45 29 76.5 68t42.5 68q8 16 8 34q0 35 -35 35q-18 0 -39 -10q-106 -57 -127 -133q-4 -16 -4 -25zM1419 2341q0 -41 7.5 -56.5t27.5 -15.5q4 0 25 4q45 29 76.5 62t42.5 71q8 19 8 37t-10.5 26.5t-26.5 8.5q-25 0 -45 -12 q-57 -33 -79 -68t-26 -57z" />
<glyph unicode="&#xdd;" horiz-adv-x="1116" d="M-885 -295q0 -72 25.5 -135.5t77 -112.5t129.5 -77.5t182 -28.5q156 0 307.5 62.5t288.5 156.5t255 203.5t208 203.5l1124 -415q100 -37 203.5 -55.5t185.5 -18.5q137 0 248 41t187.5 103.5t117.5 140t41 151.5q-14 -92 -60 -167.5t-119 -129t-169 -83t-213 -29.5 q-92 0 -197.5 20.5t-210.5 61.5l-1093 423q76 76 175 216.5t213 319.5t235.5 385t243.5 415t238.5 408.5t219.5 365.5h-90q-12 -16 -49 -80.5t-91.5 -157t-119 -203t-130 -221t-127 -211t-108.5 -172.5q-23 -33 -68 -94t-105 -120.5t-131 -104.5t-140 -45q-47 0 -66.5 24.5 t-19.5 59.5q0 45 20.5 95t40.5 83q88 139 172 267t149.5 245t105.5 219.5t40 188.5q0 106 -57.5 159.5t-167.5 53.5q-74 0 -152 -26t-154.5 -68t-146 -97t-128 -115.5t-100.5 -121t-63 -111.5q-10 -29 -20 -78t-10 -100q0 -47 12 -90t43 -66l8 14q-27 23 -37 56t-10 71 q0 41 9 84t22 72q35 90 110.5 187.5t175 177.5t213 132t224.5 52q78 0 130 -38t52 -124q0 -90 -58.5 -202.5t-139.5 -232.5t-166 -241t-138 -231q-16 -35 -29.5 -84t-13.5 -96q0 -57 28 -99.5t99 -42.5q68 0 128.5 29t113.5 72t98 94t82 96q-76 -111 -149.5 -227.5 t-151.5 -235t-162 -238.5t-178 -237q-61 14 -141 43t-178.5 58.5t-216 51t-252.5 21.5q-162 0 -284 -47t-204 -121.5t-124 -168t-42 -183.5zM-860 -301q0 86 41 176t119.5 163t194.5 119t267 46q100 0 205 -19.5t203 -49.5t184 -63.5t152 -64.5q-68 -90 -166 -199.5 t-222 -206t-271.5 -162t-315.5 -65.5q-100 0 -174 27t-122 71t-71.5 103t-23.5 125zM1374 2265l15 -14l327 446q-4 4 -8 4q-6 0 -12 -8t-15.5 -17t-21.5 -16.5t-33 -7.5z" />
<glyph unicode="&#xdf;" horiz-adv-x="704" d="M-381 -389v-43q74 45 146.5 99t142 101.5t134 79t122.5 31.5q47 0 82 -22q-37 49 -103 49q-45 0 -95 -22.5t-101 -63.5l135 254q23 -43 52.5 -58.5t64.5 -15.5q53 0 98 20q84 39 153.5 103.5t124 145.5t91 172t55.5 184q6 31 11 66.5t5 74.5q0 25 -2 48.5t-6 47.5 q59 27 116.5 82t102.5 123t73 143.5t28 143.5q0 57 -32 95t-83 38q-49 0 -107.5 -44t-128.5 -149q-55 -84 -91 -136t-60.5 -86t-41 -56.5t-32.5 -46t-34.5 -54t-47.5 -82t-70.5 -128t-105.5 -193.5l-424 -780zM135 119q0 27 6 59.5t29 67.5l610 1026q41 70 85 98.5t79 28.5 t55.5 -24.5t20.5 -65.5q0 -16 -5 -35t-11 -39q-29 -96 -108 -192.5t-198 -157.5q12 -37 13 -107q0 -39 -5.5 -79t-13.5 -74q-14 -70 -49 -155t-85 -168t-116.5 -153.5t-144.5 -111.5q-18 -8 -37.5 -13.5t-38.5 -5.5q-20 0 -37.5 7.5t-27.5 25.5q-20 23 -21 68z" />
<glyph unicode="&#xe0;" horiz-adv-x="770" d="M6 168q0 -25 5 -54.5t17.5 -54t34 -42t54.5 -17.5q27 0 60.5 8t69.5 26.5t71.5 50.5t68.5 79q-4 -14 -7 -33.5t-3 -42.5q0 -31 20.5 -61.5t73.5 -30.5q86 0 161 39t137 95t112.5 120t85.5 115q0 4 -15 6q-16 -25 -63 -84.5t-110.5 -118.5t-133.5 -105.5t-131 -46.5 q-35 0 -47 17.5t-12 40.5q0 18 7 38.5t17 37.5q55 92 126 208.5t139.5 227t125 201t82.5 128.5h-104l-60 -96q-16 55 -43.5 75.5t-60.5 20.5q-63 0 -139 -34.5t-151 -92t-145.5 -133t-123.5 -158.5t-86 -168t-33 -161zM92 113q0 49 24.5 126.5t67.5 165t101.5 175.5 t124 158.5t136 114.5t140.5 44q33 0 52.5 -21.5t19.5 -64.5q0 -2 -6.5 -29.5t-40.5 -81.5q0 -2 -20.5 -33.5t-51.5 -80.5t-66.5 -105.5t-66.5 -105.5t-52.5 -83t-21.5 -36q-29 -47 -65.5 -89t-75.5 -74t-79 -50t-77 -18q-25 0 -34 26.5t-9 61.5zM527 1458l268 -438l14 14 l-192 373q-47 14 -59.5 35.5t-20.5 21.5q-4 0 -10 -6z" />
<glyph unicode="&#xe1;" horiz-adv-x="770" d="M6 168q0 -25 5 -54.5t17.5 -54t34 -42t54.5 -17.5q27 0 60.5 8t69.5 26.5t71.5 50.5t68.5 79q-4 -14 -7 -33.5t-3 -42.5q0 -31 20.5 -61.5t73.5 -30.5q86 0 161 39t137 95t112.5 120t85.5 115q0 4 -15 6q-16 -25 -63 -84.5t-110.5 -118.5t-133.5 -105.5t-131 -46.5 q-35 0 -47 17.5t-12 40.5q0 18 7 38.5t17 37.5q55 92 126 208.5t139.5 227t125 201t82.5 128.5h-104l-60 -96q-16 55 -43.5 75.5t-60.5 20.5q-63 0 -139 -34.5t-151 -92t-145.5 -133t-123.5 -158.5t-86 -168t-33 -161zM92 113q0 49 24.5 126.5t67.5 165t101.5 175.5 t124 158.5t136 114.5t140.5 44q33 0 52.5 -21.5t19.5 -64.5q0 -2 -6.5 -29.5t-40.5 -81.5q0 -2 -20.5 -33.5t-51.5 -80.5t-66.5 -105.5t-66.5 -105.5t-52.5 -83t-21.5 -36q-29 -47 -65.5 -89t-75.5 -74t-79 -50t-77 -18q-25 0 -34 26.5t-9 61.5zM636 1038l15 -14l327 446 q-4 4 -8 4q-6 0 -12 -8t-15.5 -17t-21.5 -16.5t-33 -7.5z" />
<glyph unicode="&#xe2;" horiz-adv-x="770" d="M6 168q0 -25 5 -54.5t17.5 -54t34 -42t54.5 -17.5q27 0 60.5 8t69.5 26.5t71.5 50.5t68.5 79q-4 -14 -7 -33.5t-3 -42.5q0 -31 20.5 -61.5t73.5 -30.5q86 0 161 39t137 95t112.5 120t85.5 115q0 4 -15 6q-16 -25 -63 -84.5t-110.5 -118.5t-133.5 -105.5t-131 -46.5 q-35 0 -47 17.5t-12 40.5q0 18 7 38.5t17 37.5q55 92 126 208.5t139.5 227t125 201t82.5 128.5h-104l-60 -96q-16 55 -43.5 75.5t-60.5 20.5q-63 0 -139 -34.5t-151 -92t-145.5 -133t-123.5 -158.5t-86 -168t-33 -161zM92 113q0 49 24.5 126.5t67.5 165t101.5 175.5 t124 158.5t136 114.5t140.5 44q33 0 52.5 -21.5t19.5 -64.5q0 -2 -6.5 -29.5t-40.5 -81.5q0 -2 -20.5 -33.5t-51.5 -80.5t-66.5 -105.5t-66.5 -105.5t-52.5 -83t-21.5 -36q-29 -47 -65.5 -89t-75.5 -74t-79 -50t-77 -18q-25 0 -34 26.5t-9 61.5zM407 975h37q63 16 132 36.5 t133.5 49.5t123 67.5t103.5 92.5q-18 -35 -19 -78q0 -29 9.5 -58.5t31.5 -58.5h9q-8 27 -13.5 50.5t-5.5 49.5q0 51 33 114t127 153l-17 6q-84 -86 -164.5 -153.5t-163.5 -118t-170 -88.5t-186 -64z" />
<glyph unicode="&#xe3;" horiz-adv-x="770" d="M-434 -1608q0 -37 39 -55q37 -20 75.5 -28.5t79.5 -8.5q66 0 129.5 23.5t116.5 64.5q49 -10 104.5 -24.5t117 -28.5t128 -24.5t139.5 -10.5q70 0 142.5 11.5t150.5 39.5q96 45 184.5 135t129.5 207h-15q-16 -55 -50 -102t-76 -85t-91 -65.5t-96 -44.5q-98 -23 -170 -34 t-141 -11q-88 0 -185.5 18.5t-240.5 55.5q12 31 12 55q0 41 -33 62.5t-80 21.5q-57 0 -108 -26h8q39 12 76 12q45 0 76.5 -18.5t31.5 -53.5q0 -23 -14 -45q-23 8 -54.5 16.5t-68.5 15.5t-76 11t-75 4q-31 0 -57.5 -3t-47.5 -13q-33 -14 -47 -33.5t-14 -38.5zM-375 -1612 q0 20 31 37q37 6 78 6q53 0 111 -9.5t124 -25.5q-53 -39 -106.5 -53t-100.5 -14q-35 0 -63.5 6t-48.5 16q-25 20 -25 37zM6 168q0 -25 5 -54.5t17.5 -54t34 -42t54.5 -17.5q27 0 60.5 8t69.5 26.5t71.5 50.5t68.5 79q-4 -14 -7 -33.5t-3 -42.5q0 -31 20.5 -61.5t73.5 -30.5 q86 0 161 39t137 95t112.5 120t85.5 115q0 4 -15 6q-16 -25 -63 -84.5t-110.5 -118.5t-133.5 -105.5t-131 -46.5q-35 0 -47 17.5t-12 40.5q0 18 7 38.5t17 37.5q55 92 126 208.5t139.5 227t125 201t82.5 128.5h-104l-60 -96q-16 55 -43.5 75.5t-60.5 20.5q-63 0 -139 -34.5 t-151 -92t-145.5 -133t-123.5 -158.5t-86 -168t-33 -161zM92 113q0 49 24.5 126.5t67.5 165t101.5 175.5t124 158.5t136 114.5t140.5 44q33 0 52.5 -21.5t19.5 -64.5q0 -2 -6.5 -29.5t-40.5 -81.5q0 -2 -20.5 -33.5t-51.5 -80.5t-66.5 -105.5t-66.5 -105.5t-52.5 -83 t-21.5 -36q-29 -47 -65.5 -89t-75.5 -74t-79 -50t-77 -18q-25 0 -34 26.5t-9 61.5zM342 1032q35 33 71 45t74 12q43 0 88.5 -11t93.5 -25.5t97 -25.5t100 -11q35 0 69 7t69 23l-7 7q-49 -20 -102 -21q-49 0 -93 14.5t-88 30.5t-89 30.5t-93 14.5q-43 0 -90 -16.5t-100 -59.5 v-14z" />
<glyph unicode="&#xe4;" horiz-adv-x="770" d="M6 168q0 -25 5 -54.5t17.5 -54t34 -42t54.5 -17.5q27 0 60.5 8t69.5 26.5t71.5 50.5t68.5 79q-4 -14 -7 -33.5t-3 -42.5q0 -31 20.5 -61.5t73.5 -30.5q86 0 161 39t137 95t112.5 120t85.5 115q0 4 -15 6q-16 -25 -63 -84.5t-110.5 -118.5t-133.5 -105.5t-131 -46.5 q-35 0 -47 17.5t-12 40.5q0 18 7 38.5t17 37.5q55 92 126 208.5t139.5 227t125 201t82.5 128.5h-104l-60 -96q-16 55 -43.5 75.5t-60.5 20.5q-63 0 -139 -34.5t-151 -92t-145.5 -133t-123.5 -158.5t-86 -168t-33 -161zM92 113q0 49 24.5 126.5t67.5 165t101.5 175.5 t124 158.5t136 114.5t140.5 44q33 0 52.5 -21.5t19.5 -64.5q0 -2 -6.5 -29.5t-40.5 -81.5q0 -2 -20.5 -33.5t-51.5 -80.5t-66.5 -105.5t-66.5 -105.5t-52.5 -83t-21.5 -36q-29 -47 -65.5 -89t-75.5 -74t-79 -50t-77 -18q-25 0 -34 26.5t-9 61.5zM711 1079q0 -49 41 -49 q14 0 37 12q45 29 76.5 68t42.5 68q8 16 8 34q0 35 -35 35q-18 0 -39 -10q-106 -57 -127 -133q-4 -16 -4 -25zM983 1104q0 -41 7.5 -56.5t27.5 -15.5q4 0 25 4q45 29 76.5 62t42.5 71q8 19 8 37t-10.5 26.5t-26.5 8.5q-25 0 -45 -12q-57 -33 -79 -68t-26 -57z" />
<glyph unicode="&#xe5;" horiz-adv-x="770" d="M6 168q0 -25 5 -54.5t17.5 -54t34 -42t54.5 -17.5q27 0 60.5 8t69.5 26.5t71.5 50.5t68.5 79q-4 -14 -7 -33.5t-3 -42.5q0 -31 20.5 -61.5t73.5 -30.5q86 0 161 39t137 95t112.5 120t85.5 115q0 4 -15 6q-16 -25 -63 -84.5t-110.5 -118.5t-133.5 -105.5t-131 -46.5 q-35 0 -47 17.5t-12 40.5q0 18 7 38.5t17 37.5q55 92 126 208.5t139.5 227t125 201t82.5 128.5h-104l-60 -96q-16 55 -43.5 75.5t-60.5 20.5q-63 0 -139 -34.5t-151 -92t-145.5 -133t-123.5 -158.5t-86 -168t-33 -161zM92 113q0 49 24.5 126.5t67.5 165t101.5 175.5 t124 158.5t136 114.5t140.5 44q33 0 52.5 -21.5t19.5 -64.5q0 -2 -6.5 -29.5t-40.5 -81.5q0 -2 -20.5 -33.5t-51.5 -80.5t-66.5 -105.5t-66.5 -105.5t-52.5 -83t-21.5 -36q-29 -47 -65.5 -89t-75.5 -74t-79 -50t-77 -18q-25 0 -34 26.5t-9 61.5zM639 1221q0 55 26.5 112.5 t69.5 103.5t96.5 74.5t108.5 28.5q14 0 33.5 -3t38 -14.5t31 -35t12.5 -64.5q0 -59 -24.5 -121.5t-65.5 -114.5t-95.5 -85t-111.5 -33q-66 0 -92.5 46t-26.5 106zM682 1161q0 -27 16.5 -52.5t51.5 -25.5q51 0 103 35t93 86t67.5 110.5t26.5 108.5q0 33 -18 61.5t-53 28.5 q-37 0 -86 -28.5t-93.5 -76.5t-76 -112.5t-31.5 -134.5z" />
<glyph unicode="&#xe6;" horiz-adv-x="770" d="M6 168q0 -35 7 -68.5t30 -62.5q12 -16 28.5 -26.5t45.5 -10.5q25 0 59.5 11.5t83.5 39.5q39 29 72 59.5t55 53.5l-90 -164h96l105 207q-10 -25 -13.5 -46.5t-3.5 -39.5q0 -66 44 -94.5t108 -28.5q29 0 60.5 5t64.5 17q123 49 229.5 121t196.5 164l-8 23 q-41 -39 -87.5 -80t-98.5 -79t-110.5 -70.5t-121.5 -55.5q-55 -20 -103 -20q-49 0 -73.5 27.5t-24.5 90.5q16 94 51 165t68 132q174 96 301 185.5t184 179.5q25 38 25 65q0 45 -76 45q-39 0 -90 -12q-45 -16 -84 -37.5t-74 -44.5h-74q-16 55 -43.5 75.5t-60.5 20.5 t-67.5 -13t-65.5 -23q-68 -31 -139.5 -85.5t-139 -125t-127 -154.5t-102.5 -172q-12 -35 -24.5 -80t-12.5 -94zM86 94q0 33 8 64.5t17 48.5q27 84 81 174t118.5 176t132 160t122.5 123q63 57 121 57q33 0 53.5 -21.5t20.5 -64.5q0 -10 -2 -23.5t-6 -29.5 q-47 -70 -112 -173.5t-130.5 -204.5t-124.5 -181t-96 -103q-35 -29 -78 -50t-76 -21q-27 0 -39 18q-10 25 -10 51zM692 475q31 68 70 129.5t83 113.5t90 91t91 61q25 8 49.5 13.5t42.5 5.5t30.5 -5.5t12.5 -19.5q0 -25 -45 -76q-31 -35 -79 -77.5t-105.5 -86.5t-119.5 -84 t-120 -65z" />
<glyph unicode="&#xe7;" horiz-adv-x="557" d="M33 172q0 -53 19.5 -97t66.5 -75q-39 -49 -55.5 -88t-16.5 -70q0 -39 25.5 -59.5t68.5 -20.5q51 0 125 35v17q-66 -33 -108 -33q-33 0 -49.5 17.5t-16.5 45.5q0 31 18.5 68t53.5 72q39 0 82 4t88 26q135 39 245.5 122t172.5 206h-31q-23 -45 -60.5 -91t-92 -89t-126 -78 t-159.5 -55q-16 -4 -31.5 -6.5t-32.5 -2.5q-27 0 -49.5 7.5t-36.5 23.5q-16 18 -21.5 41t-5.5 45q0 41 13 78q25 68 68.5 151t101 165.5t123 158.5t131.5 129q88 70 143 70q37 0 54.5 -21.5t17.5 -56.5q0 -33 -16.5 -51.5t-63.5 -54.5l-8 -7l6 -14q49 35 83 68.5t34 74.5 q0 18 -5 29q-12 29 -29.5 43t-56.5 14q-16 0 -36.5 -2t-49.5 -10q-102 -31 -192 -93.5t-160.5 -141t-122 -163.5t-75.5 -161q-33 -94 -33 -170z" />
<glyph unicode="&#xe8;" horiz-adv-x="602" d="M59 178q0 -102 38 -140t100 -38q63 0 143 33t157.5 80t144.5 101t101 97v23q-14 -18 -64 -61.5t-114.5 -89.5t-133.5 -86t-120 -54q-18 -8 -44.5 -14t-53.5 -6q-37 0 -65.5 21.5t-28.5 88.5q0 68 39 144.5t80 160.5q98 63 189 119.5t161.5 109t113.5 100.5t43 97 q0 29 -20 40t-53 11q-41 0 -92.5 -15t-96.5 -44q-98 -63 -176 -142t-133 -166t-85 -181.5t-30 -188.5zM252 475q12 23 35.5 66t59.5 95t85 108.5t111 103.5q37 25 71.5 35t61.5 10q47 0 47 -31q0 -39 -38 -85t-102.5 -97t-150.5 -103.5t-180 -101.5zM371 1460l268 -438 l14 14l-192 373q-47 14 -59.5 35.5t-20.5 21.5q-4 0 -10 -6z" />
<glyph unicode="&#xe9;" horiz-adv-x="602" d="M59 178q0 -102 38 -140t100 -38q63 0 143 33t157.5 80t144.5 101t101 97v23q-14 -18 -64 -61.5t-114.5 -89.5t-133.5 -86t-120 -54q-18 -8 -44.5 -14t-53.5 -6q-37 0 -65.5 21.5t-28.5 88.5q0 68 39 144.5t80 160.5q98 63 189 119.5t161.5 109t113.5 100.5t43 97 q0 29 -20 40t-53 11q-41 0 -92.5 -15t-96.5 -44q-98 -63 -176 -142t-133 -166t-85 -181.5t-30 -188.5zM252 475q12 23 35.5 66t59.5 95t85 108.5t111 103.5q37 25 71.5 35t61.5 10q47 0 47 -31q0 -39 -38 -85t-102.5 -97t-150.5 -103.5t-180 -101.5zM573 1034l15 -14 l327 446q-4 4 -8 4q-6 0 -12 -8t-15.5 -17t-21.5 -16.5t-33 -7.5z" />
<glyph unicode="&#xea;" horiz-adv-x="602" d="M59 178q0 -102 38 -140t100 -38q63 0 143 33t157.5 80t144.5 101t101 97v23q-14 -18 -64 -61.5t-114.5 -89.5t-133.5 -86t-120 -54q-18 -8 -44.5 -14t-53.5 -6q-37 0 -65.5 21.5t-28.5 88.5q0 68 39 144.5t80 160.5q98 63 189 119.5t161.5 109t113.5 100.5t43 97 q0 29 -20 40t-53 11q-41 0 -92.5 -15t-96.5 -44q-98 -63 -176 -142t-133 -166t-85 -181.5t-30 -188.5zM252 475q12 23 35.5 66t59.5 95t85 108.5t111 103.5q37 25 71.5 35t61.5 10q47 0 47 -31q0 -39 -38 -85t-102.5 -97t-150.5 -103.5t-180 -101.5zM295 977h37 q63 16 132 36.5t133.5 49.5t123 67.5t103.5 92.5q-18 -35 -19 -78q0 -29 9.5 -58.5t31.5 -58.5h9q-8 27 -13.5 50.5t-5.5 49.5q0 51 33 114t127 153l-17 6q-84 -86 -164.5 -153.5t-163.5 -118t-170 -88.5t-186 -64z" />
<glyph unicode="&#xeb;" horiz-adv-x="602" d="M59 178q0 -102 38 -140t100 -38q63 0 143 33t157.5 80t144.5 101t101 97v23q-14 -18 -64 -61.5t-114.5 -89.5t-133.5 -86t-120 -54q-18 -8 -44.5 -14t-53.5 -6q-37 0 -65.5 21.5t-28.5 88.5q0 68 39 144.5t80 160.5q98 63 189 119.5t161.5 109t113.5 100.5t43 97 q0 29 -20 40t-53 11q-41 0 -92.5 -15t-96.5 -44q-98 -63 -176 -142t-133 -166t-85 -181.5t-30 -188.5zM252 475q12 23 35.5 66t59.5 95t85 108.5t111 103.5q37 25 71.5 35t61.5 10q47 0 47 -31q0 -39 -38 -85t-102.5 -97t-150.5 -103.5t-180 -101.5zM467 1075q0 -49 41 -49 q14 0 37 12q45 29 76.5 68t42.5 68q8 16 8 34q0 35 -35 35q-18 0 -39 -10q-106 -57 -127 -133q-4 -16 -4 -25zM739 1100q0 -41 7.5 -56.5t27.5 -15.5q4 0 25 4q45 29 76.5 62t42.5 71q8 19 8 37t-10.5 26.5t-26.5 8.5q-25 0 -45 -12q-57 -33 -79 -68t-26 -57z" />
<glyph unicode="&#xec;" horiz-adv-x="780" d="M334 1458l268 -438l14 14l-192 373q-47 14 -59.5 35.5t-20.5 21.5q-4 0 -10 -6z" />
<glyph unicode="&#xed;" horiz-adv-x="1048" d="M589 1034l15 -14l327 446q-4 4 -8 4q-6 0 -12 -8t-15.5 -17t-21.5 -16.5t-33 -7.5z" />
<glyph unicode="&#xee;" horiz-adv-x="780" d="M116 1014h37q63 16 132 36.5t133.5 49.5t123 67.5t103.5 92.5q-18 -35 -19 -78q0 -29 9.5 -58.5t31.5 -58.5h9q-8 27 -13.5 50.5t-5.5 49.5q0 51 33 114t127 153l-17 6q-84 -86 -164.5 -153.5t-163.5 -118t-170 -88.5t-186 -64z" />
<glyph unicode="&#xef;" horiz-adv-x="780" d="M408 1075q0 -49 41 -49q14 0 37 12q45 29 76.5 68t42.5 68q8 16 8 34q0 35 -35 35q-18 0 -39 -10q-106 -57 -127 -133q-4 -16 -4 -25zM680 1100q0 -41 7.5 -56.5t27.5 -15.5q4 0 25 4q45 29 76.5 62t42.5 71q8 19 8 37t-10.5 26.5t-26.5 8.5q-25 0 -45 -12 q-57 -33 -79 -68t-26 -57z" />
<glyph unicode="&#xf1;" horiz-adv-x="937" d="M0 0h111q68 100 131 207.5t129 208.5q92 115 191.5 232.5t211.5 207.5q33 25 55.5 35t38.5 10q23 0 32 -13.5t9 -33.5q0 -29 -16 -57q-35 -70 -96.5 -164t-122 -192.5t-104.5 -189.5t-44 -153q0 -41 17.5 -67.5t44.5 -30.5q63 0 121.5 23.5t117 64.5t117.5 96t127 121v14 q-63 -61 -122.5 -116.5t-113 -96t-102.5 -65.5t-94 -27h-6q-43 0 -43 47q0 51 26.5 115t65.5 133.5t85 140t85 136t65.5 121t26.5 92.5v4q-2 63 -22.5 86.5t-49.5 23.5q-23 0 -46 -9t-46 -25q-41 -29 -124 -110t-173 -181l193 327h-111zM457 1049q35 33 71 45t74 12 q43 0 88.5 -11t93.5 -25.5t97 -25.5t100 -11q35 0 69 7t69 23l-7 7q-49 -20 -102 -21q-49 0 -93 14.5t-88 30.5t-89 30.5t-93 14.5q-43 0 -90 -16.5t-100 -59.5v-14z" />
<glyph unicode="&#xf2;" d="M4 113q0 -53 24.5 -82t75.5 -29q57 0 134 35q94 55 179 141t153.5 181.5t116.5 190.5t71 171q43 -23 115.5 -44.5t146.5 -21.5q41 0 79.5 10t67.5 33v17q-12 -16 -50 -32.5t-97 -16.5q-39 0 -84 9t-96 32q-29 10 -52.5 28.5t-29.5 22.5q4 12 4 26q0 16 -2 35t-2 29 q-10 29 -28.5 49.5t-59.5 20.5q-23 0 -54.5 -8.5t-72.5 -30.5q-90 -49 -171 -120t-148.5 -156t-120 -183t-83.5 -205q-16 -61 -16 -102zM43 88q23 76 77 173t126.5 199.5t153.5 200t157 173.5q35 35 64.5 49t52.5 14q29 0 46 -19t17 -44q0 -90 -39 -194.5t-106.5 -210 t-156.5 -202t-189 -168.5q-39 -29 -75 -40t-65 -11q-31 0 -47 17.5t-16 62.5zM434 1462l268 -438l14 14l-192 373q-47 14 -59.5 35.5t-20.5 21.5q-4 0 -10 -6z" />
<glyph unicode="&#xf3;" d="M4 113q0 -53 24.5 -82t75.5 -29q57 0 134 35q94 55 179 141t153.5 181.5t116.5 190.5t71 171q43 -23 115.5 -44.5t146.5 -21.5q41 0 79.5 10t67.5 33v17q-12 -16 -50 -32.5t-97 -16.5q-39 0 -84 9t-96 32q-29 10 -52.5 28.5t-29.5 22.5q4 12 4 26q0 16 -2 35t-2 29 q-10 29 -28.5 49.5t-59.5 20.5q-23 0 -54.5 -8.5t-72.5 -30.5q-90 -49 -171 -120t-148.5 -156t-120 -183t-83.5 -205q-16 -61 -16 -102zM43 88q23 76 77 173t126.5 199.5t153.5 200t157 173.5q35 35 64.5 49t52.5 14q29 0 46 -19t17 -44q0 -90 -39 -194.5t-106.5 -210 t-156.5 -202t-189 -168.5q-39 -29 -75 -40t-65 -11q-31 0 -47 17.5t-16 62.5zM653 1044l15 -14l327 446q-4 4 -8 4q-6 0 -12 -8t-15.5 -17t-21.5 -16.5t-33 -7.5z" />
<glyph unicode="&#xf4;" d="M4 113q0 -53 24.5 -82t75.5 -29q57 0 134 35q94 55 179 141t153.5 181.5t116.5 190.5t71 171q43 -23 115.5 -44.5t146.5 -21.5q41 0 79.5 10t67.5 33v17q-12 -16 -50 -32.5t-97 -16.5q-39 0 -84 9t-96 32q-29 10 -52.5 28.5t-29.5 22.5q4 12 4 26q0 16 -2 35t-2 29 q-10 29 -28.5 49.5t-59.5 20.5q-23 0 -54.5 -8.5t-72.5 -30.5q-90 -49 -171 -120t-148.5 -156t-120 -183t-83.5 -205q-16 -61 -16 -102zM43 88q23 76 77 173t126.5 199.5t153.5 200t157 173.5q35 35 64.5 49t52.5 14q29 0 46 -19t17 -44q0 -90 -39 -194.5t-106.5 -210 t-156.5 -202t-189 -168.5q-39 -29 -75 -40t-65 -11q-31 0 -47 17.5t-16 62.5zM260 1010h37q63 16 132 36.5t133.5 49.5t123 67.5t103.5 92.5q-18 -35 -19 -78q0 -29 9.5 -58.5t31.5 -58.5h9q-8 27 -13.5 50.5t-5.5 49.5q0 51 33 114t127 153l-17 6q-84 -86 -164.5 -153.5 t-163.5 -118t-170 -88.5t-186 -64z" />
<glyph unicode="&#xf5;" d="M4 113q0 -53 24.5 -82t75.5 -29q57 0 134 35q94 55 179 141t153.5 181.5t116.5 190.5t71 171q43 -23 115.5 -44.5t146.5 -21.5q41 0 79.5 10t67.5 33v17q-12 -16 -50 -32.5t-97 -16.5q-39 0 -84 9t-96 32q-29 10 -52.5 28.5t-29.5 22.5q4 12 4 26q0 16 -2 35t-2 29 q-10 29 -28.5 49.5t-59.5 20.5q-23 0 -54.5 -8.5t-72.5 -30.5q-90 -49 -171 -120t-148.5 -156t-120 -183t-83.5 -205q-16 -61 -16 -102zM43 88q23 76 77 173t126.5 199.5t153.5 200t157 173.5q35 35 64.5 49t52.5 14q29 0 46 -19t17 -44q0 -90 -39 -194.5t-106.5 -210 t-156.5 -202t-189 -168.5q-39 -29 -75 -40t-65 -11q-31 0 -47 17.5t-16 62.5zM342 1026q35 33 71 45t74 12q43 0 88.5 -11t93.5 -25.5t97 -25.5t100 -11q35 0 69 7t69 23l-7 7q-49 -20 -102 -21q-49 0 -93 14.5t-88 30.5t-89 30.5t-93 14.5q-43 0 -90 -16.5t-100 -59.5v-14z " />
<glyph unicode="&#xf6;" d="M4 113q0 -53 24.5 -82t75.5 -29q57 0 134 35q94 55 179 141t153.5 181.5t116.5 190.5t71 171q43 -23 115.5 -44.5t146.5 -21.5q41 0 79.5 10t67.5 33v17q-12 -16 -50 -32.5t-97 -16.5q-39 0 -84 9t-96 32q-29 10 -52.5 28.5t-29.5 22.5q4 12 4 26q0 16 -2 35t-2 29 q-10 29 -28.5 49.5t-59.5 20.5q-23 0 -54.5 -8.5t-72.5 -30.5q-90 -49 -171 -120t-148.5 -156t-120 -183t-83.5 -205q-16 -61 -16 -102zM43 88q23 76 77 173t126.5 199.5t153.5 200t157 173.5q35 35 64.5 49t52.5 14q29 0 46 -19t17 -44q0 -90 -39 -194.5t-106.5 -210 t-156.5 -202t-189 -168.5q-39 -29 -75 -40t-65 -11q-31 0 -47 17.5t-16 62.5zM524 1083q0 -49 41 -49q14 0 37 12q45 29 76.5 68t42.5 68q8 16 8 34q0 35 -35 35q-18 0 -39 -10q-106 -57 -127 -133q-4 -16 -4 -25zM796 1108q0 -41 7.5 -56.5t27.5 -15.5q4 0 25 4 q45 29 76.5 62t42.5 71q8 19 8 37t-10.5 26.5t-26.5 8.5q-25 0 -45 -12q-57 -33 -79 -68t-26 -57z" />
<glyph unicode="&#xf7;" horiz-adv-x="669" d="M238 424h491l45 59h-491zM305 184q0 -66 41 -65q18 0 41 14q33 29 48.5 55.5t25.5 71.5q2 8 3 14.5t1 12.5q0 51 -39 51q-23 0 -47 -19q-41 -29 -57.5 -67.5t-16.5 -67.5zM483 600q0 -66 41 -65q18 0 41 14q33 29 48.5 55.5t25.5 71.5q2 8 3 14t1 12q0 51 -39 52 q-23 0 -47 -19q-41 -29 -57.5 -67.5t-16.5 -67.5z" />
<glyph unicode="&#xf8;" d="M4 115q0 -113 100 -113q57 0 134 35q94 55 179 141t153.5 181.5t116.5 190.5t71 171q43 -23 115.5 -44.5t146.5 -21.5q41 0 79.5 10t67.5 33v17q-12 -16 -50 -32.5t-97 -16.5q-39 0 -84 9t-96 32q-29 10 -43.5 22t-30.5 23q0 16 -2 49t-12 55q16 29 22 56.5t6 70.5 q-10 63 -52 91t-89 28q-37 0 -69.5 -14.5t-49.5 -38.5q-14 -20 -14 -48q0 -35 17.5 -67.5t33.5 -48.5q-84 -45 -167 -116t-154.5 -158t-128 -188t-87.5 -208q-16 -61 -16 -100zM43 88q33 82 93.5 186.5t134 211t153.5 204.5t156 166q23 -23 45 -41t45 -35 q-70 -94 -136.5 -190t-136 -190.5t-146.5 -185.5t-169 -177l6 -8q164 152 313.5 343t290.5 394l37 -29q-16 -66 -54 -151.5t-97.5 -178t-142.5 -183.5t-189 -165q-39 -29 -75 -40t-65 -11q-31 0 -47 17.5t-16 62.5zM524 1006q0 16 11 36q16 18 44.5 29.5t59.5 11.5 q43 0 80 -23.5t47 -76.5q0 -41 -6 -65.5t-17 -38.5q-20 39 -65 39q-23 0 -49.5 -7.5t-48.5 -17.5q-55 70 -56 113zM602 870q49 25 78 25t49 -33l-45 -59q-23 16 -44.5 33.5t-37.5 33.5zM707 788l30 46v-68z" />
<glyph unicode="&#xf9;" horiz-adv-x="792" d="M8 115q0 -59 29 -95q16 -16 49 -16q29 0 61.5 11.5t59.5 21.5q39 23 68.5 44t53 42.5t44 46.5t43.5 53q-10 -27 -10 -71q0 -31 9 -63t31 -52q16 -16 38 -25.5t53 -9.5q27 0 59.5 9t73.5 32q18 14 45.5 35.5t57.5 46.5t60.5 50.5t59.5 47.5l-14 15q-57 -45 -105.5 -87 t-111.5 -85q-68 -47 -121 -48q-45 0 -72 41q-6 18 -6 35q0 29 15.5 62.5t49.5 89.5q106 168 209.5 330.5t214.5 338.5h-104l-418 -649q-39 -49 -93 -107.5t-122 -99.5q-27 -16 -57.5 -28.5t-55.5 -12.5q-23 0 -37 12.5t-14 43.5q0 16 10.5 41.5t25.5 53.5t31.5 53.5 t28.5 43.5q57 90 124 190.5t127.5 190.5t107.5 162t67 106h-104l-403 -610q-23 -33 -40.5 -86t-17.5 -104zM543 1466l268 -438l14 14l-192 373q-47 14 -59.5 35.5t-20.5 21.5q-4 0 -10 -6z" />
<glyph unicode="&#xfa;" horiz-adv-x="792" d="M8 115q0 -59 29 -95q16 -16 49 -16q29 0 61.5 11.5t59.5 21.5q39 23 68.5 44t53 42.5t44 46.5t43.5 53q-10 -27 -10 -71q0 -31 9 -63t31 -52q16 -16 38 -25.5t53 -9.5q27 0 59.5 9t73.5 32q18 14 45.5 35.5t57.5 46.5t60.5 50.5t59.5 47.5l-14 15q-57 -45 -105.5 -87 t-111.5 -85q-68 -47 -121 -48q-45 0 -72 41q-6 18 -6 35q0 29 15.5 62.5t49.5 89.5q106 168 209.5 330.5t214.5 338.5h-104l-418 -649q-39 -49 -93 -107.5t-122 -99.5q-27 -16 -57.5 -28.5t-55.5 -12.5q-23 0 -37 12.5t-14 43.5q0 16 10.5 41.5t25.5 53.5t31.5 53.5 t28.5 43.5q57 90 124 190.5t127.5 190.5t107.5 162t67 106h-104l-403 -610q-23 -33 -40.5 -86t-17.5 -104zM669 1044l15 -14l327 446q-4 4 -8 4q-6 0 -12 -8t-15.5 -17t-21.5 -16.5t-33 -7.5z" />
<glyph unicode="&#xfb;" horiz-adv-x="792" d="M8 115q0 -59 29 -95q16 -16 49 -16q29 0 61.5 11.5t59.5 21.5q39 23 68.5 44t53 42.5t44 46.5t43.5 53q-10 -27 -10 -71q0 -31 9 -63t31 -52q16 -16 38 -25.5t53 -9.5q27 0 59.5 9t73.5 32q18 14 45.5 35.5t57.5 46.5t60.5 50.5t59.5 47.5l-14 15q-57 -45 -105.5 -87 t-111.5 -85q-68 -47 -121 -48q-45 0 -72 41q-6 18 -6 35q0 29 15.5 62.5t49.5 89.5q106 168 209.5 330.5t214.5 338.5h-104l-418 -649q-39 -49 -93 -107.5t-122 -99.5q-27 -16 -57.5 -28.5t-55.5 -12.5q-23 0 -37 12.5t-14 43.5q0 16 10.5 41.5t25.5 53.5t31.5 53.5 t28.5 43.5q57 90 124 190.5t127.5 190.5t107.5 162t67 106h-104l-403 -610q-23 -33 -40.5 -86t-17.5 -104zM393 1004h37q63 16 132 36.5t133.5 49.5t123 67.5t103.5 92.5q-18 -35 -19 -78q0 -29 9.5 -58.5t31.5 -58.5h9q-8 27 -13.5 50.5t-5.5 49.5q0 51 33 114t127 153 l-17 6q-84 -86 -164.5 -153.5t-163.5 -118t-170 -88.5t-186 -64z" />
<glyph unicode="&#xfc;" horiz-adv-x="792" d="M8 115q0 -59 29 -95q16 -16 49 -16q29 0 61.5 11.5t59.5 21.5q39 23 68.5 44t53 42.5t44 46.5t43.5 53q-10 -27 -10 -71q0 -31 9 -63t31 -52q16 -16 38 -25.5t53 -9.5q27 0 59.5 9t73.5 32q18 14 45.5 35.5t57.5 46.5t60.5 50.5t59.5 47.5l-14 15q-57 -45 -105.5 -87 t-111.5 -85q-68 -47 -121 -48q-45 0 -72 41q-6 18 -6 35q0 29 15.5 62.5t49.5 89.5q106 168 209.5 330.5t214.5 338.5h-104l-418 -649q-39 -49 -93 -107.5t-122 -99.5q-27 -16 -57.5 -28.5t-55.5 -12.5q-23 0 -37 12.5t-14 43.5q0 16 10.5 41.5t25.5 53.5t31.5 53.5 t28.5 43.5q57 90 124 190.5t127.5 190.5t107.5 162t67 106h-104l-403 -610q-23 -33 -40.5 -86t-17.5 -104zM557 1075q0 -49 41 -49q14 0 37 12q45 29 76.5 68t42.5 68q8 16 8 34q0 35 -35 35q-18 0 -39 -10q-106 -57 -127 -133q-4 -16 -4 -25zM829 1100q0 -41 7.5 -56.5 t27.5 -15.5q4 0 25 4q45 29 76.5 62t42.5 71q8 19 8 37t-10.5 26.5t-26.5 8.5q-25 0 -45 -12q-57 -33 -79 -68t-26 -57z" />
<glyph unicode="&#xfd;" horiz-adv-x="870" d="M-1307 -563q0 82 35 163t108.5 145.5t188.5 103t275 38.5q168 0 351 -91t341 -288q31 33 82 93.5t114.5 144.5t135 189.5t145.5 228.5q-20 -31 -49 -56.5t-60.5 -45t-61.5 -34t-52 -22.5q-29 -6 -49 -6q-39 0 -67 17.5t-46 45t-26.5 61.5t-8.5 69q0 41 8.5 83.5 t30.5 79.5q43 76 93 160t99.5 162t91.5 140.5t66 96.5h105q-31 -55 -85.5 -141t-114.5 -182t-117.5 -193.5t-92.5 -175.5q-12 -29 -20.5 -55.5t-8.5 -52.5q0 -41 26 -65.5t63 -24.5q16 0 33.5 4t33.5 8q25 8 60.5 30.5t72.5 52.5t69 62.5t50 63.5q41 68 92 154.5t103.5 178 t100.5 179.5t85 157h104q-18 -39 -67 -138t-119 -232t-158 -288t-185 -307.5t-201.5 -289.5t-207.5 -233q111 -150 257.5 -212.5t301.5 -62.5q121 0 239 32t220.5 86t182 123.5t124.5 143.5l15 -8q-72 -104 -162 -183t-191.5 -131.5t-210 -79t-217.5 -26.5 q-178 0 -335.5 69.5t-262.5 209.5q-61 -61 -145 -130t-189.5 -125.5t-234.5 -94t-278 -37.5q-113 0 -202 36.5t-150.5 98t-94.5 140.5t-33 161zM-1274 -594q0 -68 26.5 -130t81 -114.5t137.5 -89.5t193 -49q106 8 186.5 23.5t164.5 60.5t186 130.5t254 232.5 q-66 84 -134.5 153.5t-146 120.5t-169 78.5t-199.5 27.5q-139 0 -248 -39.5t-182.5 -102t-111.5 -142.5t-38 -160zM649 1038l252 387q20 0 32.5 7.5t22 16.5t15.5 17.5t12 8.5q4 0 8 -5l-327 -446z" />
<glyph unicode="&#xfe;" horiz-adv-x="948" d="M-530 -805h98l780 1258q43 72 106.5 150.5t134 144t143.5 108.5t136 43q45 0 45 -51q0 -12 -2 -28.5t-10 -39.5q-29 -78 -62.5 -163t-77.5 -167.5t-97.5 -156.5t-120.5 -129q-55 -45 -102.5 -63.5t-84.5 -18.5q-61 0 -94 42t-33 105l-6 -6q0 -74 36 -117t108 -43 q45 0 103 17.5t124 60.5q74 49 136.5 131t108.5 175.5t75.5 186.5t37.5 163q0 53 -14 87t-61 34q-49 0 -96.5 -22t-92.5 -53.5t-89 -70.5t-87 -74l418 664q45 12 85 29.5t70.5 37t49 41t18.5 41.5h-14q-4 -37 -54.5 -67.5t-128 -56t-172 -50t-182.5 -49.5l14 -8l187 51z" />
<glyph unicode="&#xff;" horiz-adv-x="870" d="M-1307 -563q0 82 35 163t108.5 145.5t188.5 103t275 38.5q168 0 351 -91t341 -288q31 33 82 93.5t114.5 144.5t135 189.5t145.5 228.5q-20 -31 -49 -56.5t-60.5 -45t-61.5 -34t-52 -22.5q-29 -6 -49 -6q-39 0 -67 17.5t-46 45t-26.5 61.5t-8.5 69q0 41 8.5 83.5 t30.5 79.5q43 76 93 160t99.5 162t91.5 140.5t66 96.5h105q-31 -55 -85.5 -141t-114.5 -182t-117.5 -193.5t-92.5 -175.5q-12 -29 -20.5 -55.5t-8.5 -52.5q0 -41 26 -65.5t63 -24.5q16 0 33.5 4t33.5 8q25 8 60.5 30.5t72.5 52.5t69 62.5t50 63.5q41 68 92 154.5t103.5 178 t100.5 179.5t85 157h104q-18 -39 -67 -138t-119 -232t-158 -288t-185 -307.5t-201.5 -289.5t-207.5 -233q111 -150 257.5 -212.5t301.5 -62.5q121 0 239 32t220.5 86t182 123.5t124.5 143.5l15 -8q-72 -104 -162 -183t-191.5 -131.5t-210 -79t-217.5 -26.5 q-178 0 -335.5 69.5t-262.5 209.5q-61 -61 -145 -130t-189.5 -125.5t-234.5 -94t-278 -37.5q-113 0 -202 36.5t-150.5 98t-94.5 140.5t-33 161zM-1274 -594q0 -68 26.5 -130t81 -114.5t137.5 -89.5t193 -49q106 8 186.5 23.5t164.5 60.5t186 130.5t254 232.5 q-66 84 -134.5 153.5t-146 120.5t-169 78.5t-199.5 27.5q-139 0 -248 -39.5t-182.5 -102t-111.5 -142.5t-38 -160zM535 1075q0 8 4 25q20 76 127 133q20 10 39 10q34 0 34 -35q0 -18 -8 -34q-10 -29 -42 -68t-77 -68q-23 -12 -37 -12q-41 0 -40 49zM807 1100q4 23 25.5 57.5 t78.5 67.5q20 12 45 12q16 0 26.5 -8.5t10.5 -26.5t-8 -37q-10 -39 -42 -71.5t-77 -61.5q-20 -4 -24 -4q-20 0 -27.5 15.5t-7.5 56.5z" />
<glyph unicode="&#x152;" horiz-adv-x="2121" d="M106 279q0 -117 52.5 -198t160.5 -81q129 0 241 61.5t210 153.5t183 197.5t159 195.5q-35 -98 -35 -205q0 -80 25.5 -151.5t73 -125.5t117 -86t155.5 -32q102 0 194.5 32t169 86t138 123.5t104.5 145.5t65.5 153t22.5 144q0 43 -15.5 90t-44 85t-69.5 63.5t-92 25.5 q-66 0 -135.5 -36.5t-130 -98t-105.5 -139.5t-61 -160q8 -4 6 -4l8 4q14 72 54 143.5t96.5 128t126 92.5t145.5 36q47 0 83 -20.5t60.5 -53.5t37 -75t12.5 -83q0 -123 -55.5 -239.5t-146.5 -208.5t-205 -148.5t-230 -56.5q-141 0 -225.5 79t-84.5 220q0 92 30 190.5 t71 175.5q47 86 115.5 157t148.5 129.5t166 106.5t166 91q23 10 22 22q0 8 -14 52q-23 68 -37 140.5t-14 143.5q0 109 37 207q59 160 163.5 250t249.5 90q59 0 112.5 -18.5t93.5 -52t63.5 -82t23.5 -107.5q0 -113 -56 -196t-145 -158l7 -9q111 74 164 155t53 202 q0 70 -23.5 125t-64.5 94t-97.5 60.5t-124.5 21.5q-82 0 -159.5 -26.5t-147 -75t-127 -113t-98.5 -137.5q-31 -59 -44 -111.5t-13 -99.5q0 -51 13 -95.5t34.5 -81t48.5 -66.5t51 -52q20 -20 21 -41q0 -27 -37 -49q-45 -16 -101.5 -39t-118 -52.5t-126 -67.5t-125.5 -83 q133 205 228 422t132 428q2 10 2 22v23q0 37 -8 69.5t-24.5 58.5t-43 41t-63.5 15q-94 0 -210 -77.5t-234.5 -203.5t-231.5 -283t-201 -312.5t-141 -297t-53 -233.5t69 -92q33 0 77 28.5t93 88.5q98 117 187.5 233.5t170.5 245.5t153.5 274.5t138.5 317.5 q-55 -129 -121 -252t-148 -251t-181 -262t-222 -284q-49 -59 -88 -85.5t-64 -26.5q-39 0 -39 61q0 70 32 166t85 206.5t125 228.5t154 230.5t170 213t173 176.5t163.5 120t142.5 44q55 0 83 -41t28 -107q0 -10 -1.5 -22.5t-3.5 -24.5q-10 -80 -53 -197.5t-109.5 -257 t-153.5 -291t-186.5 -298t-209 -278.5t-220 -232.5t-219 -158.5t-206.5 -58q-47 0 -79 14t-50.5 38.5t-25.5 57.5t-7 70q0 125 53 289.5t142 345t204 362.5t238 344t243.5 288t223.5 193q72 47 165 68t185 21q-16 4 -33.5 6t-40.5 2q-37 0 -78 -6.5t-82 -16.5t-78.5 -25.5 t-68.5 -33.5q-98 -59 -220 -169t-247 -253t-245 -312t-212 -345.5t-148.5 -351.5t-56.5 -330z" />
<glyph unicode="&#x153;" horiz-adv-x="1060" d="M4 113q0 -53 24.5 -82t75.5 -29q57 0 134 35q76 45 135 96t106 105.5t82 107.5t64 100q-29 -61 -46.5 -124.5t-17.5 -137.5v-32q0 -14 4 -33q10 -53 45 -88t101 -35q29 0 61.5 8t67.5 25q61 23 121.5 54.5t113.5 68t98.5 76.5t75.5 77l-6 29q-90 -96 -185 -164t-224 -119 q-68 -27 -115 -26q-49 0 -71.5 26.5t-22.5 73.5q10 86 43.5 159.5t72.5 143.5l11 18q10 6 20 12.5t21 10.5q156 78 262 155.5t180 186.5q18 30 18 55q0 53 -77 54q-20 0 -44 -4.5t-53 -14.5q-86 -33 -183 -113.5t-204 -222.5q16 25 30.5 54.5t24 62.5t14.5 63.5t5 55.5 q0 33 -8 47q-10 29 -28.5 49.5t-59.5 20.5q-23 0 -54.5 -8.5t-72.5 -30.5q-90 -49 -171 -120t-148.5 -156t-120 -183t-83.5 -205q-16 -61 -16 -102zM39 63q0 8 4 25q23 76 77 173t126.5 199.5t153.5 200t157 173.5q35 35 64.5 49t52.5 14q29 0 46 -19t17 -44 q0 -90 -39 -194.5t-106.5 -210t-156.5 -202t-189 -168.5q-41 -29 -77 -40t-65 -11q-66 0 -65 55zM766 483q51 113 114.5 203t176.5 162q88 45 131 45q35 0 35 -27q0 -39 -76 -114q-74 -72 -171 -139.5t-210 -129.5z" />
<glyph unicode="&#x178;" horiz-adv-x="1116" d="M-885 -295q0 -72 25.5 -135.5t77 -112.5t129.5 -77.5t182 -28.5q156 0 307.5 62.5t288.5 156.5t255 203.5t208 203.5l1124 -415q100 -37 203.5 -55.5t185.5 -18.5q137 0 248 41t187.5 103.5t117.5 140t41 151.5q-14 -92 -60 -167.5t-119 -129t-169 -83t-213 -29.5 q-92 0 -197.5 20.5t-210.5 61.5l-1093 423q76 76 175 216.5t213 319.5t235.5 385t243.5 415t238.5 408.5t219.5 365.5h-90q-12 -16 -49 -80.5t-91.5 -157t-119 -203t-130 -221t-127 -211t-108.5 -172.5q-23 -33 -68 -94t-105 -120.5t-131 -104.5t-140 -45q-47 0 -66.5 24.5 t-19.5 59.5q0 45 20.5 95t40.5 83q88 139 172 267t149.5 245t105.5 219.5t40 188.5q0 106 -57.5 159.5t-167.5 53.5q-74 0 -152 -26t-154.5 -68t-146 -97t-128 -115.5t-100.5 -121t-63 -111.5q-10 -29 -20 -78t-10 -100q0 -47 12 -90t43 -66l8 14q-27 23 -37 56t-10 71 q0 41 9 84t22 72q35 90 110.5 187.5t175 177.5t213 132t224.5 52q78 0 130 -38t52 -124q0 -90 -58.5 -202.5t-139.5 -232.5t-166 -241t-138 -231q-16 -35 -29.5 -84t-13.5 -96q0 -57 28 -99.5t99 -42.5q68 0 128.5 29t113.5 72t98 94t82 96q-76 -111 -149.5 -227.5 t-151.5 -235t-162 -238.5t-178 -237q-61 14 -141 43t-178.5 58.5t-216 51t-252.5 21.5q-162 0 -284 -47t-204 -121.5t-124 -168t-42 -183.5zM-860 -301q0 86 41 176t119.5 163t194.5 119t267 46q100 0 205 -19.5t203 -49.5t184 -63.5t152 -64.5q-68 -90 -166 -199.5 t-222 -206t-271.5 -162t-315.5 -65.5q-100 0 -174 27t-122 71t-71.5 103t-23.5 125zM1309 2326q0 -49 41 -49q14 0 37 12q45 29 76.5 68t42.5 68q8 16 8 34q0 35 -35 35q-18 0 -39 -10q-106 -57 -127 -133q-4 -16 -4 -25zM1581 2351q0 -41 7.5 -56.5t27.5 -15.5q4 0 25 4 q45 29 76.5 62t42.5 71q8 19 8 37t-10.5 26.5t-26.5 8.5q-25 0 -45 -12q-57 -33 -79 -68t-26 -57z" />
<glyph unicode="&#x2c6;" horiz-adv-x="780" d="M401 975h37q63 16 132 36.5t133.5 49.5t123 67.5t103.5 92.5q-18 -35 -19 -78q0 -29 9.5 -58.5t31.5 -58.5h9q-8 27 -13.5 50.5t-5.5 49.5q0 51 33 114t127 153l-17 6q-84 -86 -164.5 -153.5t-163.5 -118t-170 -88.5t-186 -64z" />
<glyph unicode="&#x2dc;" horiz-adv-x="1617" d="M1948 2617q0 -37 39 -55q37 -20 75.5 -28.5t79.5 -8.5q66 0 129.5 23.5t116.5 64.5q49 -10 104.5 -24.5t117 -28.5t128 -24.5t139.5 -10.5q70 0 142.5 11.5t150.5 39.5q96 45 184.5 135t129.5 207h-15q-16 -55 -50 -102t-76 -85t-91 -65.5t-96 -44.5q-98 -23 -170 -34 t-141 -11q-88 0 -185.5 18.5t-240.5 55.5q12 31 12 55q0 41 -33 62.5t-80 21.5q-57 0 -108 -26h8q39 12 76 12q45 0 76.5 -18.5t31.5 -53.5q0 -23 -14 -45q-23 8 -54.5 16.5t-68.5 15.5t-76 11t-75 4q-31 0 -57.5 -3t-47.5 -13q-33 -14 -47 -33.5t-14 -38.5zM2007 2613 q0 20 31 37q37 6 78 6q53 0 111 -9.5t124 -25.5q-53 -39 -106.5 -53t-100.5 -14q-35 0 -63.5 6t-48.5 16q-25 20 -25 37z" />
<glyph unicode="&#x2000;" horiz-adv-x="1721" />
<glyph unicode="&#x2001;" horiz-adv-x="3443" />
<glyph unicode="&#x2002;" horiz-adv-x="1721" />
<glyph unicode="&#x2003;" horiz-adv-x="3443" />
<glyph unicode="&#x2004;" horiz-adv-x="1147" />
<glyph unicode="&#x2005;" horiz-adv-x="860" />
<glyph unicode="&#x2006;" horiz-adv-x="573" />
<glyph unicode="&#x2007;" horiz-adv-x="573" />
<glyph unicode="&#x2008;" horiz-adv-x="430" />
<glyph unicode="&#x2009;" horiz-adv-x="688" />
</font>
</defs>
</svg>
